<?xml version="1.0" encoding="utf-8"?>
<!-- Generator: Adobe Illustrator 22.0.1, SVG Export Plug-In . SVG Version: 6.00 Build 0)  -->
<svg version="1.1" id="Layer_1" xmlns="http://www.w3.org/2000/svg" xmlns:xlink="http://www.w3.org/1999/xlink" x="0px" y="0px"
	 viewBox="0 0 118.4 118.2" style="enable-background:new 0 0 118.4 118.2;" xml:space="preserve">
<style type="text/css">
	.st0{fill:#294028;}
</style>
<title>Asset 1</title>
<g id="Layer_2_1_">
	<g id="Layer_1-2">
		<path class="st0" d="M59.2,118.3c-16.6,0-30.6-5.5-42-16.6S0.1,76.4,0.1,59c0-17.5,5.8-31.7,17.3-42.7S42.8-0.1,59.2-0.1
			c17.1,0,31.2,5.6,42.4,16.9s16.7,25.3,16.7,42.2c0,17.3-5.7,31.5-17.1,42.6S75.8,118.3,59.2,118.3z M57.7,113.4
			c15.2,0,29.8-5,37.8-10.9s13.1-33.8,13.1-43.6s-5.1-37.8-13.2-43.5S73.4,4.8,59.7,4.8c-14.2,0-28.4,4.8-36.6,10.5
			S10.7,49.2,10.7,59.6c0,8.1,3.7,35.5,11.2,42S43.3,113.4,57.7,113.4z"/>
		<path class="st0" d="M75.2,19.8l3.8,5.8L46.3,58.9L79,91.8l-3.8,5.7L33.7,69.2c-1.6-1-3.1-2.3-4.2-3.9c-0.8-1.2-1.2-3.5-1.2-6.9
			c0-3.2,0.4-5.4,1.2-6.6c1-1.4,2.2-2.5,3.6-3.5L75.2,19.8z"/>
	</g>
</g>
</svg>
