<?xml version="1.0" encoding="utf-8"?>
<!-- Generator: Adobe Illustrator 22.0.1, SVG Export Plug-In . SVG Version: 6.00 Build 0)  -->
<svg version="1.1" id="Layer_1" xmlns="http://www.w3.org/2000/svg" xmlns:xlink="http://www.w3.org/1999/xlink" x="0px" y="0px"
	 viewBox="0 0 118.4 118.2" style="enable-background:new 0 0 118.4 118.2;" xml:space="preserve">
<style type="text/css">
	.st0{fill:#294028;}
</style>
<title>Asset 1</title>
<g id="Layer_2_1_">
	<g id="Layer_1-2">
		<path class="st0" d="M118.4,59.1c0,16.6-5.5,30.6-16.6,42s-25.3,17.1-42.6,17.1c-17.5,0-31.7-5.8-42.7-17.3S0,75.5,0,59.1
			C0,42,5.6,27.9,16.9,16.7S42.3,0,59.1,0c17.3,0,31.5,5.7,42.6,17.1S118.4,42.5,118.4,59.1z M113.5,60.6c0-15.2-5-29.8-10.9-37.8
			S68.8,9.6,58.9,9.6s-37.8,5.1-43.5,13.2S4.9,44.9,4.9,58.6c0,14.2,4.8,28.4,10.5,36.6s33.8,12.4,44.2,12.4c8.1,0,35.5-3.7,42-11.2
			S113.5,75,113.5,60.6z"/>
		<path class="st0" d="M19.8,43.1l5.8-3.8L59,72l32.9-32.7l5.7,3.8L69.3,84.7c-1,1.6-2.3,3.1-3.9,4.2c-1.2,0.8-3.5,1.2-6.9,1.2
			c-3.2,0-5.4-0.4-6.6-1.2c-1.4-1-2.5-2.2-3.5-3.7L19.8,43.1z"/>
	</g>
</g>
</svg>
