<?xml version="1.0" encoding="utf-8"?>
<!-- Generator: Adobe Illustrator 22.0.1, SVG Export Plug-In . SVG Version: 6.00 Build 0)  -->
<svg version="1.1" id="Layer_1" xmlns="http://www.w3.org/2000/svg" xmlns:xlink="http://www.w3.org/1999/xlink" x="0px" y="0px"
	 viewBox="0 0 118.4 118.2" style="enable-background:new 0 0 118.4 118.2;" xml:space="preserve">
<style type="text/css">
	.st0{fill:#294028;}
</style>
<title>Asset 1</title>
<g id="Layer_2_1_">
	<g id="Layer_1-2">
		<path class="st0" d="M59.2-0.1c16.6,0,30.6,5.5,42,16.6s17.1,25.3,17.1,42.6c0,17.5-5.8,31.7-17.3,42.7s-25.5,16.5-41.8,16.5
			c-17.1,0-31.2-5.6-42.4-16.9S0.1,76,0.1,59.2c0-17.3,5.7-31.5,17.1-42.6S42.6-0.1,59.2-0.1z M60.6,4.8c-15.2,0-29.8,5-37.8,10.9
			S9.7,49.6,9.7,59.4s5.1,37.8,13.2,43.5c8.1,5.7,22,10.5,35.7,10.5c14.2,0,28.4-4.8,36.6-10.5s12.4-33.8,12.4-44.2
			c0-8.1-3.7-35.5-11.2-42S75.1,4.8,60.6,4.8z"/>
		<path class="st0" d="M43.2,98.5l-3.8-5.8l32.7-33.4L39.4,26.4l3.8-5.7L84.7,49c1.6,1,3.1,2.3,4.2,3.9c0.8,1.2,1.2,3.5,1.2,6.9
			c0,3.2-0.4,5.4-1.2,6.6c-1,1.4-2.2,2.5-3.7,3.5L43.2,98.5z"/>
	</g>
</g>
</svg>
