<?xml version="1.0" encoding="utf-8"?>
<!-- Generator: Adobe Illustrator 22.0.1, SVG Export Plug-In . SVG Version: 6.00 Build 0)  -->
<svg version="1.1" id="Layer_1" xmlns="http://www.w3.org/2000/svg" xmlns:xlink="http://www.w3.org/1999/xlink" x="0px" y="0px"
	 viewBox="0 0 118.4 118.2" style="enable-background:new 0 0 118.4 118.2;" xml:space="preserve">
<style type="text/css">
	.st0{fill:#1B1924;}
</style>
<title>Asset 1</title>
<g id="Layer_1-2">
	<path class="st0" d="M46.7,94l-3.8-5.8l32.7-33.4L42.9,21.9l3.8-5.7l41.6,28.3c1.6,1,3.1,2.3,4.2,3.9c0.8,1.2,1.2,3.5,1.2,6.9
		c0,3.2-0.4,5.4-1.2,6.6c-1,1.4-2.2,2.5-3.7,3.5L46.7,94z"/>
</g>
<path class="st0" d="M31.6,47c2,0,8.6,0.6,19.9,2c11.3,1.3,22.2,2.4,32.7,3.4V57c-10.5,0.9-21.4,1.9-32.7,3.2s-17.9,1.9-19.9,1.9
	c-2.2,0-4.1-0.7-5.7-2.1c-1.5-1.4-2.3-3.2-2.3-5.4s0.8-4,2.3-5.4C27.5,47.7,29.4,47,31.6,47z"/>
<polygon class="st0" points="272.9,97.9 293.3,97.9 293.3,89 283.1,86.1 "/>
</svg>
