<?xml version="1.0" encoding="utf-8"?>
<!-- Generator: Adobe Illustrator 22.0.1, SVG Export Plug-In . SVG Version: 6.00 Build 0)  -->
<svg version="1.1" id="Layer_1" xmlns="http://www.w3.org/2000/svg" xmlns:xlink="http://www.w3.org/1999/xlink" x="0px" y="0px"
	 viewBox="0 0 118.4 118.2" style="enable-background:new 0 0 118.4 118.2;" xml:space="preserve">
<style type="text/css">
	.st0{fill:#D9BA9B;}
</style>
<title>Asset 1</title>
<g id="Layer_1-2">
	<path class="st0" d="M19.8,43.1l5.8-3.8L59,72l32.9-32.7l5.7,3.8L69.3,84.7c-1,1.6-2.3,3.1-3.9,4.2c-1.2,0.8-3.5,1.2-6.9,1.2
		c-3.2,0-5.4-0.4-6.6-1.2c-1.4-1-2.5-2.2-3.5-3.7L19.8,43.1z"/>
</g>
<path class="st0" d="M66.8,28c0,2-0.6,8.6-2,19.9c-1.3,11.3-2.4,22.2-3.4,32.7h-4.6c-0.9-10.5-1.9-21.4-3.2-32.7
	C52.3,36.6,51.6,30,51.6,28c0-2.2,0.7-4.1,2.1-5.7c1.4-1.5,3.2-2.3,5.4-2.3c2.2,0,4,0.8,5.4,2.3C66.1,23.8,66.8,25.7,66.8,28z"/>
</svg>
