<?xml version="1.0" encoding="utf-8"?>
<!-- Generator: Adobe Illustrator 22.0.1, SVG Export Plug-In . SVG Version: 6.00 Build 0)  -->
<svg version="1.1" xmlns="http://www.w3.org/2000/svg" xmlns:xlink="http://www.w3.org/1999/xlink" x="0px" y="0px"
	 viewBox="0 0 118.4 118.2" style="enable-background:new 0 0 118.4 118.2;" xml:space="preserve">
<style type="text/css">
	.st0{fill:#1B1924;}
</style>
<g id="Layer_1">
	<title>Asset 1</title>
	<g id="Layer_1-2_3_">
		<path class="st0" d="M103.4,54l-6.6,3.3L59.1,25.5L21.7,57.4l-6.4-3.7l32-40.5c1.2-1.6,2.6-3,4.4-4.1c1.4-0.7,4-1.2,7.8-1.2
			c3.7,0,6.2,0.4,7.5,1.2c1.6,0.9,2.8,2.1,4,3.6L103.4,54z"/>
	</g>
	<g id="Layer_1-2_4_">
		<path class="st0" d="M47.3,13c1.2-1.5,2.4-2.6,4-3.6c1.4-0.7,3.9-1.2,7.5-1.2c3.9,0,6.5,0.4,7.8,1.2c1.8,1,3.2,2.5,4.4,4.1
			L103.4,54l-6.8,3.7L59.3,25.8L21.5,57.6L15,54L47.3,13z"/>
	</g>
	<g>
		<path class="st0" d="M60.4,29.7c6,0,11.3,0.6,15.9,2c4.7,1.4,8.6,3.1,11.7,5.4c3.1,2.3,5.4,4.9,7,7.8c1.6,2.9,2.4,6,2.4,9.2v37.1
			c0.1,3.2,1.5,6.4,5.2,8.2v4.3H77.4v-4.3c1.7-0.2,5.1-1.8,5-7.5V57.8c0-2.3-0.3-4.7-0.8-7.1c-0.6-2.5-1.8-4.8-3.5-7
			c-1.9-2.2-4.3-4-7.4-5.3c-3.1-1.4-7.4-2.1-12.9-2.1"/>
	</g>
	<path class="st0" d="M67.6,40.3c-5.4,0-11.7-0.3-14.9,1.1c-3.1,1.4-5.5,3.1-7.4,5.3c-1.7,2.2-2.8,4.5-3.5,7
		c-0.5,2.4-0.8,4.8-0.8,7.1v31.1c0,5.8,3.4,7.3,5,7.5v4.3H15.7v-4.3c3.7-1.8,5.1-4.9,5.2-8.2V54.2c0-3.2,0.8-6.3,2.4-9.2
		c1.6-2.9,3.9-5.5,7-7.8s13-4.1,17.7-5.4c4.6-1.4,9.9-2,15.9-2"/>
	<path class="st0" d="M54.5,29.7c6,0,11.3,0.6,15.9,2c4.7,1.4,14.6,3.1,17.7,5.4s5.4,4.9,7,7.8c1.6,2.9,2.4,6,2.4,9.2v37.1
		c0.1,3.2,1.5,6.4,5.2,8.2v4.3H72.4v-4.3c1.7-0.2,5.1-1.8,5-7.5V60.8c0-2.3-0.3-4.7-0.8-7.1c-0.6-2.5-1.8-4.8-3.5-7
		c-1.9-2.2-4.3-4-7.4-5.3c-3.1-1.4-9.4-1.1-14.9-1.1"/>
	<path class="st0" d="M44.5,33c0-9.9,4.2-17.9,9.4-17.9h11.8c5.2,0,9.4,8,9.4,17.9v0"/>
	<path class="st0" d="M53.9,33.9"/>
</g>
<g id="Layer_2">
</g>
</svg>
