<?xml version="1.0" encoding="utf-8"?>
<!-- Generator: Adobe Illustrator 22.0.1, SVG Export Plug-In . SVG Version: 6.00 Build 0)  -->
<svg version="1.1" id="Layer_1" xmlns="http://www.w3.org/2000/svg" xmlns:xlink="http://www.w3.org/1999/xlink" x="0px" y="0px"
	 viewBox="0 0 118.4 118.2" style="enable-background:new 0 0 118.4 118.2;" xml:space="preserve">
<style type="text/css">
	.st0{fill:#FF0474;}
</style>
<title>Asset 1</title>
<g id="Layer_1-2">
	<path class="st0" d="M97.6,49l-6.3,3.5L55.2,22.1L19.5,52.5L13.4,49L44,10.3c1.1-1.5,2.5-2.9,4.2-3.9c1.3-0.7,3.8-1.1,7.5-1.1
		c3.5,0,5.9,0.4,7.2,1.1c1.5,0.9,2.7,2,3.8,3.4L97.6,49z"/>
</g>
<g>
	<path class="st0" d="M7.3,104.7c1.2,0,3.1-0.3,5.5-0.7c2.4-0.4,4.4-1,5.9-1.9s2.6-2.7,3.1-5.4c0.6-2.8,0.9-6.1,0.9-10.1V51.3
		c0-4.5,1.1-8.4,3.3-11.7c2.2-3.3,5.1-6.1,8.6-8.2s7.2-3.5,11.1-4.4s7.6-1.3,11.2-1.3c5.7,0,10.8,0.6,15.2,1.9
		c4.5,1.3,8.2,3,11.2,5.2s5.2,4.7,6.7,7.5s2.3,5.7,2.3,8.8V97c0,1.3,0.3,2.5,0.8,3.4s1.5,1.7,3.1,2.5c1.1,0.5,2.5,1,4.3,1.3
		c1.7,0.3,3.2,0.5,4.3,0.6v4.1H65.2v-4.1c1.2,0,2.8-0.2,4.7-0.5c1.9-0.3,3.3-0.6,4.2-0.9c1.5-0.5,2.5-1.2,3-2.3
		c0.5-1.1,0.8-2.2,0.8-3.5v-45c0-2.2-0.3-4.5-0.8-6.8c-0.6-2.4-1.7-4.6-3.3-6.7C72,37,69.7,35.3,66.7,34s-7.1-2-12.3-2
		c-4.9,0-9,0.7-12.3,2s-5.9,3.1-7.8,5.3c-1.8,2.1-3.1,4.2-3.9,6.5s-1.1,4.5-1.1,6.8V86c0,4.2,0.4,7.7,1.1,10.4
		c0.7,2.7,1.8,4.5,3.1,5.3c1.6,1,3.7,1.7,6.4,2.2s4.8,0.8,6.2,0.9v4.1H7.3V104.7z"/>
</g>
<polygon class="st0" points="45.9,28.9 66.3,28.9 66.3,20 56.1,17.1 "/>
</svg>
