<svg xmlns="http://www.w3.org/2000/svg" viewBox="0 0 118.39 118.23"><defs><style>.cls-1{fill:#caa85f;}</style></defs><title>Asset 1</title><g id="Layer_2" data-name="Layer 2"><g id="Layer_1-2" data-name="Layer 1"><path class="cls-1" d="M118.39,59.12q0,24.92-16.64,42T59.12,118.23q-26.19,0-42.66-17.28T0,59.12Q0,33.47,16.92,16.73T59.12,0q26,0,42.63,17.11T118.39,59.12Zm-4.92,1.45c0-15.16-5-29.77-10.9-37.82S68.75,9.65,58.93,9.65,21.16,14.72,15.46,22.84,4.92,44.88,4.92,58.58C4.92,72.75,9.76,87,15.46,95.22s33.77,12.36,44.19,12.36c8.13,0,35.47-3.73,42-11.18S113.47,75,113.47,60.57Z"/><path class="cls-1" d="M19.83,43.11l5.75-3.83L59,72,91.89,39.28l5.74,3.83L69.27,84.65a15.15,15.15,0,0,1-3.89,4.19Q63.52,90,58.49,90q-4.79,0-6.58-1.25a14.74,14.74,0,0,1-3.47-3.65Z"/></g></g></svg>