<?xml version="1.0" encoding="utf-8"?>
<!-- Generator: Adobe Illustrator 22.0.1, SVG Export Plug-In . SVG Version: 6.00 Build 0)  -->
<svg version="1.1" id="Layer_1" xmlns="http://www.w3.org/2000/svg" xmlns:xlink="http://www.w3.org/1999/xlink" x="0px" y="0px"
	 viewBox="0 0 118.4 118.2" style="enable-background:new 0 0 118.4 118.2;" xml:space="preserve">
<style type="text/css">
	.st0{fill:#CAA85F;}
</style>
<title>Asset 1</title>
<g id="Layer_1-2">
	<path class="st0" d="M70.7,16.2l3.8,5.8L41.8,55.4l32.7,32.9L70.7,94L29.1,65.7c-1.6-1-3.1-2.3-4.2-3.9c-0.8-1.2-1.2-3.5-1.2-6.9
		c0-3.2,0.4-5.4,1.2-6.6c1-1.4,2.2-2.5,3.7-3.5L70.7,16.2z"/>
</g>
<path class="st0" d="M85.8,63.1c-2,0-8.6-0.6-19.9-2c-11.3-1.3-22.2-2.4-32.7-3.4v-4.6c10.5-0.9,21.4-1.9,32.7-3.2S83.8,48,85.8,48
	c2.2,0,4.1,0.7,5.7,2.1c1.5,1.4,2.3,3.2,2.3,5.4s-0.8,4-2.3,5.4C89.9,62.4,88,63.1,85.8,63.1z"/>
</svg>
