<svg xmlns="http://www.w3.org/2000/svg" viewBox="0 0 416.3 378.1"><defs><style>.cls-1{fill:#fff;}</style></defs><title>$15_1</title><g id="Layer_2" data-name="Layer 2"><g id="Layer_2-2" data-name="Layer 2"><path class="cls-1" d="M177,78.78c-5.26-4.36-11-8.15-16.31-12.46-5.72-4.61-11.74-9.07-18.41-12.23-16.48-7.8-32.4-4.08-48.18,3.59C67,70.82,43.9,96.87,45.85,128.54c.89,14.51,6.34,29.26,17.19,39.31,11.9,11,27.45,13.58,42.55,17.53,5.82,1.53,12,3.42,16.36,7.1,4.6,3.87,6.25,7.62,7.59,13.7,2.39,10.79-2.37,21.84-11.64,29.87-9.65,8.34-26.31,12.53-39,10.6a82.1,82.1,0,0,1-9.31-2.43c-.29-.1-2.83-1.11-1.47-.53,1.19.51-2-1-2-1-1.54-.79-3-1.73-4.46-2.6-.1-.06-1.87-1.24-.65-.4,2.12,1.45-4.22-3.59-1.58-1.24-1.25-1.11-2.4-2.29-3.6-3.46-1.81-1.76-.51-.58-.12,0-.6-.85-1.15-1.72-1.68-2.63-.31-.54-.6-1.09-.89-1.65-.1-.2-1.58-3.79-.7-1.42C50.07,222.72,44,218.1,36.69,220c-7,1.84-10.76,8.95-9.29,15.83,7.07,33.21,48,42.68,76.54,35.1,16.53-4.39,31.31-13.92,41.07-28.05,8.76-12.67,11.43-29.87,7.33-44.68-4.54-16.33-16.56-27.25-32.26-32.76-12.87-4.52-29.71-4.29-40.42-12.77C70.74,145.59,67.07,133.5,68,121.22c.94-13,9.29-24.91,19.06-33.57a86.6,86.6,0,0,1,20.3-13c7.2-3.43,15.37-7.2,23.47-5.35,15.26,3.49,28.17,17.62,44.7,15,2.38-.39,3.3-4,1.47-5.5Z"/><path class="cls-1" d="M113.29,14c-15.59,16.18-19.63,40.12-25,61.07-6,23.58-11.66,47.23-18,70.73q-19,70.47-42.44,139.66c-8.79,26.07-18,52-27.38,77.88-2.15,5.95,2.54,12.8,8.28,14.33,6.7,1.8,12-2.38,14.34-8.27C58.76,280,86.2,187,107.51,93.13c5.52-24.31,8.85-48.91,17.64-72.33C127.7,14,117.92,9.19,113.29,14Z"/><path class="cls-1" d="M153.56,1.84c-9.67,41.33-20.58,82.33-30.3,123.65S104.45,208.3,95.41,249.8c-5.1,23.39-9.48,46.88-13.79,70.43-2.06,11.21,14.72,16,17.31,4.64,9.46-41.47,17.59-83.14,25.65-124.9s15.87-83.75,22.13-125.85c3.52-23.73,7.56-47.34,11.74-71,.56-3.16-4.14-4.53-4.89-1.31Z"/><path class="cls-1" d="M235.49,61.55a321,321,0,0,1-14.84,35.54q-4.41,9-9.35,17.69c-3.9,6.88-7.28,12.87-7.77,20.93-.52,8.74,10.05,14.34,17.25,10s11-10.86,14.77-18.17q4.84-9.28,9.1-18.88A375.5,375.5,0,0,0,260,68.11c2-6.54-2.54-13.81-9-15.53-7-1.88-13.27,2.48-15.53,9Z"/><path class="cls-1" d="M246.61,70.53a186.32,186.32,0,0,1-1.94,25.1c-1.43,8.74-3,17.46-4,26.27-2,17.08-3.42,34.2-5.33,51.29-3.77,33.63-8.05,67.16-14.09,100.46-3.49,19.24-8.91,38.86-8.17,58.48.34,9.19,13.24,13.67,17.93,4.81,8.34-15.72,11.43-33.37,14.64-50.75q4.74-25.76,8.36-51.72c4.81-34.5,9.14-69.79,8.64-104.69-.14-9.78-.9-19.38-1.77-29.1-.44-4.86-1.34-9.68-1.43-14.56-.1-5.17-.09-10.35-.18-15.52-.15-8.16-12.43-8.22-12.66-.07Z"/><path class="cls-1" d="M319.58,82.54c-.21,5.34-1.76,9.63-2.68,14.87-1,5.55-1.77,11.13-2.7,16.69-1.86,11.21-3.56,22.47-5.72,33.63A488.51,488.51,0,0,1,290.71,214c-2.6,7.53,2.53,16,9.43,18.83,7.53,3.09,15.63.07,19.94-6.76.81-1.28,1.67-2.54,2.53-3.79-1.77,2.56,2-2.74,2.73-3.66-1.83,2.39,1.15-1.35,1.66-1.94q1.74-2,3.62-3.87c1.08-1.07,2.18-2.11,3.32-3.11.75-.66,3.51-2.87,1.23-1.15a73.93,73.93,0,0,1,8.91-5.75c1.33-.73,2.7-1.38,4.05-2.06,2.81-1.41-1.39.37,1.56-.71a79.26,79.26,0,0,1,9.92-2.88c2.89-.64-1.56-.12,1.42-.18,1.4,0,2.78,0,4.17.05-2.57-.05.05.22,1.24.44-.37-.07-2.13-1.25-.77-.29.77.47.77.4,0-.19q-1.38-1.2.39.39c0-.09-1.23-2.47-.44-.6s0-.78-.13-.76.72,2.59.33.71c-.35-1.65,0,.48,0,.79,0,2.69.49-.85-.25,1.84-.2.74-.39,1.49-.62,2.23-.08.26-1,3-.55,1.77.62-1.6-.65,1.37-.8,1.69-.34.7-.69,1.4-1.06,2.09-.75,1.43-1.57,2.82-2.38,4.21q-2.94,5-6.08,9.89a249.45,249.45,0,0,1-26.44,34.83q-4.44,5-9.11,9.78-2,2.06-4.12,4c-.74.68-4.58,3.86-2,1.92a48.14,48.14,0,0,1-4.8,3.19c-1,.6-5.29,2.68-2,1.37-1.9.76-3.91,1.31-5.84,2-.71.25-1.42.52-2.13.75-.45.15-3.54.87-1.17.6-6.64.76-12.5,4.08-14.34,10.94A15.15,15.15,0,0,0,289,307.29c21.8,13.21,43.2-4.19,57.39-20.18a328.9,328.9,0,0,0,35.88-48.74c9.95-16.54,22.34-38.54,11-57.55-11.11-18.64-35.11-18.44-53.15-11.57-20,7.62-38.16,21.55-47.85,41l29.36,12.07a474.89,474.89,0,0,0,12.5-71.13A283,283,0,0,0,335.71,117c-.15-6.07-.42-12.1-1.08-18.14-.32-2.92-.47-5.86-1.49-8.62-.92-2.5-.78-4.84-.9-7.62-.36-8.14-12.33-8.24-12.66-.07Z"/><path class="cls-1" d="M324.24,90c27.91-2.55,55.48-5.4,83.12-10.07,13.66-2.31,10.9-25.57-3-24.29C376.4,58.2,349,62.48,321.38,67.16c-12.84,2.18-10.24,24,2.86,22.83Z"/></g></g></svg>