<svg xmlns="http://www.w3.org/2000/svg" viewBox="0 0 420.61 378.1"><defs><style>.cls-1{fill:#fff;}</style></defs><title>$20</title><g id="Layer_2" data-name="Layer 2"><g id="Layer_2-2" data-name="Layer 2"><path class="cls-1" d="M177,78.78c-5.26-4.36-11-8.15-16.31-12.46-5.72-4.61-11.74-9.07-18.41-12.23-16.48-7.8-32.4-4.08-48.18,3.59C67,70.82,43.9,96.87,45.85,128.54c.89,14.51,6.34,29.26,17.19,39.31,11.9,11,27.45,13.58,42.55,17.53,5.82,1.53,12,3.42,16.36,7.1,4.6,3.87,6.25,7.62,7.59,13.7,2.39,10.79-2.37,21.84-11.64,29.87-9.65,8.34-26.31,12.53-39,10.6a82.1,82.1,0,0,1-9.31-2.43c-.29-.1-2.83-1.11-1.47-.53,1.19.51-2-1-2-1-1.54-.79-3-1.73-4.46-2.6-.1-.06-1.87-1.24-.65-.4,2.12,1.45-4.22-3.59-1.58-1.24-1.25-1.11-2.4-2.29-3.6-3.46-1.81-1.76-.51-.58-.12,0-.6-.85-1.15-1.72-1.68-2.63-.31-.54-.6-1.09-.89-1.65-.1-.2-1.58-3.79-.7-1.42C50.07,222.72,44,218.1,36.69,220c-7,1.84-10.76,8.95-9.29,15.83,7.07,33.21,48,42.68,76.54,35.1,16.53-4.39,31.31-13.92,41.07-28.05,8.76-12.67,11.43-29.87,7.33-44.68-4.54-16.33-16.56-27.25-32.26-32.76-12.87-4.52-29.71-4.29-40.42-12.77C70.74,145.59,67.07,133.5,68,121.22c.94-13,9.29-24.91,19.06-33.57a86.6,86.6,0,0,1,20.3-13c7.2-3.43,15.37-7.2,23.47-5.35,15.26,3.49,28.17,17.62,44.7,15,2.38-.39,3.3-4,1.47-5.5Z"/><path class="cls-1" d="M113.29,14c-15.59,16.18-19.63,40.12-25,61.07-6,23.58-11.66,47.23-18,70.73q-19,70.47-42.44,139.66c-8.79,26.07-18,52-27.38,77.88-2.15,5.95,2.54,12.8,8.28,14.33,6.7,1.8,12-2.38,14.34-8.27C58.76,280,86.2,187,107.51,93.13c5.52-24.31,8.85-48.91,17.64-72.33C127.7,14,117.92,9.19,113.29,14Z"/><path class="cls-1" d="M153.56,1.84c-9.67,41.33-20.58,82.33-30.3,123.65S104.45,208.3,95.41,249.8c-5.1,23.39-9.48,46.88-13.79,70.43-2.06,11.21,14.72,16,17.31,4.64,9.46-41.47,17.59-83.14,25.65-124.9s15.87-83.75,22.13-125.85c3.52-23.73,7.56-47.34,11.74-71,.56-3.16-4.14-4.53-4.89-1.31Z"/><path class="cls-1" d="M201.74,121c5.69-11.67,12.62-25.94,24.54-31.84,11.62-5.75,24.8,2.22,30.89,13.41,7.9,14.52,7.13,33.29,5.49,49.22a153.1,153.1,0,0,1-12.1,45.48A159.91,159.91,0,0,1,225,238.09c-5,5.76-10.48,11.72-16.64,16.3-4.81,3.58-11.66,7.92-17.88,7-5.32-.79-6.76-4.27-7.36-9.48-.5-4.28.85-11,3.39-15.62,6.92-12.74,19.55-21.1,33.64-23.83,16.8-3.25,34.41,3.66,45.76,16.09,6.76,7.4,12.31,15.76,21,21.12s19.69,6,28.73.9c7.89-4.49,2.8-17.41-6.11-14.89-8.22,2.32-16.05-5.3-20.95-10.92-6.84-7.83-12.93-15.43-21.69-21.28-16.58-11.08-38.44-14.54-57.56-8.78-17.4,5.25-34.86,17.91-42.79,34.64-7.82,16.48-7.86,39.24,9.55,49.72,19.33,11.64,41.16-2.22,55.12-15.74a176.27,176.27,0,0,0,34.61-47.25,183.59,183.59,0,0,0,18-58.58c2.66-20.28,2.7-42.15-5.58-61.19-9-20.65-32.28-36.55-55.08-28.68-20.21,7-32,27.19-38.23,46.47-3.17,9.81,12.24,16.36,16.83,6.93Z"/><path class="cls-1" d="M382.63,85.7c3.54-15.63-9.94-27.33-24.53-28.53-15.6-1.28-30.15,9.7-37.56,22.69-8.58,15.06-8.72,34.26-8.44,51.1a249.13,249.13,0,0,0,7.13,53.52c3.89,16.23,9.68,32,20.46,45,11.62,14,29.56,19.4,46.28,11.44,25.95-12.36,35.29-48.13,34.6-74.49A114.54,114.54,0,0,0,410,121.66c-6.67-14.65-17.2-25.88-31.73-32.9-3.86-1.87-8.46-1.58-11.59,1.6-2.71,2.74-4,8.23-1.47,11.54,5.94,7.89,11,16.7,15.84,25.28,1.14,2,2.3,4,3.34,6.07.63,1.24,1.19,2.51,1.79,3.76,1.93,4-.83-2.55.69,1.64a107.18,107.18,0,0,1,4.31,14.67c.48,2.26.89,4.55,1.19,6.85-.35-2.64.14,1.89.15,1.94.07.92.13,1.85.17,2.77q.21,4.17.05,8.33c0,.93-.08,1.85-.14,2.77,0,.48-.54,5.48-.26,3.38a74.81,74.81,0,0,1-3.21,13.45c-.44,1.32-.9,2.63-1.4,3.92.73-1.91-.1.25-.23.53a70.68,70.68,0,0,1-4.4,8.35,22.94,22.94,0,0,1-3.9,4.94c-.7.73-1.45,1.4-2.17,2.11-2.8,2.74,1.69-.59-1.67,1.26-.18.1-4.35,2.23-1.54,1.09a23,23,0,0,1-2.68.81l-1.38.27c1.4-.23,1.24-.31-.49-.22,2.29.8-1.74-.48-2.16-.66,2.18.92-2.1-1.44-2-1.37,1.67,1.18-.86-.82-1.21-1.15a27.12,27.12,0,0,1-4.29-4.93,71.81,71.81,0,0,1-7.28-14.29c-8.87-25-11.79-53-11.18-79.44a63.23,63.23,0,0,1,2.93-19.14,23,23,0,0,1,7.65-11.33c-1.69,1.34,2-1.19,1.93-1.14,2.89-1.57-1,0,2.14-.88a8.63,8.63,0,0,1,4.42-.2c4,.75,8.92,2.14,11.6,5.79,2.8,3.81,9.58,4,10.82-1.43Z"/></g></g></svg>