<svg xmlns="http://www.w3.org/2000/svg" viewBox="0 0 1097.9 350.28"><defs><style>.cls-1{fill:#fff;}.cls-2{fill:#20273d;}</style></defs><title>aboutband</title><g id="Layer_2" data-name="Layer 2"><g id="Layer_2-2" data-name="Layer 2"><path class="cls-1" d="M.51,277.93c17.29,26.47,45.65,39.29,75.31,47.19,34.53,9.21,70.61,11.79,106.18,13.29,82.55,3.48,165-3.22,247.26-8.71,81.56-5.43,164-11.48,245.72-5.77,40.85,2.86,81.2,9.36,121.65,15.49,41.22,6.26,82.82,12.19,124.62,10.6,34.11-1.3,67.83-7.94,99.36-21.14,27.5-11.52,53.35-29.3,69.05-55.2a73.34,73.34,0,0,0,7.91-19.11c2.73-10.14-12.35-16.88-17.32-7.12-26.12,51.21-89.3,71.25-143.68,75-79.44,5.53-157.63-16.35-236.45-21.8-79.86-5.52-159.73-.9-239.32,6.22-80.19,7.17-160.43,15.49-241,15.94-37,.2-74.48-.43-111.07-6.07C77.92,312,48.44,303.09,21.93,286.5A100.67,100.67,0,0,1,5.51,274.07c-2.52-2.4-7,.76-5,3.86Z"/><path class="cls-2" d="M66.72,273.23a3.48,3.48,0,0,0-1.4,5.43,4.12,4.12,0,0,0,4.38,1.83c6.17-1.29,9.58-10.66,12.27-15.56,3.78-6.88,7.21-14,10.46-21.1,6.58-14.43,12.33-29.22,17.51-44.2,5.25-15.21,10-30.59,14.71-46q3.6-11.76,7.18-23.53l3.91-12.82c1.22-4,2.92-8,3-12.27.07-4.73-6.1-6-8.48-2.27-2.26,3.5-3.07,8-4.26,11.93l-3.32,11q-3.42,11.38-6.86,22.77c-4.47,14.82-9,29.64-13.89,44.32s-10.08,29-16.14,43.1q-4.65,10.85-10,21.37c-1.65,3.23-3.3,6.46-5,9.67-1.38,2.59-2.41,5.5-5,7h2.11l-.22-.14a.79.79,0,0,0-1-.55Z"/><path class="cls-1" d="M80.27,278.72c6.1-6.7,9.06-15.66,12.62-23.84,3.49-8,6.42-16.23,9.48-24.39,6.35-16.92,12.72-33.83,18.81-50.83,6-16.68,11.72-33.45,17.47-50.21,5.83-17,11.44-34.32,14.69-52,1.56-8.49-10.52-14.92-14.9-6.12C130.5,87.24,124.38,104.2,118.62,121q-8.78,25.62-17.76,51.15C95,188.89,89.39,205.68,83.55,222.4c-2.91,8.34-6.07,16.64-8.61,25.1S68.63,265,68.89,274c.16,5.54,7.31,9.16,11.38,4.71Z"/><path class="cls-1" d="M204,76.52c1,5,.74,10.52,1,15.58.28,4.66.32,9.33.58,14,.47,8.78,1.28,17.58,1.87,26.36a398,398,0,0,1,.34,52.6c-1,15.91-2.6,31.62-6.6,47.09a150.19,150.19,0,0,1-7.09,21.36c-3.41,8-8.29,15.33-10.56,23.76-2.56,9.54,8.91,14.84,15.7,9,7-6,10.51-14.75,13.9-23.12a165.25,165.25,0,0,0,7.65-24,220.68,220.68,0,0,0,6-52.28,397.15,397.15,0,0,0-4.6-55.31,168.29,168.29,0,0,0-6.2-27.7c-1.49-4.53-3.2-9-4.92-13.45-1.82-4.72-4.53-9.35-6-14.17a.57.57,0,0,0-1.11.29Z"/><path class="cls-1" d="M223.66,194.1C229.23,179,247,173.57,261,179.71c13,5.69,21.71,17.37,24.65,31.12,6.07,28.35-18.21,49.29-44.72,51.14-9.16.63-12.46,14.88-2.28,16.93,31.93,6.42,61.49-20.31,64.21-51.58,2.59-29.9-20-64-52.42-62.87-15.9.54-31.62,12-30.83,29.11a2.06,2.06,0,0,0,4,.54Z"/><path class="cls-1" d="M388.46,179.38c4.24-4.1,4.32-9.65,2.18-14.85C388,158,380.7,154.8,374,154.11c-17.52-1.83-31.12,8.26-40.8,21.88-4.71,6.62-8.32,14.1-11.72,21.47-3.93,8.51-7.11,17.24-7.77,26.67-1.15,16.38,7.82,31.26,21.4,39.91,28.39,18.09,65,.29,77.91-28.27a85.93,85.93,0,0,0,6.1-49.42c-2.31-13.95-11.74-29.93-27.74-29.72-17.67.23-32.15,20.67-22.92,36.85,12.23,21.43,39.33,1.17,52.37-8.75,3.45-2.63,5.31-6.88,2.94-11a8.15,8.15,0,0,0-11-2.95c-5.25,3-10.64,5.6-16.12,8.1-2.73,1.25-5.42,2.64-8.2,3.77-.86.35-2.49.53-3.12,1.1-1.81,1.64.21-1.6.37.53-.17-2.33-.93-3.25,1-5.7,1.57-2,3.95-3.47,6.43-2.54,6.77,2.53,7.69,14.26,8,20.21.5,10.37-.78,21.19-5.31,30.64-7.84,16.39-27.07,30.32-45.71,22.93-7.18-2.85-13.61-8.74-16-16.19-3.51-10.9,2.18-22.62,6.94-32.22,5.39-10.84,10.73-22.41,20.54-30,4-3.09,9.24-5.57,14.39-4.55,4.8.94,11.7,5.73,10.13,11.16a1.41,1.41,0,0,0,2.34,1.34Z"/><path class="cls-1" d="M457.25,159.29c-6.25,3.44-9.54,10.32-12.45,16.55a97.08,97.08,0,0,0-7.13,21.5c-2.88,14-5,30.63,1.91,43.83,6.4,12.16,21.55,18.92,34.2,12.07,12.05-6.53,15.74-21,19.31-33.15,5.45-18.53,12.08-37.31,15.24-56.39,1.07-6.45-8.48-11.87-11.58-4.76-7.08,16.22-11.68,33.56-17.22,50.34-2.29,6.92-4.18,14.16-7.39,20.72-1.82,3.7-4.66,9.3-9.56,9.06-14.17-.68-12.09-23.85-11.15-32.83a156.94,156.94,0,0,1,4.44-22.1c1.87-7.33,5.85-14.76,5.53-22.43a2.8,2.8,0,0,0-4.15-2.41Z"/><path class="cls-1" d="M501,176.75c-2.19,3.25-3.25,7.17-4.6,10.82-1.74,4.71-3.53,9.41-5.14,14.17-2,6-3.69,12.5-3.4,18.9.77,17.12,17.5,26.27,32.74,19.14,16.21-7.59,18.87-28.5,22.8-43.9q7.23-28.24,14.21-56.54c5.26-21.44,10.4-42.92,15.28-64.45.89-3.91-4.85-5.46-6-1.61-9.62,31.55-19.93,62.87-30.44,94.14-5,14.92-9,30.69-15.37,45.11-2,4.55-5,9.71-10,11.19-3.94,1.15-6-.73-7.33-4.34-5-13.32,2.43-28.65,0-42.27-.24-1.38-2.05-1.33-2.71-.36Z"/><path class="cls-1" d="M572.83,14a.16.16,0,0,0,0-.32.16.16,0,0,0,0,.32Z"/><path class="cls-1" d="M567,92.21c-12.23,10.54-18.72,27.24-24,42.09a192.48,192.48,0,0,0-10.33,48.08,160,160,0,0,0,3.48,49.74c3.06,13.13,9.51,27.66,22.12,34.13,18.16,9.33,34.93-3.21,46.31-16.73,7-8.35-3.6-18.48-11.92-11.75-5.08,4.11-12.11,10.09-19,10.47-5.57.31-8.75-2.94-11.23-6.92-7.73-12.35-9-29.42-9.67-43.95-.75-17.4,1.42-34.73,5.11-51.72,3.74-17.24,11.55-34.22,12.86-51.87.16-2.09-2.45-2.72-3.79-1.57Z"/><path class="cls-1" d="M522.72,111.51c4,14.6,18.95,19.34,32.46,20.63a149.44,149.44,0,0,0,53.75-4.46c11-3,6.48-18.63-4.39-16.83a256.28,256.28,0,0,1-42.67,3.42c-7.9,0-23.64,1.35-27.42-7.57-2.84-6.72-13.61-2-11.73,4.81Z"/><path class="cls-1" d="M721.21,42.56c-2.81,2.08-4.4,3.78-5.6,7.15-1.4,3.89-2.23,8-3.25,12-1.87,7.43-3.78,14.84-5.41,22.33-3.29,15.19-5.46,31-3.25,46.47C705.61,144,714.58,156,729.43,154.9c14.58-1,28.23-9.44,37-20.78,4.13-5.31-1-13.68-7.65-9.9-8.7,4.94-19.27,9.49-29.28,10.68-3.86.45-5.08-.14-6.53-3.67-1.87-4.54-2.16-9.92-2.39-14.74-.58-12.37,1-24.72,3-36.9,1.06-6.31,2.21-12.61,3.33-18.92,1.07-6,2.45-11.2-.7-16.76-.9-1.59-3.44-2.54-5-1.35Z"/><path class="cls-1" d="M694,107.23c20-5.35,39.92-10.15,58.89-18.56,5-2.22,2.69-11.24-2.8-10.57-20.58,2.51-40.1,8.55-60,14.2-9.54,2.71-5.71,17.5,3.89,14.93Z"/><path class="cls-1" d="M777.32,125.12c5.21-1.79,8.2-6,11.25-10.37a139.9,139.9,0,0,0,9.11-14.58,211.53,211.53,0,0,0,13.45-30.75,200,200,0,0,0,7.66-32.6c.88-5.59,1.74-11.19,2.36-16.82.51-4.64,1.12-9.8-1.27-14.06-5.42-9.71-17.6-5.9-24.37,0S785.1,21,783,29.38c-6,23.46,2,48.72,5.56,72,1.1,7.23,2.14,14.47,3.22,21.71.93,6.32.71,15.13,4.6,20.46,4.47,6.14,14.73,6.35,17.92-1.21,2.8-6.65-1.94-12.53-8.44-13.38-2.8-.36-5.35,1.8-6.79,3.92l-.25.38c-2.47,3.65,0,10.28,4.55,10.91l.44.06-5.51-5.55.13.38,0-4.1,1.22-2.3,4.13-2.39-.64.14,6.76.9c1.54.75,1.73,4.16,1.18.07a26.55,26.55,0,0,0-.76-2.88l-1.76-6.71L805,108.32c-2.44-9.27-4.73-18.57-6.94-27.9C794.19,64,788.71,46,793.15,29.15a26.9,26.9,0,0,1,11-15.46c1.13-.76,3-2.21,4.44-2.09s1.27.52,1.32,2.27c.1,3.74-.73,7.68-1.29,11.37C806.11,41.4,800.81,57,795,72.19a250.46,250.46,0,0,1-11.46,24.86c-2.09,4.09-4.14,8.18-6.4,12.17s-4.43,7.85-4.34,12.38c0,2.18,2.24,4.3,4.52,3.52Z"/><path class="cls-1" d="M810.48,102.57c1-1.35,3.57-2.87,4.93-4a26.89,26.89,0,0,1,4.72-3,18.48,18.48,0,0,1,10.8-1.89c9.09,1.12,12.57,10.94,16.85,17.74,5.75,9.12,13.55,15.76,24.58,16.91,10.72,1.12,20.46-2.85,26-12.25,2.72-4.61-2.82-10.1-7.41-7.37-6.89,4.09-17.39,5.85-24.23.7-4-3-6.49-7.89-9.14-12.08-2.92-4.61-6.11-9.17-10.43-12.57A27.59,27.59,0,0,0,819.92,81a26.37,26.37,0,0,0-11.13,7.52,21.79,21.79,0,0,0-3.54,5.72c-.94,2.41-.4,4.36-.44,6.85,0,3.32,4,3.77,5.67,1.52Z"/><path class="cls-1" d="M892.83,115.25c21.44,4.91,37.76-18.16,44.54-35.23,3.87-9.73,8.42-22.18,4-32.43-3.61-8.46-11.2-13.36-20.3-14-23.52-1.75-34.48,25.94-37.15,45-1.64,11.72.23,24,8.83,32.7,7.36,7.46,17.7,10.57,27.88,11.5,12.5,1.13,25.26-1.53,36.79-6.25,12.85-5.26,22.87-12.61,31.2-23.73,2.45-3.28-2.46-8-5.73-5.7-14.18,10.18-30.21,18-47.61,20.47-13.34,1.86-33.17.26-37.1-15.54-2.07-8.3.12-17.42,2.62-25.39,2.25-7.18,5.88-15.13,12.69-19,5-2.87,13.33-4.09,17.69.66,5.55,6-1.55,18.35-4.64,24.26-3.82,7.32-8.55,14.65-14.39,20.54-6.09,6.13-13,9.48-20.5,13.48-3.59,1.92-2.84,7.81,1.14,8.72Z"/><path class="cls-1" d="M668.79,128.91c-1.32,6.47-.68,13.91-.83,20.53s-.64,13.12-1.43,19.63A220.15,220.15,0,0,1,658,209.14c-8.2,25.88-22.34,49.77-37,72.47-2.77,4.28,3.37,8.42,6.88,5.2,21.62-19.86,34.71-46.31,42.86-74.26a200.68,200.68,0,0,0,7.74-41.79,198.41,198.41,0,0,0,.32-21.26c-.26-6.82-.72-15.16-3.42-21.46-1.23-2.87-6-2-6.61.87Z"/><path class="cls-1" d="M673.07,209.33c-.72-2.19,8.46-.45,9.08-.4,2.72.24,5.43.47,8.15.66C696,210,702,211,706.86,214.2c8.35,5.53,11.66,16.7,9.46,26.22-5.76,24.9-35.72,31.14-57.41,31.29-10.68.08-10.77,16.59-.09,16.58,19,0,37.91-3.43,53.14-15.54,12.56-10,20.92-25.58,19-41.86s-13.05-29.42-29.44-32.5c-8.12-1.53-17.5-1.75-25.27,1.41-4.06,1.65-10.19,6.2-7,11.07,1.21,1.82,4.52.78,3.76-1.54Z"/><path class="cls-1" d="M800.36,195.63c-7.31-4-12.63-10.8-20.93-13.1s-17.23.71-23.75,6.06c-13.85,11.33-21.67,30.66-22.22,48.25-.53,16.91,7.6,33,24.94,37.3,16.51,4.07,32.45-3.49,42.38-16.7,13.23-17.6,13.78-40.08,13.49-61.19-.13-9.48-14-9.4-14.61-.08-.79,11.88-1.77,23.75-2.66,35.62-.81,10.72-3.69,23.53.9,33.71,4.23,9.37,14.25,13.72,24.17,12.66,11.22-1.19,19.12-8.86,25.63-17.4,6-7.86-3.07-16.78-10.87-10.72-4.5,3.51-10.15,8.51-16,9.22-6.54.79-7-4.08-7.09-9.41-.16-17.84.22-35.76.57-53.6l-14.61-.08c.17,14.5.64,30.14-5.46,43.65-4.62,10.21-13.28,20.1-25.18,20.87-32.56,2.1-20.61-42.86-7.74-57.59,4.46-5.11,10.71-10.62,18-8.38,6.83,2.13,12.07,6.45,19.51,6.89,3.23.2,4.34-4.48,1.61-6Z"/><path class="cls-1" d="M842,254.23c1-3.16,2.5-5.72,3.21-9,.63-2.9,1.13-5.81,1.73-8.73a124.25,124.25,0,0,1,5.18-18,93.35,93.35,0,0,1,19.82-31.66l-10.3-1.32c6.57,9.06,4.9,20.72,3.58,31.19a211.86,211.86,0,0,1-9.09,39.85l16.38,4.38c2.39-14.93,4.52-29.22,11.31-43,3-6.1,6.47-12.79,11.14-17.8.82-.88,2.25-2.54,3.5-2.78,1.55-.3.58-.82,1.43.71,1.76,3.15,2.17,7.85,3,11.31a156.82,156.82,0,0,1,4,24.92c.46,7.12-.55,15.12,1.46,22,2.2,7.58,9.07,12.34,16.93,11,7.32-1.23,13-6.58,17.13-12.4,2.09-2.91.66-7.31-1.94-9.28-3-2.29-6.68-1.72-9.47.64-2.05,1.73-4.61,4.16-7.38,4.6-.38.06,0-.26.14,0a10.86,10.86,0,0,1-.74-3.53c-1.31-8.62-2.4-17.25-4-25.84a220.9,220.9,0,0,0-6.27-25.33c-2.08-6.65-5.86-12.6-13.64-12.62-7,0-13,4.93-17.2,10a117.91,117.91,0,0,0-13.08,19.59c-7.18,13.56-13.06,29.92-13,45.45,0,9.29,15,12,16.67,2.24,2.65-15.3,5.07-30.62,6.64-46.09,1.23-12.17,1.53-25.6-6.21-35.86-2.41-3.2-7.15-4.79-10.3-1.32a108.87,108.87,0,0,0-21.84,36.11,90.41,90.41,0,0,0-4.74,20.48,47.38,47.38,0,0,0-.33,9.74c.34,4.08,1.67,6.41,3.09,10.24a1.66,1.66,0,0,0,3.18,0Z"/><path class="cls-1" d="M1002.07,186.2c1.42-4.46,1.38-11.14-1.25-15.15-3.32-5.06-9.36-8.64-15.24-9.73-13.64-2.53-27,5.77-35.94,15.45-17.92,19.4-22.25,48.15-11.71,72.23,5.78,13.19,17.81,20,32.09,17.76,13.43-2.12,23-12.76,28.44-24.55,6.16-13.22,8.75-28.09,10.86-42.42,2.25-15.27,3.85-30.56,4.94-45.95,1.24-17.58,2.09-35.2,3.86-52.75.89-8.84,2-17.65,3.63-26.4s4.22-17.29,6-26l-14.86-2c-.49,9.18-2.34,18.31-3.57,27.41-1.16,8.63-2.42,17.25-3.56,25.88-2.34,17.84-4.16,35.74-5.58,53.68-1.42,17.76-3.5,35.58-3.33,53.43.13,14.18.44,34.61,14.18,43,6.65,4.05,15.17,4.4,22.46,2,9.17-3,15.06-9.18,20.89-16.56,3.66-4.63-1.14-13-7-9-3.63,2.47-7.37,4.7-11.12,7-3.33,2-6.45,4-10.43,4.48-7.88.88-11.06-4.2-12.73-11.2-4.5-18.85-2.71-39.2-1.82-58.35.93-19.93,3-39.81,5.52-59.6,1.25-9.86,2.56-19.73,4.33-29.51,1.84-10.22,3.34-20.74,6.58-30.62,3.09-9.38-11.2-12.84-14.61-3.91-4.52,11.88-6.2,25.37-7.9,37.92-1.73,12.82-2.77,25.72-3.57,38.64-1.54,25.2-1.8,50.81-6.08,75.75-2,11.67-4.29,23.93-8.9,34.91-3.58,8.53-9.77,16.39-19.6,17.3-9.25.85-12.65-6.87-14.72-14.68A51.35,51.35,0,0,1,953,207c3-10.06,8-19.63,16.41-26.23,4.28-3.38,10.42-6.51,16.08-5.66,4.89.73,11.26,5.46,11.7,10.46a2.47,2.47,0,0,0,4.84.65Z"/><path class="cls-1" d="M140.35,76.93c-.85,4-2.16,7.68-2.71,11.78-.64,4.84-1.16,9.66-1.5,14.53q-.93,13.59-.88,27.23a275.11,275.11,0,0,0,6,54.71,373.68,373.68,0,0,0,14.82,52.41c3.21,8.81,6.89,17.5,10.88,26,3.36,7.14,7.54,14,14.11,18.65,7.94,5.58,17.71,5.49,25.21-.85,5.6-4.73,8.06-13.28,3.72-19.64-2.67-3.92-9.91-2.95-9.64,2.55.21,4.41-6.5,3-8.48,1.4-5.48-4.43-8.07-13.49-10.6-19.75a409,409,0,0,1-18-54.29c-4.64-18.47-7.6-37.33-10.48-56.13-1.44-9.48-2.46-19-3.13-28.57-.33-4.85-.55-9.7-.82-14.54s-1.17-9.68-1.48-14.53c-.25-3.84-6.16-5.16-7.05-.95Z"/><path class="cls-1" d="M114,210.49c17.82,4,36.36,7.07,54.41,3.34,6.94-1.44,5.28-11.88-1.5-12-17.34-.43-34.5,1.93-51.88,1-4.4-.22-5.36,6.71-1,7.68Z"/></g></g></svg>