<svg xmlns="http://www.w3.org/2000/svg" viewBox="0 0 1052.9 467.39"><defs><style>.cls-1{fill:#fff;}</style></defs><title>date2</title><g id="Layer_2" data-name="Layer 2"><g id="Layer_2-2" data-name="Layer 2"><path class="cls-1" d="M223.12,48.38c3.12.15,5.88,3,6.48,6,.69,3.55-1.88,7.65-4.28,10.16-7.42,7.76-20.28,6.87-30,5.61-6.86-.9-17.76-2.8-20.8-10.12-3.15-7.57,3.57-15.93,9.63-19.64,9.55-5.84,21.57-7.65,32.44-9.48,12.09-2,22.42-1.18,33,5.29,10.31,6.35,19.85,12.92,31.8,15.93a88.86,88.86,0,0,0,36.67,1C331,50.94,343.46,45.72,354.68,39a126.24,126.24,0,0,0,16.9-12.58c5.32-4.56,9.2-9.75,13.08-15.55,4-6-4-13.63-10-9.91-23,14.38-43.87,33-72.54,33.43-14,.19-25.53-4.36-37.18-11.83-13.05-8.38-26-13.51-41.78-12-25.94,2.39-63.76,9.88-68.43,41-4.79,31.87,33.28,40.77,57.54,37.9,14.46-1.71,31.52-10.55,33.89-26.54,2.08-14-8.12-29.35-23-29.24-9.56.07-9.54,14.3-.08,14.77Z"/><path class="cls-1" d="M293,77.52c-2.29,11.24-3.14,22.27-6.85,33.24A127.53,127.53,0,0,1,271.62,140a206.55,206.55,0,0,1-21.4,26.61c-8.39,9.06-16.93,17.86-22.44,29A7.55,7.55,0,0,0,238,205.81c11.73-5.74,21-14.88,29.56-24.62a232.93,232.93,0,0,0,24-31.82,136.57,136.57,0,0,0,15.26-34c3.34-11.89,5.71-25.79,2.15-37.81-2.21-7.43-14.2-8.51-15.91-.06Z"/><path class="cls-1" d="M288.93,130.32c35.34,15.35,79.92,6,103.37-25.33,5.92-7.91-7.31-17.88-13.84-10.48-21.49,24.33-54.23,37.19-86.19,27.68-4.7-1.4-8,6.09-3.34,8.13Z"/><path class="cls-1" d="M348.67,213.65c17.12-8.34,34-18.85,47.81-32.07,6.91-6.61,12.81-13.89,18.77-21.36,2.74-3.44,5.75-6.93,7.87-10.8,2.47-4.5,4.23-9.35,6.63-13.88.85-1.61-1.43-3.58-2.67-2a90.91,90.91,0,0,1-9.55,9.68c-3.37,3.11-6.19,6.74-9.3,10.1C402,160,394.83,166,387.79,171.88c-14.22,11.8-28.93,22.42-45.45,30.81-7.3,3.7-.95,14.5,6.33,11Z"/><path class="cls-1" d="M427,118.51c-10.82-8.27-21.95-7.58-34.19-3-7,2.65-13.19,5.32-18.49,10.85s-10.86,11.94-14,18.93c-7.31,16.26,1.61,33.44,14.65,43.56a61.79,61.79,0,0,0,38.73,12.94c14.75-.29,35.21-6.61,36.93-23.67.42-4.2-4.49-7.65-8.32-6.47-6.17,1.9-10.77,5.92-16.68,8.32a38.64,38.64,0,0,1-15.75,2.49c-11.18-.47-22.91-5.6-29.91-14.54-4.76-6.07-4.36-12-2.12-19.06s6.66-11.65,11.56-16.87,9.18-9.48,16.06-11.86,14.34-3.69,21.43-1.48c.09,0,.19-.11.1-.17Z"/><path class="cls-1" d="M461,49.52c.25,2.25-1.39,4.14-1.24,6.72.16,2.8.87,5.63,1.23,8.42.74,5.76,1.48,11.55,2,17.35a200.6,200.6,0,0,1-.23,35.85,216.66,216.66,0,0,1-5.79,33.86q-2.22,8.49-5.16,16.76c-2.07,5.79-4.83,11.27-6.3,17.25-2.76,11.24,12,16.72,18.19,7.47,6.86-10.27,9.89-24.36,12.51-36.32a190.44,190.44,0,0,0,4.67-38,212.81,212.81,0,0,0-2.87-37,128.86,128.86,0,0,0-4.3-18.72c-.89-2.77-1.75-5.62-2.88-8.3a11.56,11.56,0,0,0-2.26-4c-1.16-1.11-2.2-1-3-2.58-1.06-2-4.79-1.23-4.53,1.2Z"/><path class="cls-1" d="M475.06,130.74c1.37-1.82,4.08-3.15,5.89-4.55,2.85-2.2,5.06-5,8-7.11,4.55-3.25,9.79-4.14,15.3-3.45,12.19,1.52,20.71,12.22,24,23.4,6.58,22.15-4.78,47.3-27.8,53.54-14,3.78-26.07-.73-38.71-5.65-11.09-4.32-19.09,11.94-11.14,19.47,13.67,13,35.38,14.39,52.7,8.82,16.9-5.44,31-17.49,38.1-33.91,6.66-15.46,9.16-32.7,3.62-49-5.76-16.88-18.94-31.69-37.25-34.43-10.39-1.56-21.68,1.31-29.48,8.58a24.29,24.29,0,0,0-7,12.31,16.18,16.18,0,0,0,.6,6.94c.57,2,1.82,3.13,2.76,5a.21.21,0,0,0,.36,0Z"/><path class="cls-1" d="M571.15,66.18c10.12-8.05,18.26-17.72,29.42-24.62,10.31-6.36,26.12-12.93,37.84-7,22.72,11.53,36.16,39.15,36.1,63.86,0,25.25-14.53,48.48-36.09,61.23-9.13,5.4-21.33,10.74-32.18,8.89-2.93-.5-7.69-2-8-4.44-.54-3.83,4.62-6.08,7.72-6.49,6.74-.89,13.19,4.34,18,8.38,6.29,5.3,12.34,10.78,19.39,15.08,14.79,9,32.31,13.85,49.12,8.12,6.19-2.11,5.93-13-1.54-12.25-17.83,1.89-35.4-4.27-49-15.65-12-10-25.53-23.14-42.62-17.65-7.25,2.32-14,7-16.52,14.47A20.11,20.11,0,0,0,588,178.89c11.26,10.79,29.48,8.38,42.83,3.62,30.28-10.78,55.21-37.95,60.46-70.11,5.34-32.65-7.59-67.83-34.27-87.87-9.13-6.86-19.32-11.28-30.94-10.25a76.7,76.7,0,0,0-27.9,8.37c-15.23,7.79-31.84,23.2-32,41.44,0,2.82,3.15,3.61,5.06,2.09Z"/><path class="cls-1" d="M716.47,35a17.82,17.82,0,0,1-3.31-2.27c-.06,2.18-.15,2.42-.29.71-1.37-2.19-1.41-4.18-3.67-6.1l-1.85,14.42c4-2.22,7.56-5.92,11.51-7.45A37.3,37.3,0,0,1,731.8,31.4c8.46-.14,16.66,3.24,21.66,9.88,5.33,7.08,7.43,16.57,4,25.1a25.88,25.88,0,0,1-7.1,9.61c-3.24,2.83-7.33,3.76-11.79,5.54-5.22,2.08-9.12,6.3-8.26,12.32a11.35,11.35,0,0,0,11,9.89c15.72.47,31.12-13.68,37-27.26a47.55,47.55,0,0,0-5.11-46.67A48.64,48.64,0,0,0,732.59,9.3c-14.63.34-33,7.46-38.62,22.16-2.19,5.73,3.42,11.31,8.77,11.5,2.91.11,4.37-1,6.9-1.78q1.93-1.6-.17.45a15.3,15.3,0,0,1,4,.51c4.27.86,6.88-4.81,3-7.16Z"/><path class="cls-1" d="M748,104c10,1.75,16.15,9.42,20.79,18,5.62,10.36,10.46,22.87,11.1,34.7.5,9.21-2.05,22.22-11.58,26.42a13.55,13.55,0,0,1-9.88.25,16,16,0,0,1-7.55-6.31c-5.59-9.93-22.7-3.5-19,7.78a26.66,26.66,0,0,0,17.48,17.77,34.09,34.09,0,0,0,21.3.23c15.84-5.22,25.49-20.69,27.43-36.65,2.1-17.25-4.29-35.66-12.32-50.72-6.95-13-18-25.67-33.39-27.93-4.56-.67-9.17,1.22-10.46,6-1.11,4.15,1.47,9.66,6,10.46Z"/><path class="cls-1" d="M319.63,321.9c8.51-14.79-2.78-33.23-17-39.55-16.09-7.16-35.6-1.1-46.63,12.24-12.53,15.17-13.91,36.41-6.44,54.21,7.26,17.29,25,26.54,43.36,21.2,20.1-5.86,30.87-26.58,29.94-46.58l-18.05,2.26c2.43,10.45,5.9,21.59,15.34,27.83,8.84,5.83,20,5.72,28-1.53,3.49-3.19,3.15-9.18-.09-12.38-3.73-3.69-8.63-2.82-12.38.09-1.88,1.45-6.22-1.73-7.3-3-3.63-4.14-4.6-10.49-5.78-15.66-2.28-10-18.48-8.2-18,2.26.52,12.7-5.4,27.68-19.66,29.44-15,1.85-21.06-13.86-21-26.43.05-13.8,8.28-27.52,22.89-29.41,13.8-1.79,22.47,10,23.8,22.55.48,4.56,6.45,7,9.07,2.43Z"/><path class="cls-1" d="M349.48,351.45c5.64-4.11,10.23-8.24,13.42-14.53a51.47,51.47,0,0,0,5.23-19.81,62,62,0,0,0-11.07-40.2c-17.35-24.14-48.64-34.06-76.86-25-13.46,4.34-28.15,13.6-29.83,28.88-.32,2.91,4,3.8,5.32,1.43,7.16-13.23,19.33-21.69,34.62-22.43,14.17-.7,30.26,4.4,42,12.22,12,8,20.45,20.32,22.66,34.7a56.41,56.41,0,0,1-1.05,20.51c-1.5,7.05-3.91,14.76-7.72,20.89-1.21,1.95,1.34,4.75,3.32,3.31Z"/><path class="cls-1" d="M240.77,331.9a.15.15,0,0,0,0-.3.15.15,0,0,0,0,.3Z"/><path class="cls-1" d="M258.54,270.71c-4.61-.53-7.76,4.47-10.46,7.56-3.36,3.85-5.86,8.47-8.22,13A118.4,118.4,0,0,0,229.07,320c-4.23,18.78-2.72,38.6,5.91,56,7.59,15.26,20.56,28.95,36.37,35.69,19.75,8.43,41.74,5.26,61.46-1.7a199.8,199.8,0,0,0,31.64-14.37c10.29-5.82,21.51-12,27.42-22.52,1.93-3.44-1.36-8.47-5.44-7.1-9.11,3.06-16,9-24,14.1a192.54,192.54,0,0,1-25,13.48C320,401.31,299.89,407.15,281,401.1c-32.3-10.36-43.37-48.69-37.17-78.93a107.09,107.09,0,0,1,10.42-28.61c2-3.83,14.28-21.69,4.27-22.85Z"/><path class="cls-1" d="M511.14,255.39c-2.7-11.57-13.89-17.78-25.19-17.63C472,238,461.23,247,454.1,258.3,446.19,270.89,440.9,287,441,302c.07,13.77,5.49,26,14.22,36.46,7.92,9.49,18.12,16.84,27.86,24.33,5,3.88,10.07,7.79,14.77,12.07,3.89,3.55,9.5,8.56,9,14.41-.8,8.53-13.45,11.63-19.93,8.42-10.17-5-12.92-18.42-12-28.69,1.58-17.4,11.64-33.42,17-49.81,5.88-18.14,9.84-37.28,8.89-56.39-.39-7.85-13.27-10.69-14.51-1.95-2.36,16.63-4.59,33.34-9.35,49.48-4.63,15.68-12.4,30.43-16,46.41-3,13.38-2.38,27.48,4.31,39.71,5.88,10.76,17.15,18.67,29.74,17.54,11.33-1,23-8.13,26.06-19.64,3.86-14.32-7.44-25.88-17.49-34.2-17.53-14.53-45.25-29-47-54.56-.6-8.82,1.6-17.55,4.49-25.82,2.44-7,5.71-14.09,10.74-19.57,4.41-4.82,9.93-8.44,16.64-8.45,5.74,0,11.89,1.85,15.23,6.78,2.55,3.77,8.64,1.59,7.55-3.09Z"/><path class="cls-1" d="M540.89,255.35c3.8,12.37,9.58,23.69,14.23,35.76a248.89,248.89,0,0,1,11,37.63c2.41,11.35,4.14,23.6,3.28,35.22a38.67,38.67,0,0,1-1,5.83,30.36,30.36,0,0,1-.86,3c-.36,1.06.39-.53-.46,1.08-.27.5-1.94,2.83-.61,1.28-.39.44-2.75,2.3-.65.81-1.37,1-2.84,2.24-4.22,3.08,1.82-1.11-.38,0-1.08.28-8.38,3.73-5.5,16.64,2.47,18.74,15,3.94,25.09-8.87,27.73-22.25,2.79-14.09-1.1-28.68-4.24-42.4a235.76,235.76,0,0,0-14.35-43.62c-6.29-14.18-13.35-27.64-25.13-38-2.58-2.26-7.3-.13-6.16,3.56Z"/><path class="cls-1" d="M558.92,260.9c11.14-.74,21.22-7.23,32.79-5.49a21.1,21.1,0,0,1,10.09,4.15,12.25,12.25,0,0,1,4.46,8.45c1,8.91-3.16,16.65-9.32,23.29-4,4.32-8.74,7.77-12.94,11.85-6.09,5.92-7.58,16.36.93,21a12.25,12.25,0,0,0,12.15,0c22.9-14,42.84-44.2,29.3-71-6.21-12.26-19.27-18.59-32.41-19.92a50.54,50.54,0,0,0-20.36,2.27c-7,2.28-15.48,5.24-21,10.3s-1.31,15.62,6.28,15.12Z"/><path class="cls-1" d="M624.75,376.5c5.83-8.9,9-19.64,12.48-29.65,3.55-10.35,6.68-20.79,9.8-31.27,6.22-20.93,12.54-41.83,18.53-62.82l-19.33-2.6-5.53,49.15c-1.61,14.32-4.91,32.32,9.94,41.15,12.34,7.33,28.16,2.37,37-8,9.88-11.63,15.41-27,22.46-40.39l27.06-51.38-13.28-5.46c-9.28,35.88-21.64,71.06-32.85,106.38-2.69,8.47-5.65,17-4.25,26a26.62,26.62,0,0,0,13.58,19.12c15.92,8.75,32.22,1.43,46.19-7.39,11.79-7.44,1.42-25.64-10.86-18.82-5.14,2.86-10.59,6.24-16.52,7.09-4.11.59-8.12-.16-9.93-2.33-.9-1.07,0,.88-.49-.88a9.9,9.9,0,0,1-.33-3.6,47.39,47.39,0,0,1,1.47-8c1.79-7.74,3.68-15.47,5.52-23.2,7.19-30.26,13.63-60.82,22.46-90.65,2.34-7.93-9.22-12.58-13.29-5.47q-13.67,23.92-27.34,47.83c-4.56,8-9.28,15.85-14,23.74-3.36,5.62-6.64,12.15-12,16.12-2.82,2.07-8.48,4.37-11.09,1.54-3.37-3.66-.55-14.25-.09-18.49l5.87-54c1.24-11.35-16.39-13-19.33-2.6-5.91,21-11.49,42.11-17.17,63.18-2.76,10.23-5.51,20.43-7.84,30.77-2.39,10.62-5.39,21.72-5.08,32.66a4.47,4.47,0,0,0,8.28,2.22Z"/><path class="cls-1" d="M.05,367c4.83,24.71,18.72,45.94,38,61.9C51.49,440,68.3,449.6,85.52,453.32c28.49,6.16,58.53,7.09,87.53,8.74,67.54,3.84,135.44,5.82,203.1,5.22,59.16-.52,118.68-4.55,176.69-16.62,31.75-6.62,63.12-15,94.94-21.28a532.36,532.36,0,0,1,67-8.89c60.73-4.21,121.52-10.36,181.49-21,33.33-5.9,67-12.92,98.71-24.85,19.88-7.46,46-18,55.22-39A32,32,0,0,0,1052.9,323c.06-6.21-9.57-6.25-9.63,0-.07,7.5-4.58,13.9-10.65,19.38-7.82,7.06-18.21,12.6-28.22,17.1-28.78,12.92-60.35,20-91.16,26.13-61.62,12.22-124.37,18.86-187,23.52-12.28.91-24.59,1.56-36.82,3-31.34,3.61-62.09,10.64-92.76,17.85-31.16,7.32-62.3,14.52-94.05,18.84-33.19,4.51-66.69,6.52-100.14,7.61-65.05,2.12-130.37,0-195.36-2.57-33.6-1.31-67.37-2.67-100.77-6.66-8.87-1.06-18.08-2.11-26.57-5-23-7.9-45.62-23.39-60.18-43A86.19,86.19,0,0,1,4.13,365.93c-.58-2.67-4.6-1.58-4.08,1.06Z"/></g></g></svg>