<svg xmlns="http://www.w3.org/2000/svg" viewBox="0 0 800.87 360.37"><defs><style>.cls-1{fill:#fff;}</style></defs><title>location2</title><g id="Layer_2" data-name="Layer 2"><g id="Layer_2-2" data-name="Layer 2"><path class="cls-1" d="M21.35,13.52c-3.67,13.54-4.18,28-2.94,41.93C19.34,66,20.43,79.94,30.54,86c25.67,15.44,31-34.89,31.24-49.4.1-5.2-7.59-5.11-8,0L52.19,56.51c-.42,5.31-1.83,11.51,0,16.68,3,8.65,14.09,9,20.28,3.73,8-6.81,10.46-20.68,12.37-30.43a121.44,121.44,0,0,0,1.71-37.7c-.62-5.16-8.65-5.47-8.3,0,1.16,18.28-.31,36.68-6.63,54C70.35,66.18,68.49,71,64.49,72c-4.82,1.17-5-3.26-4.79-6.92.53-9.48,1.38-19,2.08-28.45l-8,0a97.74,97.74,0,0,1-5.11,30.08C47.42,70.39,45.9,76.9,42.3,79.13c-4.23,2.61-9.14-1.41-11.14-4.93-4.53-8-4.59-19.38-4.87-28.27-.34-10.57.73-21,1.9-31.49.44-4-5.84-4.63-6.84-.92Z"/><path class="cls-1" d="M140.65,49.52c-5.72-5.21-4.69-13.34-6.42-20.29-1.35-5.42-4.48-11.17-9.63-13.8C111,8.47,102.42,28.64,98.68,38a90.12,90.12,0,0,0-5.76,23.14c-.8,6.89-1.67,15.35,1.06,21.92,4.66,11.21,19.85,11.06,27.84,3.68,13.17-12.19,5.89-31.85,13-46.43l-8-3.29a89.92,89.92,0,0,0-.41,23.86c.93,7.43,2.37,16.93,6.8,23.19,9.23,13,22.84-.54,27.06-10.37,2.09-4.87-4.9-9.15-7.33-4.18-1.72,3.5-4,7.31-7.39,9.44-5,3.15-6.43-3.31-7.61-7.12a75.28,75.28,0,0,1-2.7-32.57c.62-4.44-5.63-8.16-8-3.28-3.12,6.4-4.06,13.14-4.56,20.18-.48,6.77-.52,14.12-3.86,20.25-2.54,4.66-8.41,8.81-13.93,6.28C98.91,80,101,68.07,101.45,63a86.5,86.5,0,0,1,5.42-22.75c1.92-4.94,6.46-18,12.82-18.52,7-.57,9.47,10.14,10.76,15.13,1.41,5.43,3.83,11,8.32,14.59,1.31,1,3.17-.72,1.88-1.9Z"/><path class="cls-1" d="M180.3,81.06c6-9.08,10.31-19.36,13.87-29.64,3.44-9.88,7.46-21.31,7.7-31.85.08-3.5-5-4-6-.8-1.46,4.78-2,9.92-3.11,14.79Q191,41.36,188.46,49c-3.37,10.24-8,19.89-12.25,29.76a2.36,2.36,0,0,0,4.09,2.33Z"/><path class="cls-1" d="M199.56,33.93c12.2,1.68,12.95,15.38,10,24.78-2.21,7-8.05,17.24-16.78,16.06-6.58-.89-9.37,9.17-2.71,10.08,8.09,1.11,17.51-.72,21.89-8.32,1.87-3.24-1.83-6.37-4.91-4.88-4.75,2.3-8.87,4.39-14.27,3.12L190,84.85c29.61,5.34,41.56-55.17,10.09-55.07-2.3,0-3,3.82-.56,4.15Z"/><path class="cls-1" d="M247.74,47.63c3.6-3,3.11-7.86.65-11.43A11.19,11.19,0,0,0,235,32.07c-6,2.27-9.51,8.21-12.08,13.7-2.88,6.14-5.55,12.88-6.45,19.64-.69,5.11-.29,10.7,3,14.87a12.65,12.65,0,0,0,15.21,3.41c6.41-2.81,9.31-9,11.28-15.36,2.46-8,4.62-16.07,6.92-24.1l-10.11-2.71c-1.13,5.91-2,11.88-2.58,17.87-.54,5.61-1.46,12-.49,17.56,2.22,12.87,17.16,6.67,24,1.86,3.78-2.65,1.73-9.89-3.33-8.12-3.22,1.12-6.69,1.55-9.85,2.78-1.9.15-2.23.35-1,.61,1.05.56,1.28,0,.68-1.65a44.9,44.9,0,0,0,.09-5.57,148.32,148.32,0,0,1,2.55-22.63c1.25-6.55-8.23-9.26-10.11-2.71-2.3,8-4.46,16.11-6.91,24.1-.92,3-2.23,7.83-5.8,8.67-2.95.69-3.4-2.08-3.53-4.38-.39-6.85,3.26-14.7,6.07-20.75,1.19-2.57,2.52-5.53,4.82-7.33,1.78-1.38,7.67-1.5,5.61,2.26-1.68,3.09,2.17,5.6,4.67,3.54Z"/><path class="cls-1" d="M266.09,39.21c-4.73,1.38-5.79,9-6.66,13.17a84.77,84.77,0,0,0-1.49,19.92,5.37,5.37,0,0,0,5.21,5.26c20,1.08,25.65-21.13,27.46-36.62.69-5.88-9.24-7.23-10.31-1.39-1.74,9.48-6,41.08,12.06,38.29,7.39-1.15,10.44-8.76,12.74-14.92A101.67,101.67,0,0,0,311.42,36c.48-5.59-8.27-6.59-9.61-1.29s-2.6,10.36-4.07,15.48c-1.39,4.84-2.73,10.72-5.52,15-.19.29-.89,1.63-1.29,1.66s.34-.11-.23-.86c-1.23-1.61-1-5.17-1.1-7.13a65.39,65.39,0,0,1,.83-16.59l-10.31-1.39c-1.24,10.09-3.77,26-16.92,26.22l5.2,5.26a110.43,110.43,0,0,1-.25-18.81c.28-4.2,2.43-10.57-.65-14a1.44,1.44,0,0,0-1.41-.38Z"/><path class="cls-1" d="M154,83.46a115.72,115.72,0,0,0,7.67-45.92c-.17-5.25-8-5.31-8.16,0A276.12,276.12,0,0,1,148.59,82,2.81,2.81,0,0,0,154,83.46Z"/><path class="cls-1" d="M162.54,49.48c5.75,0,5.8-8.94,0-8.94s-5.79,8.94,0,8.94Z"/><path class="cls-1" d="M158.38,45c-.64,5.83,5,10.08,10.45,9.82,6.54-.31,10.21-6.27,12.65-11.59l-8-3.28a129,129,0,0,0-4.31,47.31c.61,5.84,9.76,6.05,9.28.05-1.22-15.3-.4-30.21,3.45-45.11,1.19-4.61-5.93-8-8-3.28a25.65,25.65,0,0,1-2.85,5.38c-.65.83-4.6,3.7-4.32.75.51-5.4-7.79-5.33-8.37-.05Z"/><path class="cls-1" d="M359.37,17c-4.91,4.48-.32,12,3.92,15.15a15.12,15.12,0,0,0,18.13-.17c9.48-6.85,15-29.7-1.22-31.73C363.49-1.89,351.37,13,346.15,27c-5.64,15.1-8.23,34.79-3.53,50.49,2.15,7.2,7,13.84,14.84,15,7,1,13.85-2.43,15.88-9.41,1.88-6.46-8-9.06-10-2.69-1.26,4-7,1-8.48-1.12-3-4.28-3.33-10.42-3.62-15.46-.7-12.32.9-25.47,5.93-36.84,2.29-5.18,5.53-10.14,10.27-13.39a19.74,19.74,0,0,1,8.09-3.38c3.09-.49,5.09-.56,5.29,2.85.24,4.26-2.29,10.28-6.47,12a6.07,6.07,0,0,1-6.79-1.63c-1.5-1.62-1.43-3.85-2.61-5.69a3.56,3.56,0,0,0-5.53-.7Z"/><path class="cls-1" d="M402,60.49c2.45-3.33.37-7.37-2.75-9.43-4-2.67-8.93-1.7-12.83.79-8.51,5.43-17.66,16.36-16.66,27,1,10.41,10.73,16.57,20.5,12.81,11.34-4.35,14.13-16.57,13.86-27.48-.1-4.31-6.62-5.47-7.67-1-1.23,5.25-2,12.13-5.44,16.45-2.93,3.64-9.43,5.63-11.34,0s2.38-11,5.85-14.94c3-3.36,9.58-11.69,12.76-4.23.72,1.67,2.89,1.13,3.72,0Z"/><path class="cls-1" d="M395.22,62.25l-2.68-1.08-1,3.77c3.77,0,6.69-2.42,9.66-4.57,3.46-2.5,6.86-5.09,10.23-7.72l-7.31-2c3.65,10.21,3.83,21.53-1.08,31.37l9.13,2.45c.47-14.27,5.78-27.14,16.64-36.64l-8.23-2.2A111.7,111.7,0,0,1,426.68,82a5.31,5.31,0,0,0,5.22,5.28A17.65,17.65,0,0,0,445.33,81c4.46-5.27-3.27-12.9-7.66-7.56A7.87,7.87,0,0,1,432,76.82l5.23,5.27a162.3,162.3,0,0,0-7.13-38.89c-1.19-3.77-5.33-4.63-8.23-2.2-12.52,10.5-20.51,27-19.43,43.46.38,5.69,7.63,6.46,9.6,1.28,4.6-12.09,5.16-25.06.55-37.24-1.25-3.29-4.6-4.16-7.32-2-3.27,2.64-6.54,5.31-9.68,8.1-2.55,2.27-5.13,4.38-6,7.76-.44,1.79,2.07,3.62,3.38,1.93l2.29-1.82a.15.15,0,0,0,0-.26Z"/><path class="cls-1" d="M478.37,39.42c-2.49,3.86-3.51,7.79-5.35,11.9-2.15,4.79,5.63,6.65,5.91,1.59.52-9.27-10.57-13.87-18.11-10.17C451.49,47.33,445,61.62,445,71.57a22.76,22.76,0,0,0,17.37,21.64c10.06,2.21,21.07-3.34,25.09-12.85,1.83-4.33-4.33-8.16-6.54-3.72-6.06,12.18-24.32,12.72-28.1-1.72-1.78-6.79,1.74-14.47,5.22-20.18,1.61-2.65,3.83-5.51,6.94-6.45s7.73.69,7.6,4.58l5.91-1.56c-1.88-3.5-.54-8,1-11.23a.67.67,0,0,0-1.16-.66Z"/><path class="cls-1" d="M487.11,81.2c3.52-1.86,6.48-3.1,9.26-6.07a35.07,35.07,0,0,0,5.68-7.94c2.49-4.88,6-13.65,1.19-18.2s-11.55-1.1-15,3.35c-4.6,6-8.42,13.55-8.89,21.22-.84,13.75,11.57,25.18,25,19.27,15-6.63,17.25-27.58,17.79-41.84l-6.36,3.67a16.75,16.75,0,0,0,19,0l-6.23-4.79c-1.32,6.73-2.8,13.42-4.23,20.12-1.08,5-3.4,11.21-1.51,16.31a9.78,9.78,0,0,0,11.44,5.88c5.24-1.26,8.12-6.18,9.45-11a3.47,3.47,0,0,0-5.79-3.31c-.91.92-4.91,5.9-6.25,4.82-1-.83,1.11-8.45,1.28-9.42,1.25-7.06,2.45-14.14,3.82-21.19.65-3.31-2.95-7-6.23-4.78a8.59,8.59,0,0,1-10.53,0c-2.75-1.88-6.24.71-6.35,3.67-.34,9.26-1.25,20.39-6.37,28.41-5,7.8-16,9.49-19-.81-1.28-4.37-.29-9,1.46-13.14.75-1.76,4.9-11.44,7.42-11,3.28.6-2,11.16-2.84,12.65-2.08,3.72-5.54,8.54-8.92,11.15-1.71,1.31-.3,4,1.72,3Z"/><path class="cls-1" d="M557.37,29.45a9.66,9.66,0,0,1,2.2-4.12c2.57-.6.72-4.81-1.67-2.88-3.52,2.85-4.91,8.15-6.74,12.2S547.4,42.87,545.6,47c-3.19,7.3-7.79,15.42-7.12,23.62.52,6.34,4.31,12.89,10.94,14.21a12,12,0,0,0,13.83-8.14c1.54-4.77-6.27-8.15-8.25-3.39s-6.6,0-7.22-3.12c-1-5.45,2.05-11.5,3.87-16.5,1.87-5.17,3.65-10.37,5.43-15.57,1.6-4.68,4.4-9.9,3.72-14.9l-2.88,1.66a11.19,11.19,0,0,1-.69,4.52c0,.09.11.12.14,0Z"/><path class="cls-1" d="M540.15,40.62a58.35,58.35,0,0,0,36.09,4.76c4.78-.88,3.82-8.87-1.07-8.51a99.31,99.31,0,0,1-32.26-3c-3.9-1-6.6,4.83-2.76,6.71Z"/><path class="cls-1" d="M622.41,8.74c-5.77,2.18-7.71,11.5-9.82,16.75-3,7.55-6.9,15.55-8.31,23.6C602.2,61,609.41,77.22,623.93,73.41c5.2-1.36,4-8.86-1.15-9.13-12.44-.64-6.72-18.65-4.65-25.32,1.62-5.23,3.27-10.44,4.72-15.72,1.17-4.27,3.82-9.61,1.29-13.77a1.58,1.58,0,0,0-1.73-.73Z"/><path class="cls-1" d="M656.2,16.72c-4.13-6.38-10.69.26-13.28,4.3a91.19,91.19,0,0,0-10.29,23.05c-2.1,7-5,16.61-2.75,23.9,2,6.73,11.35,11.86,16.72,5.49a4,4,0,0,0-2.81-6.76c-6.66-.39-.61-19.41.42-23.07A102.53,102.53,0,0,1,649,30.4c.85-1.94,3.2-9.66,5.68-10.1a2.45,2.45,0,0,0,1.5-3.58Z"/><path class="cls-1" d="M623.77,45.19l-.09.33,2.14-2.13.79-.08,1.9,1.46-.17-.37-.52,4c-.94,1,1.77.48,2.42.49,1.61,0,3.23,0,4.84,0A25.21,25.21,0,0,0,643.52,47c2.82-1.13,3.28-5.12,0-6.12-4.43-1.36-8.68-1.31-13.25-.81-3.54.38-7.46.46-8.45,4.59a3.74,3.74,0,0,0,1.72,4.14,4.69,4.69,0,0,0,4.52.08,3,3,0,0,0,1.51-2.59l0-.35c-.14-3.28-4.91-4.12-5.8-.78Z"/><path class="cls-1" d="M678.76,58.33c1.24-4.37,2.61-8.94.73-13.34a11,11,0,0,0-11.28-6.47c-11.84,1.29-17.45,16.06-19.36,26-1.71,8.9-3.43,26.55,10.31,25.81,11.12-.6,20-13.82,23.87-22.94l-9.95-2.67c.24,6.66,1.77,14.82,9.25,16.8,6.29,1.66,12.13-2.21,12.76-8.61.58-5.74-9.18-7.12-10.09-1.35.2-1.24,1.12,1-.53-1.2-1-1.26-.69-4.1-.74-5.58-.16-4.86-7.69-7.9-10-2.67a41.37,41.37,0,0,1-10.3,14.69,10.09,10.09,0,0,1-3.64,2.53c-1.63.45-.85.7-1.49-.68-1.19-2.54,0-7.9.39-10.6.91-5.78,2.8-12.94,6.82-17.4,2.14-2.37,5.15-4.3,7.52-1.2,1.68,2.22,2,5.76,2.09,8.39a1.83,1.83,0,0,0,3.59.48Z"/><path class="cls-1" d="M707.64,15c-3.25,1.85-5.12,5.72-6.88,8.92a94.35,94.35,0,0,0-5.66,12.36A115.51,115.51,0,0,0,689,63c-.91,7.64-2.39,17.64,4.81,22.83s15.76.54,21.08-5.1c3.79-4-1-9.73-5.75-7.44-1.58.76-6,3.25-7.74,2.48S700,71.24,700,69.39a123.26,123.26,0,0,1,1.5-19.29c1-6.25,2.28-12.44,3.81-18.57,1.24-5,4.09-11,3.44-16.09a.78.78,0,0,0-1.14-.48Z"/><path class="cls-1" d="M736.26,6.06c-10.5,15.81-16.47,33.54-18.61,52.39-.87,7.66-1.92,17.22,4,23.27,4.79,4.92,13.69,5.72,18.22,0C743.62,77,737.36,70.41,733,75s-5.82-8.46-5.81-10.32a112.38,112.38,0,0,1,1.8-19A144.65,144.65,0,0,1,741.15,8.84a2.81,2.81,0,0,0-4.89-2.78Z"/><path class="cls-1" d="M47.36,127.48c1.37-6.69,4-13,10.23-16.57A17.76,17.76,0,0,1,77,112.5c10.25,8.27,9.43,25,5.84,36.26A50.7,50.7,0,0,1,60.65,177c-1.83,1.08-14.11,7.3-10.23.4,3.3-5.88,13.26.56,16.87,3,6,4,12.19,8.44,19.74,8.38,6.33,0,12.65-3,15.44-8.9,3-6.23-6.45-11.61-9.34-5.32-4.17,9-16.51-.49-21.37-3.67-7.25-4.74-17.07-8.8-25.38-4-6,3.48-8.92,12-5.82,18.34,4.19,8.59,13.84,6.53,20.91,3.19,15.29-7.23,27.15-22.06,31.42-38.37,4.06-15.46,2.29-37.11-13.12-45.93-16.15-9.24-41.25,3-36.83,23.41.47,2.19,4,2.25,4.42,0Z"/><path class="cls-1" d="M153.82,125c5.52-1.71,5.57-8.51,1.27-11.68-5.93-4.37-15.32-1.41-21,2-16.57,10-20.82,29.63-20.11,47.66.31,7.84.54,16.87,4.67,23.85,4,6.68,11.62,9.9,19,6.69,8.56-3.75,12.2-13.7,13.46-22.35,1-6.91-.81-15.38-8.81-16.83-5.13-.92-10.46,2.08-14.55,4.89-3.76,2.58-8.85,6.34-10.64,10.7-3.48,8.46,10.18,14.34,15.27,7.62,2.19-2.88.35-8.39-4-6.93-1.45.49-.6.26-.66,0L126.26,176A41,41,0,0,1,132,170c1.26-1,5.82-4.8,7.44-4.44.86.19.33-.82.77,1a8.61,8.61,0,0,1-.07,2.48,36.49,36.49,0,0,1-1.84,7.19c-1.23,3.63-5.63,10.5-9.64,5.68-2.67-3.2-3-8.59-3.41-12.53-1.12-11.87-1.42-24.55,4.38-35.36A29.81,29.81,0,0,1,139.37,123a25,25,0,0,1,6.7-3,10.7,10.7,0,0,1,3.63-.67c.94.08,5,1.09,2.91,2.73-1.32,1-.7,3.56,1.21,3Z"/><path class="cls-1" d="M180.35,110.45c-3.59,1.8-5.21,6.44-6.67,10-1.78,4.32-3.4,8.72-4.8,13.18-2.87,9.14-5.45,18.93-5.83,28.55-.3,7.7,2.17,16.14,9.54,19.77,6.59,3.26,14.4,1.71,18.33-4.66,3.22-5.23-4.5-11.26-8.67-6.57-3,3.36-6.73-1.65-7.44-4.46-1.41-5.64,0-12.47.79-18.12a154.73,154.73,0,0,1,4-19.3c1.38-5,5.17-12,3.66-17.19a2,2,0,0,0-2.89-1.2Z"/><path class="cls-1" d="M175.59,108.08c-.37,1.27-1.07,2.25-1.41,3.6a39.24,39.24,0,0,1-1.68,5.83c-1.5,3.6-4.2,6.5-6.62,9.5a3.56,3.56,0,0,0,4.3,5.56c4.56-2.18,7.41-6.15,9.35-10.73a24.92,24.92,0,0,0,1.87-6.55c.42-3.15-.13-4.43-1.19-7.2-.82-2.13-3.9-2.47-4.62,0Z"/><path class="cls-1" d="M283.76,116.53c-6.13-6.62-17.94-5.37-25.11-1.08-9.22,5.51-12.82,16.32-12.06,26.61A66.6,66.6,0,0,0,250,158.21c2.12,6.41,5.58,13,5.47,19.9-.09,5.15-4.09,14.32-11,11.21a4.45,4.45,0,0,1-2.4-5.58c2.43-5.65,8.81,1.72,10.61,4.19,2.82,3.88,5.63,8,10.28,9.84,5.07,2,10.26.33,14.44-2.9,9.57-7.4,16.43-20.18,21-31.13,4.43-10.72,8-23.42,4.11-34.86-3.27-9.62-12.73-17.91-23.34-17-12.3,1.07-17.26,14.69-8.53,23.41,11.07,11.06,27.1,1.27,38.56-3.24,3.49-1.37,3.65-7.8-.91-7.27-5.86.69-11.05,2.91-16.6,4.78-4.83,1.62-12.19,3.36-15.76-1.59-4.05-5.62,2.9-9,7.83-7.91,5.32,1.15,9.46,5.81,11.28,10.76,4.25,11.54-1.37,25.64-6.59,36A94,94,0,0,1,280,180.45c-3.11,4.17-8.86,12.71-15,10.1-4.32-1.85-6.54-7.19-9.78-10.35s-7.58-5.66-12.17-5c-7.55,1.1-10.22,10.2-6.71,16.31,4.14,7.22,14.3,6.87,20.09,1.95,8.14-6.91,7.09-18.59,4-27.7-3.74-11.07-9.13-22.71-5.94-34.65a18.34,18.34,0,0,1,11.18-12.58c5.71-2.22,11.12-1,16.9.12a1.28,1.28,0,0,0,1.21-2.13Z"/><path class="cls-1" d="M292.62,193.69c4.84.47,8.81-6.29,11.14-9.8a56.94,56.94,0,0,0,7.84-18c.35-1.43.72-8,1.76-8.86.71-.58,6.41,1,7.57,1a23.39,23.39,0,0,0,16-6.33l-7.74-4.44c-1.64,8.24-3.41,16.44-5.13,24.66-1.17,5.62-3.74,12.57-.92,18.09,2.94,5.77,9.78,6,14.86,3a27.6,27.6,0,0,0,11.61-14.11c1.44-3.7-4.38-7.08-6.84-3.92a33.06,33.06,0,0,1-7.47,7.37,25.59,25.59,0,0,1-2.57,1.53c-.56,1.06-.72.86-.47-.59-.27-1.8.63-4.15.94-5.94,1.62-9.24,3.19-18.49,4.9-27.72a4.65,4.65,0,0,0-7.74-4.43,14.21,14.21,0,0,1-8.66,3.84c-2.83.2-5.43-.94-8.23-1-6.67-.14-8.42,5-9.14,10.63a61.44,61.44,0,0,1-6,19.34c-2.09,4.21-7.89,9.79-7.1,14.63a1.39,1.39,0,0,0,1.32,1Z"/><path class="cls-1" d="M362.47,144c-5.39-.89-8.18,9.3-9.62,13.14-2.6,7-5.52,15.17-5.53,22.7s6.45,12.36,13.63,10a27.17,27.17,0,0,0,15.43-14.34c1.52-3.44-2.06-8.7-5.92-5.89-3.53,2.58-8,4.85-11.17,7.78-1.37.17-1.7.68-1,1.53.32,1,.43,1.06.34.27.08,0,.25-3.82.22-3.5q.42-4.18,1.14-8.33c.52-3,7.21-22.53,2.48-23.32Z"/><path class="cls-1" d="M370.78,119.81l-1.45-.2a4.33,4.33,0,0,0-2.26,0,4.38,4.38,0,0,0-2,1.18,4.44,4.44,0,0,0,0,6.26,4.46,4.46,0,0,0,4.23,1.13l1.45-.2,1-.43a3.12,3.12,0,0,0,1.23-1.13,4,4,0,0,0,.88-2.5,4.93,4.93,0,0,0-.56-2.13,4.15,4.15,0,0,0-2.56-2Z"/><path class="cls-1" d="M414.21,157c.7-9.35-9.82-12.89-17.2-9.87-9.41,3.84-17.33,14.87-19.14,24.72-1.71,9.28,5.93,15.61,14.86,13.6,11.28-2.54,13-14,17.18-23l-8.83-2.36a72.05,72.05,0,0,1-13.57,51l9.58,3.94A61.26,61.26,0,0,1,421.52,179c5.25-3.78.64-12.38-5.13-8.89C401.13,179.3,390.68,195,387,212.33c-1.26,6,6.21,8.8,9.57,3.94a83.33,83.33,0,0,0,13.95-56.12c-.47-4.14-6.59-7.17-8.83-2.37s-3.28,10.19-6.05,14.64c-1.42,2.27-8,7-9.18,2.31-1.27-4.89,4.18-12.71,7.19-16.16a19.48,19.48,0,0,1,7-5.52c3.42-1.41,8.75-1,9.2,3.9a2.18,2.18,0,0,0,4.36,0Z"/><path class="cls-1" d="M444.73,159.93c.76-3.44.76-6.8-1.59-9.56a12.27,12.27,0,0,0-10.89-4.26c-10.72,1.15-16.59,11.61-18.08,21.27-.73,4.77-1.79,10.38,1.42,14.49a10.84,10.84,0,0,0,11.23,3.51c11.8-2.9,10.57-14.57,14-23.68l-10.91,0a141.24,141.24,0,0,1,4.94,30.9c.13,3.59.09,7.45-1.18,10.86a40.61,40.61,0,0,1-2.18,3.71c-.65,1.29-2,.21,0,1.63,1.74,1.24,1-.24,1.42-1.78,1.19-4.19,4.92-8,7.47-11.41l9.88-13.21,9.88-13.21c3.43-4.6,7.43-9.11,9.7-14.42s-3.34-9.49-7.78-5.89c-5.9,4.77-10.18,11.9-14.75,17.9l-14.13,18.51c-4.09,5.35-9.21,10.71-11.55,17.13-2.08,5.67-1.55,13.39,4.24,16.74,5.26,3,11.24-.54,14.69-4.68s4.84-9.35,5.42-14.57c1.5-13.44-1.73-28.14-5.19-41.06-1.55-5.78-9-5.09-10.9,0-1.55,4.17-1,9.92-3.24,13.71-.42.72-2.24,2.78-3.34,2.13,1.23.72,1.14-5.27,1.24-6.07.62-5,2-10.52,6.32-13.65s13-1.47,13.28,5c0,.3.48.4.55.07Z"/><path class="cls-1" d="M473.57,144l.42.12a3.11,3.11,0,0,0,3.07-.84c2.21-2.86,1.44-5.56-1.36-7.66-1.23-.92-3.08-.62-4.34,0-3.47,1.76-4.29,5.44-5.39,8.91-1,3.13-2.92,7.19-1.9,10.58,2.37,7.94,10.62,4,16.2,5,6.65,1.26,13.12,8.13,12.13,15.22-.57,4.06-4.53,3-7.88,3.18-4.8.22-9.6.49-14.41.74l4.78,8.27a44.27,44.27,0,0,1,6.52-7.55c4.2-3.86-1.58-11.67-6.27-8.1a42,42,0,0,0-9.86,10.17c-2.24,3.34.76,8.54,4.78,8.27,5.1-.34,10.2-.65,15.3-1,3.74-.27,7.79-.34,11.13-2.24,7-4,7.09-13.64,4.49-20.3a27.13,27.13,0,0,0-15.49-15.54A22.69,22.69,0,0,0,474.82,150c-1.67.2-2.46-.36-1.7,1.43,1.05,2.46,1.09-.67,1.33-1.66.3-1.23.61-2.45.89-3.68.15-.61.28-1.23.41-1.84.69-1.72-.37-2-3.16-.92l-.84-3.07-.07.49a2.74,2.74,0,0,0,1.89,3.27Z"/><path class="cls-1" d="M542.29,178c17.36-16.72,30.53-37.94,39.9-60.05l-8-2.14-.16,23.92c0,6.69-.76,14,1.77,20.4,3.86,9.71,16.84,14.06,23.56,4.62,3-4.2-4.06-9.64-7.28-5.52-2,2.55-5.31,1-6.9-1.28-2.36-3.4-2-8.5-2-12.43q-.23-14.82-.42-29.66c-.08-5.13-6.68-5.46-8.38-1.13-8.63,21.87-21.23,41.28-35.74,59.66-2,2.54,1.22,6,3.66,3.61Z"/><path class="cls-1" d="M560.63,164.74c-1.45-.76-2.37-.59-3.84.16a2.65,2.65,0,0,0-1.36,2.34c.4,5.35,7.06,6.13,11.41,6.44a29.1,29.1,0,0,0,18.95-5c3.09-2.12,1.34-8.12-2.69-6.58a59.53,59.53,0,0,1-11.64,3.18c-1.49.24-10.39,1.4-11.35.07l-.31,2.43.54-.7-2.08.28.7.3c1.94.82,3.65-1.91,1.67-2.93Z"/><path class="cls-1" d="M590.4,155.4l-.2.51,2.28-1.74-.71,0,2.25,1.31c1.07,1.46,11.58-5.61,13.57-6.59l-4.86-.62c4.79,6.09,1.24,15.87,3,23,1.44,6,5.32,12.13,11.74,13.44,16.73,3.43,24-24.67,26.16-36.29,1.24-6.69-8.46-9.5-10.33-2.77-1.54,5.53-2.58,12.25.34,17.53,3.35,6.07,9.94,7,16.2,5.85a50.55,50.55,0,0,0,19.9-8.89c4.85-3.51,11-8.51,11.33-15,.38-6.71-6-9.77-11.86-9.46-7,.37-13.32,4.91-17.74,10.11-8.62,10.13-12.92,25.22-3.74,36.49a20.65,20.65,0,0,0,20.23,6.87c8.39-1.68,15-7.24,20.74-13.21,3-3.11-.94-8.65-4.77-6.18-6.68,4.31-19.25,13.47-27,7-8.36-7-3.13-19.57,2.71-26.22a24.52,24.52,0,0,1,5.78-5.12c2.15-1.25,8.65-2.87,5.75,1.38-2.46,3.61-8.7,6.53-12.56,8.3a49.08,49.08,0,0,1-6.86,2.44c-1.78.5-5.73,2.13-7.51,1.36-3.33-1.45-1.3-7.84-.59-10.42l-10.33-2.77c-.83,4.51-9.38,36.27-16.49,27.09-3.31-4.27-2.49-10.21-2.81-15.22-.36-5.66-1.54-10.8-5.56-15a4.1,4.1,0,0,0-4.85-.62c-4.47,2.76-15.51,8.37-15.29,14.5a2.92,2.92,0,0,0,2.14,2.8,3.66,3.66,0,0,0,3.74-1,2.27,2.27,0,0,0,.6-2.24l-.19-.5a2.17,2.17,0,0,0-4.15,0Z"/><path class="cls-1" d="M697.31,186.13a2,2,0,0,1-.25-.14l.91.68a2.22,2.22,0,0,1-.41-.4l.74,1c-.17-.24-.36-.48-.54-.71a6.69,6.69,0,0,0-1.43-1.28l.94.7a2.59,2.59,0,0,1-.4-.41l.72.93a2.5,2.5,0,0,1-.29-.5l.44,1.06a2.12,2.12,0,0,1-.14-.55l.13,1.06a2.06,2.06,0,0,1,0-.43l-.14,1,0-.15a4.1,4.1,0,0,0-1.87-4.48,4.76,4.76,0,0,0-2-.52,3.94,3.94,0,0,0-2.85,1.18,6.59,6.59,0,0,0-1.41,2.63,6.76,6.76,0,0,0,0,3.13,5.77,5.77,0,0,0,5.57,4.31,4.35,4.35,0,0,0,4.2-3.21,4.41,4.41,0,0,0-2-4.88Z"/><path class="cls-1" d="M12.44,226.17c5.52,6.31,14.74,6.72,22.09,3.58,8.95-3.84,14.12-12.2,19.52-19.82l-7.66-2.06c-3,22.83-4.83,45.93-6.88,68.86l10.7.06A100,100,0,0,1,54.28,246c2.55-8.47,6.23-19.47,13.23-25.41,6.51-5.52,19.39,1.65,18.39,10.16-1.17,9.89-13.54,13.22-21.39,15.54-6.85,2-4.13,11.88,2.77,10.63l8.53-1.55c2.2-.39,6.51-2.11,8.54-1.55,3.77,1,2.47,8.84,1.24,11.93a23.74,23.74,0,0,1-8.47,10.12c-1.11.79-12.17,7.44-12.35,4-.4-7.75-10.76-7.39-11.75-.06-1.53,11.42,11.69,15.15,20.28,11.8,8.75-3.41,17.27-10.13,21.46-18.69,3.78-7.71,4.83-18.35-.42-25.7-2.92-4.1-7.22-5-12-4.27-6,.94-11.91,2.23-17.85,3.36l2.77,10.63c12.27-3.72,26.1-9.3,29-23.38,2.68-13-10.06-25.77-22.83-26.07-13.82-.32-21.29,14.48-25.82,25.34a105.74,105.74,0,0,0-8.13,43.94c.22,6.94,10.19,6.88,10.7.06,1.69-22.9,3.69-45.92,4.37-68.87.13-4.13-5.67-5.58-7.65-2C41,216.38,28.88,231.59,15.6,222c-2.56-1.84-5,2.06-3.16,4.17Z"/><path class="cls-1" d="M98.42,287c1.25-1.06,2.45-1.23,3.59-2.41a16.62,16.62,0,0,0,2.67-4.74,83.85,83.85,0,0,0,4.06-12.26c2-7.59,4.38-16.75,2.25-24.51-.88-3.16-4.95-2.8-6,0-2.72,7.32-2.54,15.7-4.36,23.31-.85,3.57-2,7-3.07,10.56a21.66,21.66,0,0,0-1.28,5.31c0,1.51.64,2.64.68,4.16a.86.86,0,0,0,1.45.6Z"/><path class="cls-1" d="M107.26,260c8.95,4.38,19,3.11,27.85-.76l-5.71-5.69c-3.11,7.43-6,14.94-8.9,22.43-.93,2.38,1.09,4.83,3.19,5.53a29.15,29.15,0,0,0,14.54.82c4.63-.78,3.7-8.7-1-8.23A26.69,26.69,0,0,1,126,272.79l3.19,5.53c2.66-7.19,5.37-14.36,7.84-21.62,1.24-3.65-3.12-6.2-6.12-4.69-7.17,3.6-14.49,3.56-22.27,2.74-2.8-.3-3.86,4.06-1.41,5.25Z"/><path class="cls-1" d="M166.83,261.18c1.31-1.06,2.3-2.26,3.51-3.43a2.3,2.3,0,0,0,0-3.25c-7.25-5.67-18.27-4.55-23.87,2.93-5.28,7.06-3.75,17.27,4.29,21.49,8.39,4.4,16.41-.5,19.56-8.62,1.89-4.86,2.49-8.6,8.2-9.76a29.79,29.79,0,0,1,19.13,2.88c5.13,2.59,9.6-5.06,4.45-7.82-11.58-6.21-32-9-38.55,5.54-1.54,3.38-4.91,15.63-10.64,8.25-2.18-2.81-.49-7.37,1.87-9.49,3.73-3.34,8.93-2.45,13.35-1.54l-1.62-2.82c-.4,1.63-.94,3.1-1.19,4.76a.93.93,0,0,0,1.54.88Z"/><path class="cls-1" d="M212.12,257.76c-2.63-1.43-4.1-3.46-6.91-4.53a22.35,22.35,0,0,0-8.37-1.46,18.75,18.75,0,0,0-12.43,5c-7.6,7.17-4.61,19.07,4.55,23.23s21.62-1,26-9.87c4.6-9.3-3.77-19.58-13.58-15.15-5.55,2.5-1.43,10.17,3.8,9.28a46.12,46.12,0,0,0,25.46-14c4.34-4.66-2.11-10.51-6.86-6.76a64.54,64.54,0,0,1-21.15,10.92l3.81,9.29c.59,0,.56.48-.08,1.48a8.66,8.66,0,0,1-2,2.54A13.73,13.73,0,0,1,198.8,271c-3.37,1-9.12-.08-9.13-4.63,0-4,4.72-6.71,8.07-7.37,2.54-.51,5-.24,7.6-.33,2.32-.09,4.41-.91,6.74-.73a.07.07,0,0,0,0-.13Z"/><path class="cls-1" d="M225.27,258.15c10.21-2.32,17.57-14.72,20.74-23.86,2.5-7.22,6.12-25-5.2-26.79-14.27-2.27-14.81,18.58-16.07,27.59-2.12,15.24-3.45,30.53-4.77,45.85-.61,7.15,10.5,7.14,11.12.06a106.45,106.45,0,0,1,2.5-16.56c1.12-4.48,2.28-10,5.46-13.58,1.76-2,6.68-3.82,6.56.19-.1,3.41-4.07,10.49-8,9.21-5.89-1.9-8.32,7.34-2.48,9.26,7.16,2.35,9.76,11.35,18.13,12,6.16.5,12.05-4,11.85-10.46-.19-6.11-9.33-6.18-9.5-.06-.09,3.38-8-4.08-8.54-4.62a23.51,23.51,0,0,0-9.46-6.16l-2.48,9.26c15.79,5,29.36-25.25,11.46-30.42C226,233.16,220,267.42,220,280.94l11.12.06c0-10.37.52-20.78,1.37-31.12.43-5.18,1-10.34,1.6-15.5.6-5,.8-10.36,2.31-15.16,1.14-3.62,3.94-4.87,5.09-.62.47,1.74.07,4.25-.1,6a41.5,41.5,0,0,1-3.42,12.88c-3.38,7.58-9.41,12.27-14.13,18.75-.7,1,.46,2.13,1.46,1.9Z"/><path class="cls-1" d="M264.7,269.34a4.8,4.8,0,0,0-1.73,5.31c1,2.79,4.84,4.61,7.17,1.92,7.18-8.29,12.11-18.51,16.18-28.62a144.73,144.73,0,0,0,5.31-15.69c1.4-5.11,3.47-10.93,2.29-16.21-.92-4.13-6.53-4.47-8.58-1.13-2.45,4-2.67,9.24-3.79,13.73a145,145,0,0,1-4.66,15,151.87,151.87,0,0,1-6.16,13.95c-1,2.09-2.08,4.16-3.2,6.2-.49.89-2.82,6.26-3.06,6.41l2.72-.35,1.16,1.59c.87-2.3-2.17-3.25-3.65-2.09Z"/><path class="cls-1" d="M289.44,220.34c1.13-7-4.88-11.19-11.65-8.91-9.32,3.13-12.13,15.59-13.22,24.11-1.26,9.79-1.52,22.25,2,31.61,3.35,8.78,12.1,14.59,21.17,10.25,4.73-2.26,1.35-9.17-3.36-8.19C272.71,271.64,274,248,274.19,241.67c.16-5.83.8-12,3.34-17.36.94-2,2.36-4.47,4.71-4.81a6.8,6.8,0,0,1,2.73.43l.92.13c.92-.42,1.2-.21.84.64.6,1,2.49,1,2.71-.36Z"/><path class="cls-1" d="M293.22,273.47c3.71-7.36,7.68-13.77,14.69-18.45l-5.57-1.49A29.89,29.89,0,0,1,306.42,277c-1,4.24,3.28,7,6.93,5.31,12.47-5.65,20.16-20.24,18.58-33.73-.78-6.61-10.52-7.09-10.63-.06-.19,12.23-.38,24.5-1.89,36.65A130.09,130.09,0,0,1,316,302.92c-.77,2.86-1.64,5.68-2.65,8.46a21.46,21.46,0,0,1-1.64,4l-.69,1.1c-1.32.9-1.35,1.24-.08,1l2.84,6.81A99.94,99.94,0,0,1,335,287.12c4.91-5.44-3.12-13.49-8.17-8.05a113.87,113.87,0,0,0-24.73,42.06c-.89,2.71.71,5.32,2.84,6.81,6,4.19,12.94-.07,16.34-5.5,4.18-6.66,5.93-15.84,7.37-23.45,3.12-16.61,3.25-33.56,3.27-50.4l-10.46,1.31c1.76,10.25-3.93,19.48-12.85,24.23l6.94,5.32a40.16,40.16,0,0,0-6.16-30c-1.15-1.68-3.67-2.85-5.57-1.49-7.77,5.56-14.57,13.52-16.29,23.18-.58,3.23,4,5.68,5.68,2.33Z"/><path class="cls-1" d="M339.35,279.8c5.32-8.19,10.21-16.19,17.09-23.24q2.28-2.34,4.72-4.51c.4-.37.81-.73,1.22-1.08,1.13-.68.76-1-1.13-1a16.68,16.68,0,0,0,.33,2.55,22.17,22.17,0,0,1-4.83,14.42l8.56,4.9A67.21,67.21,0,0,1,373.75,254c1-1.43,2.05-2.78,3.13-4.13,1.31-1.61,1.17-2.34,2.26-1,.71.9.8,2.92,1.12,4,.57,2,1.21,4,2,5.94,2,5.11,4.39,12.27,10.46,13.62,5.4,1.21,10.73-3.07,9.19-8.71-1.09-4-6.07-4.24-8.2-1.08,1.33-.34,1.44-1,.31-1.91l-.84-1.58a49.74,49.74,0,0,1-2.42-5.31c-1.08-2.82-1.76-5.77-2.91-8.56-2-4.73-5.88-8.68-11.41-7.19s-9.95,8.17-13,12.75a58,58,0,0,0-8,18.27c-1.4,5.86,6.11,8.49,9.35,3.85,4.49-6.42,7.3-14.17,6.69-22.09-.44-5.84-4.59-12.34-11.34-10.17-3.08,1-5.59,3.77-7.88,6a91.18,91.18,0,0,0-8.81,9.62c-4.84,6.13-9.31,12.85-12,20.2-1.78,4.8,5.38,7.16,7.91,3.25Z"/><path class="cls-1" d="M426.9,256.89c-.28,1-1.35,1.49-1.82,2.41a22.87,22.87,0,0,0-1.14,4.32,67.59,67.59,0,0,1-3.74,10.53c-3,6.46-7.68,11.68-11.45,17.65-1.88,3,2,6.9,5,4.93,6.76-4.47,10.84-11.58,13.87-19a50.59,50.59,0,0,0,3.29-11.44c.27-1.7.87-4.05.55-5.76-.22-1.18-1.29-2.17-1.41-3.25-.2-1.69-2.59-2.28-3.11-.42Z"/><path class="cls-1" d="M449.91,279.74c5.44-9.67,9.19-20.53,13.5-30.75,2.12-5,4.18-10.07,6.27-15.1,1.42-3.43,2.83-8.57,7-9.28l-5.7-5.74q-4.62,19.74-9.09,39.51c-2,9-3.46,21.12,7.91,24.33,10.18,2.87,18-4.72,23.06-12.55a306.56,306.56,0,0,0,19-34.43c2.81-5.89-5.82-11-8.92-5.08q-6.57,12.54-13.74,24.77c-2.86,4.88-8.22,17.86-15.52,17.26-3.9-.32-3.2-4.49-2.74-7.32.82-5,2.09-10,3.14-15,2.05-9.69,4-19.4,5.94-29.1a4.74,4.74,0,0,0-5.7-5.74c-10.38,2-13.21,15.56-16.47,23.87-4.85,12.37-10.71,24.93-14.05,37.8-.94,3.65,4.25,5.87,6.13,2.52Z"/><path class="cls-1" d="M522.35,214.29c-5.07,2.2-4.89,9.79-5.59,14.44s-1.37,9.5,1.54,13.59c6.9,9.71,18.5,1.82,25.86-2.45,3.55-2.07,1.81-7.05-1.95-7.35-4.08-.33-7.18,1.47-10.88,2.83-1.12.41-3.68,1.58-4.82.61s-.44-3.87-.39-5c.08-1.77,2.12-19.24-3.77-16.68Z"/><path class="cls-1" d="M561,207.59c-12.93,4.73-25.65,16-33.17,27.46a57.09,57.09,0,0,0-8.27,19.7c-1.28,6.28-3,16.41,2.35,21.2,2.07,1.86,5.88,1.8,7.24-1,2.5-5.17.47-11.61,1.41-17.26a48.17,48.17,0,0,1,7.18-17.95,70.26,70.26,0,0,1,12-14.11c4.7-4.28,10.16-7.6,14.81-11.93,2.53-2.36-.1-7.36-3.53-6.11Z"/><path class="cls-1" d="M589.19,229.36c1.87-2.4,3.88-4.65,5.89-6.92s4.31-5.67,7.08-7.39l-3.35-3.33c-4.55,6.39-5.64,16.09-7.37,23.62-1.94,8.46-3.55,17-4.91,25.56-.77,4.81,6.63,6.78,7.33,2,1.25-8.59,2.75-17.15,4.58-25.64,1.66-7.74,5.39-16.35,4.94-24.28-.15-2.72-4-3.41-4.81-.64-.9,3.12-3.45,6.11-5.2,8.84-1.64,2.55-3.26,5.11-5.07,7.55-.37.51.5,1.18.89.67Z"/><path class="cls-1" d="M612.07,240.25c5.72-7.37,10.67-15.41,15.8-23.19l-7.64-1c3.4,9.31,0,19.59-1.69,29-1.8,9.9-4.54,20.09-4.8,30.17-.12,4.81,6.59,5.33,8,1.08,3.6-10.68,4.54-22.63,6.44-33.72,1.62-9.41,3.77-19.39.09-28.57-1.32-3.29-5.59-4.36-7.65-1-4.72,7.66-9.79,15.27-13.9,23.27-1.65,3.21,2.87,7.22,5.33,4.05Z"/><path class="cls-1" d="M649,235c.65-2.09.29-1.91-.13-4.27a14,14,0,0,1,0-4.62c.44-3,2-5.93,4.88-7.21,4.73-2.08,8.23,2.26,9.88,6.13,3.72,8.69,2,20-2,28.26a32.08,32.08,0,0,1-8.47,11c-1.91,1.56-4.21,2.36-6.18,3.75-1,.73-3.11.49.29,2.14.5.24,2.61.44,3.56.71,11.64,3.4,20.85,12.21,33.73,8,6-1.93,3.69-10.95-2.46-9.46-9.07,2.2-17.8-4.33-25.81-7.62-6.79-2.79-16.54-3.1-18.93,5.6-2,7.42,4.46,12.91,11.54,10.78s13-7.37,17.29-13.12c8.2-11.06,12-27.46,7.74-40.8-2-6.24-5.87-12.45-12.28-14.79-7.27-2.65-15.19.68-19.34,7-4,6.13-4.78,19.43,2.43,23.94,5.71,3.57,10.66-5,5.42-6.13A.89.89,0,0,0,649,235Z"/><path class="cls-1" d="M689.3,244.13c2.24-5.64,3.37-13,9.16-16.19,6.73-3.72,10.06,3,11.58,8.53,2.89,10.62-.74,25.77-14.21,25.26l2.82,10.63c4.25-2.08,6.85.76,9.73,3.45s6.07,4.73,10.06,4.8c7.93.12,13.45-6.88,16.73-13.32,3.13-6.15-5.71-11.27-9.35-5.33-1.32,2.15-3.42,6.27-6.11,7s-4.75-2.87-6.66-4.46c-5.89-4.93-13.35-5.3-20.1-2-5.21,2.55-2.58,10.59,2.82,10.62A24.92,24.92,0,0,0,718,258.87c4.53-9.41,3.5-20.47-.6-29.83-3.69-8.41-11.71-13.67-20.79-9.9-9.46,3.94-13.09,14.63-13.46,24.16-.14,3.82,4.93,3.9,6.16.83Z"/><path class="cls-1" d="M733.26,234.23c-.7-3.14-2.18-6.37-.11-9.38,2.45-3.56,7.38-3.67,11-2,5.5,2.55,9.08,8.42,9.92,14.3a23.57,23.57,0,0,1-4.35,16.72,31.93,31.93,0,0,1-6.37,6.71,35.56,35.56,0,0,1-3.76,2.56c-1.5.89-3.65.82-2.05,2.36,2.09,2,.22.35,1.51,0,.84-.24,1.55-.74,2.45-.91a8.75,8.75,0,0,1,6.48,1.58c5.22,3.45,8.79,8.9,14.3,12a25.49,25.49,0,0,0,30.38-4.36c4.56-4.59-2.34-11.25-7.11-7a16,16,0,0,1-19.46,1.54c-6-4.08-10-10.75-17.1-13.17-5.49-1.87-12.41-1.22-16.86,2.76-4,3.61-5.86,11.05-1.13,14.95,5.67,4.69,13-.48,17.52-4.23a39.05,39.05,0,0,0,12.21-17.32c4.24-12.39,0-28.36-12-34.82-6.87-3.71-15.74-4-21.27,2.2-5.13,5.76-3.52,13.82,2.76,17.86,1.59,1,3.44-.68,3.07-2.35Z"/><path class="cls-1" d="M5.52,292.28c5.75,0,5.79-8.93,0-8.93s-5.8,8.93,0,8.93Z"/><path class="cls-1" d="M0,287.81C2.79,310.33,21.1,325,40.4,334.25c23.76,11.43,49.68,18.28,75.82,21.28,26.93,3.09,53.35.93,79.95-3.7,14.63-2.54,29.16-4.72,44.05-4.86a322.65,322.65,0,0,1,40.62,2.53c27.73,3.25,55.21,8.67,83.1,10.42,27.34,1.71,53.92-1.5,80.34-8.58,27.12-7.25,53.51-16.9,80.89-23.23a477.75,477.75,0,0,1,177.92-7c30.55,4.64,63.33,15.76,94.15,7.51,5.37-1.44,4.64-10.72-1.26-10-28.49,3.34-55.42-3.22-83.32-7.85a487.62,487.62,0,0,0-162.7.37C523.31,315.69,497.49,323,471.72,331c-26.1,8.11-52.54,16.18-80,17.51-26.76,1.29-53.38-2.61-79.78-6.43-26.75-3.87-53.77-7.82-80.87-6.36s-53.45,9.2-80.7,9.93a242.93,242.93,0,0,1-86.82-13.69C42,324.37,13.28,312.16,9.17,286.67c-.83-5.14-9.78-4.08-9.14,1.14Z"/></g></g></svg>