<svg xmlns="http://www.w3.org/2000/svg" viewBox="0 0 877.01 335.28"><defs><style>.cls-1{fill:#fff;}</style></defs><title>merch</title><g id="Layer_2" data-name="Layer 2"><g id="Layer_2-2" data-name="Layer 2"><path class="cls-1" d="M465.12,154.05c2.68-6.78,4.34-13.5,9.73-18.81a23.19,23.19,0,0,1,5-3.79c2-1.14,2.42-1.94,4.07.17,2,2.6,1.49,9.73,1.29,12.79-.56,8.53-3.62,16.68-6.62,24.6-2.59,6.8-6.75,14.68-5.25,22.1.6,3,4.48,3,5.94.79,3.05-4.59,3.88-10.55,5.66-15.72,1.92-5.57,4.08-11.06,5.73-16.71,2.93-10.11,4.82-22.62-.19-32.43-4.68-9.15-15.11-2.67-20.42,2.42-6.15,5.89-11.4,16-8.23,24.58a1.73,1.73,0,0,0,3.32,0Z"/><path class="cls-1" d="M17.09,267.53c-3.57,8.88,10,10.67,14.54,10.45a36.31,36.31,0,0,0,12.57-3c7.92-3.35,13.77-9.56,18.57-16.54C73,243.7,79,225.15,84,208.07c11.2-37.87,20.22-76.5,28.28-115.15C117,70.54,121.92,48,123,25.13c.39-8.45-12-9.67-14.31-1.92-5.23,17.52-8.31,35.48-12,53.39S89.17,112.37,85,130.16s-8.7,35.51-13.47,53.16c-4.49,16.6-9,33.41-15.56,49.33-3.18,7.68-6.76,15.92-12.61,22a27.05,27.05,0,0,1-8.27,6.08c-3.73,1.67-7.41,1.4-11.37,1.83-2.25.24-5,1.08-6,3.44l-.63,1.54Z"/><path class="cls-1" d="M113.67,20.52c-7,9.29-10.35,21.64-13.27,32.78a202.34,202.34,0,0,0-5.79,34.75c-1.78,21.72-2.07,46.33,9.44,65.65,6.64,11.14,19.24,22.26,33.29,18.64,12.25-3.15,17.13-16.29,22-26.51,10.29-21.51,20.78-42.8,31.67-64,6.17-12,12.15-24.1,18.09-36.22s12.8-24.09,16.35-37c2.22-8.08-8.59-11.74-13-5.33C206.55,12,202.58,22,198,31.49s-9.39,19-14.23,28.43c-9.56,18.58-19.21,37.08-30.4,54.74-5.69,9-11.7,17.75-17.68,26.53-.75,1.11-2.79,4-2.79,4-.74,2.58-6.36-.84,3.69-.73.32,0,4.08.83,3.92,1.48,0-.06-1.5-1.47-1.62-1.56-1.88-1.49,1.12,1.93-.1-.14a37.37,37.37,0,0,0-2.7-3.68c-3.69-4.78.77,1.59-1.37-1.91-1.08-1.76-2.16-3.5-3.08-5.36-.46-.92-.91-1.87-1.3-2.82,1.23,3,.25.42,0-.17-2.75-7.94-1.78-4.71-1.17-3-.35-1-.71-2-1-3-.74-2.26-1.38-4.55-2-6.86a134.38,134.38,0,0,1-3.88-26.59,164.57,164.57,0,0,1,1.45-31.37c1.68-11.66,5.54-22.81,6.87-34.49.45-3.94-3.14-7.85-6.72-8.81-4.22-1.13-7.77,1-10.23,4.26Z"/><path class="cls-1" d="M212.68,10.65c-8,11.23-16,22.7-21.29,35.54-5,12.15-10.17,24.29-14.42,36.73-8.63,25.23-16.19,51-20.56,77.37-4.22,25.53-8.61,54.49-1.07,79.81,6.66,22.4,26.52,44.12,52,38.49,13-2.87,22.9-13.26,29.66-24.14,6.94-11.16,10.52-24.57,19.61-34.33,9.5-10.2-5.95-25.55-15.48-15.25-7.91,8.54-12.65,18.76-17.69,29.11-3.72,7.65-7.94,16-15.11,20.92-6.46,4.47-13.45,3.64-19.35-1.35-7.28-6.15-10.49-14.44-12.46-23.53-2.38-10.93-2-22.29-1.19-33.39a322,322,0,0,1,4.5-34.86,557.32,557.32,0,0,1,18.27-71.26c4.13-12.73,8.55-25.43,12.37-38.25,3.94-13.18,6-26.52,7.76-40.13.42-3.27-4-3.56-5.52-1.48Z"/><path class="cls-1" d="M273.63,201.3c22.57,2.56,44-15.59,54-34.65,5.51-10.5,7.87-24.33-.27-34.16-8.65-10.43-22.84-8.81-33.63-3S273.83,144,265.67,152.9A105.39,105.39,0,0,0,245.8,183c-5.53,13.14-7.76,27.79-2.68,41.46a66.59,66.59,0,0,0,21.07,29.22c22.25,17.46,55.66,21.07,79.28,3.81,5.29-3.86,8-10.45,4.44-16.56a12.28,12.28,0,0,0-16.57-4.44c-13.55,7.9-30,10.16-44,2.76-6.31-3.33-12.34-8.42-15.87-13.69-5-7.43-7.72-15.84-6.57-24.85,2.14-16.79,13.44-32.73,26-43.49a80.93,80.93,0,0,1,9.5-7c2.79-1.77,6.63-4.41,10.1-4.3,1.2,0,1.13.36,1.06,1.19a24.06,24.06,0,0,1-1.63,7.85c-7.48,16.7-24.67,25.78-39.15,35.3-5.15,3.38-2.85,10.37,2.92,11Z"/><path class="cls-1" d="M377.1,271.55c1.11-6.54-2.69-11.46-5.57-17A76.74,76.74,0,0,1,365.47,240c-3.74-12.45-2.19-25.42.93-37.84,6.79-27,20.22-51.72,34.43-75.55,7.58-12.72-10.85-27.33-21-15.91-11.19,12.57-19.22,27.43-26,42.74-6.95,15.83-13.81,32.31-16.73,49.44-3,17.54-1.78,35.13,5.53,51.48A43.33,43.33,0,0,0,358.18,272c3.23,2.11,6.93,4.11,10.91,4,2.74-.07,7.45-1.2,8-4.48Z"/><path class="cls-1" d="M373.32,178.44l-.39,1.05-3,3c3.12-1.3,5.3-4.94,7.84-6.77a75.54,75.54,0,0,1,9.73-5.62,108,108,0,0,1,20.83-7.5,156.67,156.67,0,0,1,22-4.18,43.17,43.17,0,0,1,7.45-.3c1.67.12,2.3.73.75,0a19.3,19.3,0,0,1,2.35,1.42c-1.16-1-1.11-1,.13.19a13.26,13.26,0,0,0,4.06,2.79q-1.66-1.42-.1.16c6.25,6.85,17.22,2.68,19.71-5.36,5.09-16.48-10.24-27.33-24.89-28.51-11.66-.93-24.91,2.47-36.11,5.59-11.48,3.21-22.46,7.94-32.14,15-5.09,3.68-9.87,8.13-12.67,13.87a22.36,22.36,0,0,0-2.07,8.74c-.16,3.74,1.26,6,2.61,8.64l-1-3.73.12,1.48c.77,9.42,15.54,9.56,14.77.08Z"/><path class="cls-1" d="M587.39,101c-8.39.27-11.68,9.41-14.88,15.85-1.86,3.74-3.85,7.44-5.41,11.32a26.82,26.82,0,0,0-1.84,11.74c.24,7,8.13,9.83,13.19,5.45,7.32-6.34,9.61-15.14,13-24,1.53-4,3.22-8.09,3-12.5-.18-3.57-2.91-8-7-7.91Z"/><path class="cls-1" d="M649.38,266.34c1.22-4.07,2.49-7.57,2.33-11.85-.18-4.9-.52-9.75-.9-14.64-.69-8.82-1.88-17.59-3-26.37l-6.68-53.71c-2.06-16.62-4.44-33.24-6.06-49.91-1.41-14.54-2.28-29.6,0-44.11C637.22,52.62,641.8,38,651.64,28.5a17.75,17.75,0,0,1,3.09-2.44c.48-.31,3.53-1.63,2.24-1.21.55-.18,3.32-.71,2.68-.65-1.17.12.75,0,.79,0,1,0,2,0,3,.09,1.29.11.45,0,.18,0a15.54,15.54,0,0,1,1.89.41c.64.16,3.25,1,2.83.83a17.78,17.78,0,0,1,3.49,2c-.9-.69.79.79.74.76,2.07,1.61,0,0-.69-1.12.76,1.28-1.2-3.54-.77-1.76,0,.11.07-3.41-.2-1.48-.23,1.59-.57,3.76.13.69-.66,2.89-1.19,5.77-2,8.63-2.47,8.55-5.69,16.89-9,25.16-.5,1.25-1,2.51-1.51,3.77-.22.54-.45,1.09-.67,1.64.2-.49.71-1.71-.22.52q-1.66,4-3.37,8-3.45,8.13-7,16.23-7.54,17.15-15.2,34.25c-8.13,18.24-15.34,37.23-24.77,54.84-10.5,19.6-21.85,36.68-37.48,51.91-2,2-4.12,3.87-6.29,5.67-.44.36-2.7,2.08-1.19,1q-1.8,1.33-3.69,2.57a67.79,67.79,0,0,1-6,3.4c-2.37,1.22.53,0-1.35.59-1.25.35-2.46.8-3.74,1.09a51.88,51.88,0,0,1-32.34-3.6c-25.62-12.51-25-44.91-17.35-69.2,7.24-23.1,27.7-45.15,54.07-37.34a27.53,27.53,0,0,1,13.3,8.89c4.65,5.47,14.26-1.84,10.08-7.8-8.37-11.94-21.75-18.13-36.2-18.58-15.43-.48-30,6.47-40.79,17.26-11.32,11.37-18.51,26.55-22.57,41.92-4.39,16.6-5.82,35.18.18,51.59,5.67,15.54,16.76,27.84,32.06,34.37,14.23,6.07,31.11,8.2,46.28,4.48,12.37-3,23.2-11.21,32.3-19.8,10-9.46,18.54-20.54,26.35-31.87,12.23-17.73,20.89-36.5,29.67-56.06,11.2-24.94,22.6-49.79,33.06-75.06,4.68-11.32,9.31-22.67,13.26-34.26,2.56-7.52,5.26-15.51,5.56-23.53.47-12.62-11.73-20.54-22.85-23.16-18-4.22-33,4-43.36,18.57-20.6,29.1-18.17,67.49-13.84,101,2.51,19.44,5.7,38.8,8.62,58.18,3,20.07,5.37,40.39,9.3,60.3.89,4.49,1.7,9,2.77,13.45.6,2.47,1,5.38,2.18,7.64,1.11,2.1,2.72,4.12,4,6.13a4.49,4.49,0,0,0,8.12-1.07Z"/><path class="cls-1" d="M646.6,181.9a47.78,47.78,0,0,1,13.61-17c1.25-.94,5.32-3.53,7.81-5q2.44-1.43,5-2.66c1-.48,1.94-.94,2.93-1.36,2.6-1.09-2.94.87,1.76-.63,7.8-2.49,15-4.61,22.94-3.43,2.79.42,3.67.94,6.61,2.66.13.08,1.92,1.42.71.46s.83.82,1.1,1.08c.5.47,1,1,1.47,1.47,0,0,2.56,3,1.49,1.63s.61,1,.84,1.3c.39.6.77,1.2,1.14,1.82,1,1.65,1.9,3.37,2.73,5.11.32.66.61,1.32.92,2,1,2.28-.75-2,.13.31.68,1.82,1.32,3.64,1.91,5.48a248.45,248.45,0,0,1,6.52,26.49c3.51,17.66,7.17,35.7,13.62,52.55,3.76,9.83,9.37,18.62,19.57,22.56,7.25,2.79,16.35,2.83,23-1.44,4-2.54,1.57-10-3.33-8.13-8.62,3.28-11-5.46-12.73-11.9-2.37-8.58-3.13-17.6-4.63-26.35-3.34-19.37-5.75-38.71-11.55-57.58-5.09-16.57-13.18-33.93-28.91-42.86-18.1-10.29-40.78-5.58-58.7,2.64-17.73,8.13-43.42,29-32,50.83,3.13,6,13,6.18,16,0Z"/><path class="cls-1" d="M810.59,166.61c-.33,2.14-1.3,4.15-1.66,6.31a72.65,72.65,0,0,0-.69,7.8c-.3,5.2-.66,10.4-.93,15.61a183.49,183.49,0,0,1-3.46,29.37c-1.89,8.77-4.79,17.24-9.59,24.87-4.47,7.09-10.71,12.49-17,17.87-3.12,2.64.21,8.43,4.07,7C799,269.1,808.91,249.24,813.21,232c2.59-10.36,3.53-21.12,4.07-31.75a163.74,163.74,0,0,0,0-16.58c-.13-2.65-.25-5.3-.6-7.92-.45-3.38-1.83-5.94-2.62-9.15-.41-1.66-3.23-1.87-3.51,0Z"/><path class="cls-1" d="M.32,278.19C12.51,301.82,34.38,314.91,59,322.91c26.5,8.59,54.69,10.85,82.37,11.9,67.45,2.56,134.52-5.77,201.45-12.91,66.5-7.1,134.13-14.79,201.07-10,33.75,2.42,66.91,8.89,100.26,14.34,33.1,5.42,67,10.22,100.55,6.59,49.84-5.41,104.44-29.7,126.24-77.77a74.84,74.84,0,0,0,5.86-18.68c.71-4.14-.83-8.3-5-9.93-3.53-1.38-8.86-.36-10.51,3.56-4.36,10.35-9.46,20.83-16.61,29.57a120.75,120.75,0,0,1-24.37,22.5C800.3,296,777.9,304,753.71,307.76c-28.52,4.45-60.72,1.51-90-2.73-33.3-4.82-66.29-11.42-99.9-14-65.53-4.94-130.9,1.22-195.85,9.72-64.55,8.45-129.13,18.22-194.33,19.75-52.6,1.24-112,.8-155.36-33.42A105.64,105.64,0,0,1,4.78,274.74c-2.22-2.49-5.88.7-4.46,3.45Z"/></g></g></svg>