<svg xmlns="http://www.w3.org/2000/svg" viewBox="0 0 864.14 285.48"><defs><style>.cls-1{fill:#fff;}</style></defs><title>ohhellos</title><g id="Layer_2" data-name="Layer 2"><g id="Layer_3" data-name="Layer 3"><path class="cls-1" d="M23.35,35.82c6.52-8.68,17.94-6.71,27.48-6.35,11,.42,22,.51,33-.79,17.77-2.09,35.62-8.92,48.54-21.61,3.85-3.78-2.06-9.59-6-5.88-15.26,14.47-36.76,17.76-57,18.4-10.67.34-21.8-.6-32.39.82-7.78,1-16.71,5-18.53,13.39-.69,3.15,3.15,4.39,4.93,2Z"/><path class="cls-1" d="M76.69,30.19c-.31,7.15,2.33,14.93,3.5,22a138,138,0,0,1,2,22.4c0,13-1.67,25.85-7.06,37.72-4.51,10-11.23,19-20.94,24.3-8.92,4.89-25.53,7.65-27-6.46-.5-4.81-7.69-6.64-9-1.21-3.92,16.56,12.43,26.28,27,23.88s27-13.13,35.28-24.89C89.4,115.27,93.75,99.51,94,84.15c.16-9.35-1.17-18.74-2.67-27.95-.77-4.74-1.68-9.46-2.78-14.13s-1.89-9.69-4.16-13.92c-2-3.74-7.53-1.89-7.7,2Z"/><path class="cls-1" d="M68.67,160.72c15.09,0,29.86-10.11,40.25-20.37,11.26-11.12,19.72-24.12,26.87-38.13,7.52-14.73,13.64-30.38,16.83-46.65,2-10.51,6.4-33.6-8-37.83-3.63-1.07-6.83,3.19-4.92,6.41,1.34,2.25,3,4,3.78,6.57A24.11,24.11,0,0,1,144,39a108.87,108.87,0,0,1-4.06,20.51C136,73.64,130,87.17,123.45,100.25c-6,12-12.34,24.48-21.78,34.12a74.81,74.81,0,0,1-16,12.44c-5.92,3.42-12.29,5.87-18.23,9.24a2.52,2.52,0,0,0,1.24,4.67Z"/><path class="cls-1" d="M148.07,25.6c1.53-5.43-5.33-9.31-9.63-10.44a26.81,26.81,0,0,0-16.28,1c-13.68,5.3-17.43,18.77-18.09,32.22a409.86,409.86,0,0,0,.73,50.91c1.17,15.81,6,33.52,1.29,49-3.13,10.26,12.89,14.51,16.06,4.3,4.49-14.49,1.63-29.18-.32-43.83a409.28,409.28,0,0,1-3.4-45.07,207.31,207.31,0,0,1,.16-20.86c.41-5.25,1.68-10.66,6.28-13.75,3.84-2.58,8.5-3,12.94-2.22,2.6.43,9.12,2.78,10.26-1.26Z"/><path class="cls-1" d="M120.53,146c4-1.32,5.87-4.87,8.07-8.26a64,64,0,0,1,9-11.62c4.21-4.06,15.57-11.75,19.31-3.1,4,9.18-4.5,17.54-6,26.07a10,10,0,0,0,7,11.42c5.29,1.54,8.36-1.19,13.16-2.65,7-2.12,6.32-14.38-1.68-13.41a27.58,27.58,0,0,0-4.78.89l-1.46.59q-3.78.72,1.56,1.9l1,3.78c0-2.23,2.09-5.39,2.91-7.46a56.2,56.2,0,0,0,2.45-7.36,31.89,31.89,0,0,0,.34-14.73c-2.21-9.46-10.08-16.76-20.05-16.67-9.7.08-18.46,6.51-24.51,13.6-4.85,5.68-14.51,18.43-8.68,26.05a2.14,2.14,0,0,0,2.31,1Z"/><path class="cls-1" d="M168.08,154.37c7.6-.65,13.57-5.36,19.3-10.09a90.29,90.29,0,0,0,16.14-17c4.19-5.86,8.2-13,8.75-20.32.52-6.8-3.2-13.52-10.31-14.71-16.14-2.72-25.57,21-26.35,33.44-.93,14.61,8.24,30.27,23.21,33.4,9,1.9,18.67-.82,26.13-6.07,7.91-5.56,12.87-12.65,17.24-21.12,2.75-5.32-4.57-11.74-8.79-6.67-7.68,9.22-18.19,24-32.06,21.34C187,143.81,185.52,125.82,190.52,115c.95-2.06,7.93-14.11,10-9.88,1,2.05-1.48,6.66-2.33,8.44a57.15,57.15,0,0,1-4.67,8,80.92,80.92,0,0,1-14,14.92c-5,4.29-10.65,8-13.65,14-.81,1.61.17,4.11,2.26,3.93Z"/><path class="cls-1" d="M348,68.52c2.51-4.23,3.54-10.48,3.94-15.36A28.45,28.45,0,0,0,348,37.27c-5.49-9.37-17.48-18-28.55-13.19-4.76,2-2.05,9.08,2.44,9.21s7.63.47,11.28,3.31a30.32,30.32,0,0,1,7.08,8.57,58.4,58.4,0,0,1,4.55,10.33c1.58,4.25.71,7.89.37,12.27-.11,1.55,2.08,2,2.81.75Z"/><path class="cls-1" d="M324.72,27.15c-3.82-7.09-14.06-2.37-18.7,1.07-6.2,4.61-11,11.31-15.09,17.79-8.81,13.92-13.67,30-15.49,46.31-1.74,15.7-.4,33.94,7.08,48.15,7.28,13.82,28.71,23.35,42.75,14.52a2.83,2.83,0,0,0-1.39-5.24c-6.83-.41-14.38-4-20.32-7.23A21.49,21.49,0,0,1,292.38,129a96.67,96.67,0,0,1-3.68-38.14A93.58,93.58,0,0,1,300.26,55a68.42,68.42,0,0,1,10.82-15.24,27.36,27.36,0,0,1,7.72-5.57c2.27-1.11,4.5-2.21,5.93-4.34a2.67,2.67,0,0,0,0-2.68Z"/><path class="cls-1" d="M355.78,27c-.2,6.23,2.39,12.86,3.12,19.11a102,102,0,0,1,.65,19.53c-1,13.6-4.39,26.54-9.14,39.28-3.94,10.56-9.58,22.45-17.28,30.79a37.49,37.49,0,0,1-13.84,9.5c-2.65,1-5.4,1.71-8.05,2.7-4.12,1.54-5.75,3-10.58,2.19-1.2-.2-2.19,1.56-.88,2.15,6,2.68,11.22,5.91,18,5.37,6.93-.56,13.83-3.55,19.56-7.42,12.41-8.38,20.23-20,25.18-33.93A124.94,124.94,0,0,0,369.2,71a190.61,190.61,0,0,0-2-22.39c-1.07-7.09-2.12-17-6.3-23A2.76,2.76,0,0,0,355.78,27Z"/><path class="cls-1" d="M360,159.87c11.24,1.3,20.84-11.12,27-19a128,128,0,0,0,17.64-31.09c9.34-23.22,15.49-52.18,6-76.22-.95-2.4-4.54-1.61-4,1,4.85,22.42-.06,48.22-7.54,69.59A117.21,117.21,0,0,1,384.46,133a96.78,96.78,0,0,1-10.6,12.62c-4.12,4.14-8.4,8.82-14.37,10-2.61.49-1.72,4,.53,4.26Z"/><path class="cls-1" d="M402.46,29.05c-8.35-1.35-11.67,11.71-13.37,17.67C385.72,58.51,385,71,385,83.24c0,12.39,1,24.76,2.11,37.09q.9,10.15,2,20.28c.57,5.62-.05,12.76,3.86,17.17a3.78,3.78,0,0,0,5.89-.82c2.36-4.38.72-9.6.17-14.37q-1-8.68-1.91-17.38c-1.14-10.87-2.24-21.75-2.76-32.67A196.67,196.67,0,0,1,395,61.27c.64-5.71,1.59-11.36,2.5-17,.69-4.28.85-12.06,5-14.76.16-.1.16-.39-.05-.43Z"/><path class="cls-1" d="M397.83,143.4c5-7.86,8.33-17.13,14.69-24,2.7-2.95,9.21-9.1,12.62-4.12,3.11,4.52.23,12.1-.56,16.94-1.46,9-.16,20.23,8.11,25.86s18.26-3,22.34-10c1.93-3.32-1.95-7-5.21-5.19-2.58,1.43-5,2.87-7.46,4.49s-3.42,3.26-5.19.67c-3.64-5.37-3.41-10.65-2.39-16.82,1.47-8.9,2.69-21.33-7.27-25.93-8.79-4.06-17.75,3.62-22.73,10.16a48.64,48.64,0,0,0-9.58,27.27,1.42,1.42,0,0,0,2.63.71Z"/><path class="cls-1" d="M503.11,157.91c5.39,1.36,10.16-4.06,13.14-7.88,3.86-4.95,6.3-10.68,8.48-16.51a132.41,132.41,0,0,0,8.36-41.58,117.27,117.27,0,0,0-5.78-41.58C523.47,39,518,22.74,505.92,18c-3.27-1.28-6.53,3.19-4.61,6,3.15,4.64,6.94,8.73,9.77,13.61a81.38,81.38,0,0,1,7.38,16.7,109.59,109.59,0,0,1,4.6,36.71,135,135,0,0,1-6.47,36A83.17,83.17,0,0,1,510,142.6c-2.35,4.16-7.53,7.58-8.72,12.15a2.63,2.63,0,0,0,1.83,3.16Z"/><path class="cls-1" d="M551.05,30.43c3.48,3.78,4.91,9.33,6.32,14.17a142.43,142.43,0,0,1,4,17c2,12.16.9,24.14-2,36-2.78,11.26-5.91,22.54-11.89,32.58a74.76,74.76,0,0,1-9.89,13.11c-3.4,3.6-8.47,6.79-10.54,11.37-1.42,3.15.94,6,4.27,5.57,5.86-.82,10.94-6.71,14.73-10.87a87.94,87.94,0,0,0,10.45-14c7.13-11.89,11.31-25.88,14.63-39.27A98.08,98.08,0,0,0,572.25,55c-1.94-10.9-5-27.91-16.92-32.07-4.46-1.55-7.07,4.44-4.28,7.48Z"/><path class="cls-1" d="M441.44,84.42c1.52-3.78,5.68-5.42,9.09-7.07,4.5-2.17,9.18-4.48,14.23-4.91,9.49-.81,19.31,4.43,27.69,8.27s15.3,9.35,22.83,14.35c8.22,5.46,18.06,8.37,27.57,10.66,18.69,4.49,37.53,6.56,56.18.92,14.79-4.47,28.49-13.82,33-29.23.13-.41-.42-.56-.64-.27-5.34,7.19-12.46,12-20.5,15.8-8.46,4.06-18.31,3.94-27.46,3.34a277.1,277.1,0,0,1-29.29-3.43c-9.58-1.67-20.2-3.39-29.1-7.43-4.49-2-8.5-5-12.82-7.33a128.75,128.75,0,0,0-12.62-5.55C491,69,482.34,64.43,473.07,62.87s-17.55,1.22-25.5,5.8c-5.89,3.39-12.73,7.29-13.15,14.81-.25,4.39,5.63,4.42,7,.94Z"/><path class="cls-1" d="M628.5,71.91c-7.8-2.53-14.61-3.81-22.69-1.92-6.66,1.55-13.54,5.1-18.09,10.28-5,5.7-7.22,12.78-8.21,20.16-1.06,8-1.86,16.23-.42,24.2,2.47,13.76,14.08,28.58,28,32.06,15,3.74,30.69-8.94,35.74-22.44,1.73-4.64-4.38-6.57-7.37-4.22-7.93,6.2-14.55,20-26.91,15.28-10.32-3.9-17.31-15.91-18-26.44-.74-10.85-.51-23.56,6.55-32.37,7.4-9.24,19.77-13.64,31.35-14.36a.12.12,0,0,0,0-.23Z"/><path class="cls-1" d="M635.5,139.36c8.1-2.14,13.55-13.85,17.4-20.55a187.34,187.34,0,0,0,12.59-26.88,205.38,205.38,0,0,0,8.6-28.73c1.81-8.18,5.18-20,1.3-28A13.11,13.11,0,0,0,668,28.72c-4.48-1.51-6,.2-8.83,3.6a51.52,51.52,0,0,0-10.78,23.87c-1.9,10.2-2.48,20.84-2.81,31.19-.33,10.62-.66,21.3.12,31.91.82,11.21,2.8,22.54,7.59,32.79,3.71,7.92,14.39,15.45,21.7,6.8,3.22-3.81-.77-8.64-5.18-6.71-7.65,3.35-11.28-20.45-11.86-24.47-1.55-10.8-1.23-21.83-.88-32.69.36-11,.69-22.06,1.71-33,.89-9.57.86-21.26,7.93-28.59l-3.09.84c5.67.87,3.44,10,2.68,13.58-1,4.47-1.79,9-2.82,13.42a205.93,205.93,0,0,1-8.28,27.05,233.43,233.43,0,0,1-11.58,25.22c-2.14,4-4.56,7.93-6.7,12-2,3.7-4.52,7.33-4.23,11.67a2.31,2.31,0,0,0,2.86,2.22Z"/><path class="cls-1" d="M671.53,161.43c9.1-4.48,16.5-13.63,22.6-21.52a174.93,174.93,0,0,0,17-26.74C720.59,94.94,729.52,73.63,731,53c.43-5.92-2.09-14.91-8.11-17.51-7.73-3.35-14.87,3.48-18.7,9.37C691.88,63.74,691.25,88.19,692.12,110c.47,12,1.46,26.62,7.63,37.29,2.48,4.29,6.38,7.88,11.48,8.39,4.75.47,9.73-1.66,11.71-6.19,2.61-5.93-5.82-11.11-9-5.11-1.19,2.28-3.7-1.69-4.25-2.86-1.86-4-2.74-8.72-3.49-13-1.54-8.89-1.67-18.09-2.14-27.09-.89-17.06-.44-34.59,5.38-50.83,1.32-3.66,3-7.68,5.85-10.48,2.25-2.26,6.67-2.31,8.21.87.84,1.75.22,4.21-.18,6-1.64,7.23-4.19,14.3-6.23,21.43-4.51,15.75-9.85,31.05-17.62,45.52a156.61,156.61,0,0,1-15,23.17c-5.45,6.91-12.18,12.94-17.14,20.17-1.85,2.68,1.69,5.36,4.17,4.15Z"/><path class="cls-1" d="M717.29,149.78c8.07-10.35,12.35-23,21.08-33a41.48,41.48,0,0,1,14.31-10.88c4-1.78,11.91-4.61,14.89.23l6.07-6.11c-7.12-4.72-16.38-4.7-24.1-1.42-8.67,3.67-14.16,11.32-17.68,19.8s-6.5,18.72-3.85,27.83c2.42,8.29,9.64,13.77,18,15,19.47,2.8,30.6-16.33,32.26-33.12.7-7.12,2-19.19-5.11-23.79-6.09-4-17-1.27-22.1,3.3-8,7.22-2.24,18.2,7,20.19,9.68,2.08,22.94-2,27.09-11.63,1.81-4.2-2.26-9.78-6.9-6.86-5.28,3.33-11.17,8.83-18,7.6-4.14-.74-1.91-3.91.73-5.47a19.85,19.85,0,0,1,5.18-2.18c2.94-.75,4-.84,5.57,1.85,2.2,3.75,1,9.21.33,13.42a46,46,0,0,1-3,11.28c-2.64,6.1-7.29,11.68-13.73,13.87-5,1.69-11.11,1-14.67-3.2-4.42-5.24-1.93-13.62-.11-19.42,3.55-11.29,15-27.95,28.64-19.27,3.7,2.35,8.45-2.42,6.07-6.1-9-14-28.24-6.06-38.12,2.3-12.78,10.82-20.75,28.72-21.08,45.32,0,.57.81,1,1.2.5Z"/><path class="cls-1" d="M781.29,116.07c9.53.73,15.73-11.67,17.72-19.48a33.73,33.73,0,0,0-6.75-30c-4.21-5-12,1.46-8.91,6.89,3.75,6.7,6.08,14,4.43,21.68-1.48,6.9-7.27,11.46-8.63,18.16a2.27,2.27,0,0,0,2.14,2.8Z"/><path class="cls-1" d="M804.48,95.52c6.81,4.3,12.32,12.13,15.71,19.37,4.31,9.25,5.7,21.17.29,30.44-4,6.79-14.59,6.71-18.21-.38-4.14-8.11-4.39-18.87-5.25-27.76-.71-7.46-11.57-7.82-11.83-.06a77.25,77.25,0,0,0,2.47,21.34c1.51,6.16,3.51,12.8,8.19,17.35,8.32,8.09,21,6.65,27.75-2.37,7.25-9.68,7.39-26.31,5.21-37.65-2.34-12.15-11.65-20.09-23.4-22.54a1.24,1.24,0,0,0-.93,2.26Z"/><path class="cls-1" d="M808.55,155.73c-.57,6.47,12.49,3,15,1.86,7.16-3.22,12.67-9.62,17.35-15.7a80.78,80.78,0,0,0,12-21c2.79-7.47,5.25-16.43,2.09-24-1.17-2.81-5.57-1.81-6.23.82-1.62,6.5-1.08,13-3.41,19.45a73.4,73.4,0,0,1-10.89,19.2c-4,5.29-8.52,10.37-14.47,13.51-2.35,1.24-11.16,2.43-11.46,5.91Z"/><path class="cls-1" d="M29.12,258.67c10.05-6.85,13.29-21.27,15.3-32.47,1.34-7.44,2.38-14.95,3.39-22.44,1.06-7.91,2.73-16.09,1.72-24.06-.41-3.23-5-2.55-5.79,0-2.14,6.42-2.12,13.46-2.73,20.16-.71,7.73-1.54,15.44-2.76,23.11a101.82,101.82,0,0,1-3.81,16.64c-2,6-5.24,10.67-8.45,16-1.13,1.87,1.23,4.41,3.13,3.11Z"/><path class="cls-1" d="M45,179c-1,4.59-.45,9.51-.46,14.2,0,5.11,0,10.22-.19,15.33-.24,9-1.23,18.17.94,27,1.79,7.31,6.2,16.13,13.7,19,8.77,3.32,13.72-3.57,14.75-11.32.59-4.45-6.24-5.83-8.16-2.19-1.18,2.23-1.56,4.27-4,2.38s-3.89-4.72-5-7.39c-2.26-5.71-2.47-12.07-2.67-18.13-.2-6.29-.39-12.58-.75-18.87s0-13.91-2.14-20c-.95-2.75-5.37-3.33-6.09,0Z"/><path class="cls-1" d="M75.26,177.88c-2.51,3.78-1.34,9.4-1.27,13.76.1,6,0,12-.23,17.91a71.66,71.66,0,0,1-8.21,29.93c-2.44,4.78,4.29,10.77,7.94,6,7.33-9.51,7.84-21,8.23-32.5a164,164,0,0,0-.48-19.45c-.43-4.91-.17-12.39-4-16a1.28,1.28,0,0,0-2,.28Z"/><path class="cls-1" d="M106.53,219.14c-2.32-4.37-5.47-6.73-10.72-5.07C90,215.9,87.13,222,85,227.17c-2.52,6.13-4.57,13.18-2.6,19.77a17.63,17.63,0,0,0,13.49,12c16.12,3,22.32-14.43,21-27.38-.6-6.12-2.8-13.45-8.44-16.8-5-3-12.06-1.48-14.65,4-1.08,2.26-.8,5.87,1.91,7l1.05.44c2,.84,4.38.92,6-.83l.58-.62c1.41-1.52,1.8-4.53,0-6l-1.45-1.13.86,6.2c.74-1.69,3.14,4,3.39,4.91a26.22,26.22,0,0,1,.54,10.29c-.75,5.88-5.49,13.79-12.16,8.38-5-4-3.21-11.78-1.64-17,.91-3.07,1.94-6.55,4.27-8.88,1.75-1.74,6.41-4.25,8.75-1.9a.41.41,0,0,0,.64-.49Z"/><path class="cls-1" d="M91.73,222.86c-2.54,7,5.47,11.87,11.57,10.83,7.89-1.35,15-7.58,18.15-14.78,1.54-3.59-2.37-6.77-5.46-4.14-2.56,2.19-15.64,14.69-17.85,8.11a3.34,3.34,0,0,0-6.41,0Z"/><path class="cls-1" d="M127.76,207.88c-.83.64-2.33.68-3.32,1a12.39,12.39,0,0,0-4.94,2.81,4.71,4.71,0,0,0-.72,5.55c1,1.58,3.25,2.91,5.17,2.17a9.82,9.82,0,0,0,5.21-4.66,12.22,12.22,0,0,0,.91-2.4,10.31,10.31,0,0,1,.58-2.28,1.84,1.84,0,0,0-2.89-2.19Z"/><path class="cls-1" d="M121.61,214.45c-2.13,6.87,4.94,13.32,11.43,13.38s14.75-7.51,10.69-14.3a3.29,3.29,0,0,0-5.13-.66c-1.78,1.84-3.09,4.89-5.88,5.27-3,.42-4.65-2.1-6-4.37a2.83,2.83,0,0,0-5.12.68Z"/><path class="cls-1" d="M139.38,218.17c-5.06.23-6.53,8.71-7.56,12.63a62.42,62.42,0,0,0-1.93,20.54c.34,4.33.4,10.94,6,11.42,5.08.44,11-4.5,12.89-8.93,1-2.31-1.31-5.62-3.9-3.87-1.59,1.08-3,2.39-4.53,3.51a26.27,26.27,0,0,1-2.7,1.84c-.42-.1-.52-1.58-.65-2.66a58.14,58.14,0,0,1,.23-15.92c.71-4.65,2.31-8.85,3.67-13.3.4-1.29,1-5.38-1.55-5.26Z"/><path class="cls-1" d="M142.78,257c10.82-2.37,15.13-18.58,17.15-27.69a327.13,327.13,0,0,0,7.31-46.76c.35-5-7.43-5.94-8.59-1.15-3.35,13.88-5,28.3-6.72,42.47a77.92,77.92,0,0,1-3.27,16,33.94,33.94,0,0,1-3.54,7.33c-1.48,2.3-3.57,4-5,6.37a2.36,2.36,0,0,0,2.62,3.42Z"/><path class="cls-1" d="M163.31,184.72c-3.31.83-3.66,4.53-4.42,7.45-1.3,5.05-2.52,10.1-3.39,15.25-1.61,9.51-3.14,19.1-2.48,28.77.47,6.83,1.26,19,8.64,22.11,8,3.35,13.23-4.27,14.85-11,.86-3.57-4.06-5.68-6-2.45-.7,1.18-1.55,3.16-2.78,3.92-2,1.24-1.86.36-2.62-1.72a41.81,41.81,0,0,1-2.08-10.79c-.55-6.79,0-13.7.68-20.46.68-7,1.44-13.89,2-20.86.12-1.54,1.77-11.25-2.44-10.21Z"/><path class="cls-1" d="M173.57,246.92c5-2.87,8-9.31,10.53-14.26a135.45,135.45,0,0,0,7.66-18.48c4.35-12.8,7.8-26.73,6.48-40.33-.23-2.45-4-3.41-4.59-.61-2.75,12.81-4.1,25.83-7.82,38.44a191.15,191.15,0,0,1-6.7,18.57c-2.11,5.16-5.71,10.81-5.87,16.49a.21.21,0,0,0,.31.18Z"/><path class="cls-1" d="M194.31,179.45c1.66-.39,2-2,1.62-3.48-.66-2.82-3.67-3.87-6.29-3.32-3.83.8-5.68,4.69-7.06,7.93a97.65,97.65,0,0,0-5.07,15.09,146,146,0,0,0-4.06,30.87c-.16,5.36-.07,10.73.09,16.09.15,5.16-.42,11.3,1.35,16.19,1.32,3.61,6.76,4.23,7.86,0,1.81-6.91.09-15.32,0-22.44-.1-7.7,0-15.45.56-23.13a118.94,118.94,0,0,1,4-23.18c.78-2.81,1.46-7.73,3.51-9.93,1.86-2,2.09-.38,3.53-.72Z"/><path class="cls-1" d="M179.78,250.57c3.53-3.92,6.46-11.32,12.12-13,7.52-2.2,4.54,15.32,5.7,19.22a10.66,10.66,0,0,0,11.86,7.29c5.66-.91,9-5.47,10.26-10.75,1-4.08-4.36-6.09-6.62-2.72-1.79,2.69-6.23,6.67-6.67,1.09-.3-3.65,0-7-1-10.61-1.42-5.2-4.17-11.67-10.3-12.15-7.67-.61-22.12,14.11-15.46,21.6a.11.11,0,0,0,.14,0Z"/><path class="cls-1" d="M145.32,205.93c.44-2.27,10.77-.44,12.28-.14a103.53,103.53,0,0,1,11.81,3.44c7.31,2.39,14.47,4.93,22.11,6.05,14.65,2.13,31,.52,43.61-7.75,2.74-1.8,1.14-6.39-2.26-5.49-8.58,2.27-17.34,4.81-26.24,5.26a79.27,79.27,0,0,1-27.45-3.58c-8.17-2.49-16.23-5.4-24.87-5.56-5.08-.1-13.44.68-14,7.1-.24,2.85,4.45,3.5,5,.67Z"/><path class="cls-1" d="M285.77,175.09c-2.74,6.64-2.21,14.73-3.47,21.76a171.07,171.07,0,0,1-5.43,21.37,99.22,99.22,0,0,1-8.91,20,87.75,87.75,0,0,1-5.93,9.07c-2.47,3.28-4.84,5.86-5.11,10.13-.2,3.07,2.83,4.55,5.4,4.2,7.4-1,12.86-11.48,16.14-17.41a98.68,98.68,0,0,0,8.74-22.38,105.42,105.42,0,0,0,3.26-23.86c.24-7.21,1.09-16.23-2.22-22.86a1.43,1.43,0,0,0-2.47,0Z"/><path class="cls-1" d="M291.34,185.65c-1,4.2-2.23,7.35-2.73,11.76-.44,3.87-.65,7.73-.73,11.63a156.33,156.33,0,0,0,1.57,24.36c1.28,9.44,4.33,32.47,19.48,25,2.55-1.25,1.27-5.2-1.38-5.21-6.34,0-6.86-9-7.67-13.54-1.12-6.29-1.94-12.61-2.61-19-.62-5.82-1.45-11.6-2-17.43-.33-3.23-.74-6.46-1.06-9.7-.27-2.77-1.33-5.18-1.75-7.9-.09-.57-.95-.52-1.08,0Z"/><path class="cls-1" d="M295.56,240.3a12.24,12.24,0,0,0,3.68-5c.47-1.12,1-3.81,1.83-4.61,4.09-4.08,4.87,2.1,5.18,3.77,1.34,7.21,1.05,13.68-1.64,20.47-1.42,3.57,3.87,5,5.77,2.38,3.48-4.86,3.56-11.47,3-17.19-.45-4.85-.69-11-4.54-14.51-3-2.69-7.28-3.14-10.36-.32-4.37,4-2.63,9.34-4.13,14.29-.23.74.69,1.11,1.19.69Z"/><path class="cls-1" d="M310.48,242.58c2.68-2.71,3.57-6.52,5.93-9.48s7.84-6,9.82-1c3.1,7.81-2.84,17.17-5.5,24.16-1.45,3.78,4.25,6.88,6.82,3.9,7.14-8.3,13.32-29.51,2.33-37.3-11.61-8.24-25.45,7.09-22.9,18.79a2.1,2.1,0,0,0,3.5.93Z"/><path class="cls-1" d="M326.27,255.2c2.05-3.78,4.13-7.61,6.28-11.35,1.72-3,3.91-7.35,7.33-8.69,6.26-2.46,4,5.87,3.24,9.28-1,4.47-2.87,8.68-3.48,13.21-.29,2.13,2.23,4.26,4,2.3,5.1-5.64,13.5-30.71.24-32.23-5.74-.65-10.65,4.28-13.55,8.61-3.95,5.9-5.52,11.94-4.34,18.83a.15.15,0,0,0,.28,0Z"/><path class="cls-1" d="M272.77,243c5.15,7.93,18.26,3.48,21.88-3.53,1.71-3.3-2.85-7.29-5.46-4.13a12.23,12.23,0,0,1-6.52,4.27c-2.74.66-5.14-.08-7.87-.1a2.35,2.35,0,0,0-2,3.49Z"/><path class="cls-1" d="M344.91,259.12c2.24.73,3.06,2,5.61,2a15.72,15.72,0,0,0,6.8-1.91c4.42-2.2,7.61-5.91,10.12-10.08,3.33-5.54,6.74-18.58-4.31-17.73-8.58.65-10.9,13.39-9.21,20.07,2,8,11.2,12.63,18.45,8,2.93-1.85.2-6.57-2.69-4.66-5.17,3.39-10.94-.44-12.32-5.85a12.85,12.85,0,0,1,2.33-10.36c.57-.69,1.85-2.13,2.7-2.32l3.46,1.37c-.41.55-.81,1.1-1.21,1.67-2.71,3.86-4.36,8.15-7.75,11.59a19.08,19.08,0,0,1-6.34,4.31c-1.31.57-3.9,2.17-5.41,2.18a.87.87,0,0,0-.23,1.7Z"/><path class="cls-1" d="M369.73,257.62a1.12,1.12,0,0,0,0-2.24,1.12,1.12,0,0,0,0,2.24Z"/><path class="cls-1" d="M409.35,233.35c-2.48,3.65-4.68,7.35-6.79,11.22-1.82,3.34-4.8,7.15-5.06,11.07-.49,7.22,7.31,10.52,13.24,8.18,3.6-1.43,4.62-7.21,0-8.25-.94-.23-1.88-.43-2.83-.58-.53,1.68-.34,1.5.57-.56,1.14-1.83,2-3.91,3-5.83,2.05-4,3.82-7.95,5.48-12.1,1.85-4.66-5.16-6.8-7.65-3.15Z"/><path class="cls-1" d="M414.7,216.84l-.69.81,1-.74-.29.12-1,.78-.75,1a5.06,5.06,0,0,0-.63,2.34,4.79,4.79,0,0,0,3,4.4,4.65,4.65,0,0,0,4.69-.63,4.79,4.79,0,0,0,1.73-4.95l-.07-.27V222c.07-.35.16-.71.24-1.06a4.35,4.35,0,0,0-2-4.81,5,5,0,0,0-2.09-.56,4.21,4.21,0,0,0-3.06,1.27Z"/><path class="cls-1" d="M401.83,228.28c3-.86,6.18,1.4,6.81,4.42.5,2.4-.53,4.92.74,7.17a1.12,1.12,0,0,0,1.93,0c1.75-3.06-.33-7.61-2.46-10a6.27,6.27,0,0,0-7.18-1.94c-.21.1-.06.44.16.38Z"/><path class="cls-1" d="M405.47,228.74a7.79,7.79,0,0,0-2.31-1.82,9.63,9.63,0,0,0-3.31-.68c-2.38-.06-5.79,1.46-5.91,4.23-.14,2.94,2.78,2.81,4.6,1.69s4-2.93,6.4-2.48c.51.1,1-.54.53-.94Z"/><path class="cls-1" d="M440,225.32c-2.45,1.28-4,4.07-5.38,6.36a19.44,19.44,0,0,0-3.17,8.13c-.4,4,4.8,5.26,7.31,3,2.15-1.93,3.26-4.76,4.34-7.37s2.15-5.2,1.72-8.11c-.33-2.22-3.11-2.9-4.82-2Z"/><path class="cls-1" d="M437.57,237c-7.94-6.29-17.61,5.38-18.31,12.88-.32,3.52,1.09,7.89,4,10,4,2.89,10,2.18,14.39,1.05,3.32-.85,2-5.76-1.33-5.11-2.58.5-6.79,1.28-9.26,0-3.5-1.78-.89-4.9.55-7.5,2.23-4,4.54-7.14,9.08-8.24,1.27-.31,2-2.24.84-3.14Z"/><path class="cls-1" d="M412.21,261.81c2.15,1.58,5.44-.07,7.35-1.29a11.7,11.7,0,0,0,5.12-6.59c1-3-3.21-5.28-5.28-3-1.36,1.47-2.75,3-4.2,4.4s-3.44,2.33-3.89,4.33a2,2,0,0,0,.9,2.18Z"/><path class="cls-1" d="M464.18,243.65c6.36-4-2-12.57-7.39-12-7.82.84-16.16,10.66-15.71,18.39.43,7.49,6.3,12.81,13.86,10.15,8.34-2.94,9.68-12.61,10.18-20.23.22-3.37-4.47-3.54-5.49-.74-2,5.36-5,14.42-.85,19.49,3.31,4,10,3.18,11.16-2.18.69-3.1-3.91-5.39-5.4-2.22-.74,1.57-1.53-2.09-1.5-2.75a25.87,25.87,0,0,1,.75-4,59.53,59.53,0,0,0,1.33-7.6l-5.59,0c-.13,3.88-.09,8.37-2.22,11.78-1.83,2.93-10.3,6.62-10.12.19.1-3.52,4.79-7,7.18-9,1.86-1.62,7.3-6.39,7.14-.77a1.8,1.8,0,0,0,2.67,1.55Z"/><path class="cls-1" d="M439.08,261.18a8.47,8.47,0,0,0,4.24-1.08,5.15,5.15,0,0,0,3.2-4.19,2.79,2.79,0,0,0-2-2.67c-1.91-.54-3.71.57-5,1.86a14.53,14.53,0,0,0-1.16,1.33,5.88,5.88,0,0,0-1.12,2.25,2,2,0,0,0,1.9,2.5Z"/><path class="cls-1" d="M467.73,255.44c2.68-1.52,4.16-4.13,5.41-6.9.71-1.57,2.85-10,4.39-10L475,236.62c.91,4.21.27,9-.72,13.11-.75,3.1-2.47,5.86-1.87,9.06a1.74,1.74,0,0,0,2.53,1.06c3.29-2.09,3.95-6.66,4.61-10.29.83-4.58.57-9,.59-13.59a2.59,2.59,0,0,0-1.32-2.28c-3.91-1.76-6.55.8-8,4.44-2,5-5.18,11.87-3.19,17.28,0,0,.05.05.08,0Z"/><path class="cls-1" d="M480.14,247.15c1.38-3.35,5.79-6.93,8.95-3.29,2.67,3.07-1.92,8.22-1.89,11.8.07,8.44,10.91,7.6,13.73,1.25.75-1.71-.55-4.2-2.68-3.5a15.14,15.14,0,0,1-2.87,1.13c-1.56.09-.84-.35-.42-1.7a22.58,22.58,0,0,0,1.46-6.62,11.63,11.63,0,0,0-6-10.12c-7.55-3.95-16.68,3.35-13.33,11.46.63,1.53,2.61.74,3.07-.41Z"/><path class="cls-1" d="M375.87,233.33a26.41,26.41,0,0,1-.82,14.71c-1.53,4.17-4.87,7.28-6.37,11.36a1.84,1.84,0,0,0,2.22,2.25c10.71-3.38,12.72-20.68,10.57-29.78-.86-3.64-6.38-2.17-5.6,1.46Z"/><path class="cls-1" d="M383.45,241.28c.87-3.31,3.23-7.43,7.32-5.73a6.23,6.23,0,0,1,3.74,3.59c.64,1.67.61,2.68,2.13,3.78a2,2,0,0,0,2,0c3.16-1.75,1.91-6.15.48-8.72a11.25,11.25,0,0,0-8.29-6.12c-7.32-1.09-14.9,5.7-13.29,13.19.65,3,5.14,2.89,5.89,0Z"/><path class="cls-1" d="M500.9,187.94a36.65,36.65,0,0,1,24.41-4.63c7.65,1.4,12.65,7,19.68,9.65,13.81,5.2,30.15-2.17,37-14.78,1.16-2.13-1.38-5.21-3.61-3.6-6.2,4.48-12.06,9.62-19.77,11.16-8.71,1.74-14.61-3.1-22.22-6.17-13-5.21-25.34.23-35.56,8.29,0,0,0,.11.06.08Z"/><path class="cls-1" d="M547.63,196.52c-2,4.71-.74,10.13-.47,15.14a83.6,83.6,0,0,1-.46,14.92c-.65,5.21-1.8,10.42-2.94,15.55-.58,2.65-1,5.57-2.24,8-1,2-4.61,5.37-5.63,1.37a3.55,3.55,0,0,0-6.44-.86c-3.93,7,2.82,14.37,10.1,13.74,9.55-.83,13.09-10.43,14.9-18.42a104,104,0,0,0,3-25.22c-.16-7.39-.17-19.2-5.55-24.82-1.1-1.14-3.54-1-4.23.59Z"/><path class="cls-1" d="M578.49,225.4c-1.41-2.33-1.64-3.73-4.33-4.86a11.5,11.5,0,0,0-7.53-.24c-5.7,1.74-9.24,7.43-10.67,12.88-3.36,12.76,3.19,27.91,17.35,29.57,14.42,1.7,21.65-16.17,20.69-28.09-.46-5.69-2.82-11.82-8.1-14.68a12.3,12.3,0,0,0-14.84,2.82c-2.92,3.3,1.8,8.07,4.92,4.85,2.63-2.7,6.73-.29,8.48,2.22,2.08,3,2.51,7.11,2.24,10.67-.6,8-6.35,15.4-14.91,11.81-6.19-2.6-7.92-10.69-6.54-16.68,1.14-4.94,7-12.55,13.13-10.12.08,0,.15-.08.11-.15Z"/><path class="cls-1" d="M570.65,225c-1.74,6.06,3,11.88,8.42,14,6.62,2.53,16,.45,20.81-4.78,2.15-2.35.77-7-2.8-6.74-6.55.4-16.32,7.3-19.28-2.42a3.73,3.73,0,0,0-7.15,0Z"/><path class="cls-1" d="M604.76,223.83l-.15-.1a1.61,1.61,0,0,0-1.9.26c-3.82,3.1-4.7,8.21-5.24,12.84-.69,6.09-1.4,12.57.08,18.6,2.55,10.38,15.82,14.5,21.19,3.67a2,2,0,0,0-1.67-2.89c-2.85.08-7.22,2.08-9.68.3s-2.83-7.82-3-10.38a94.2,94.2,0,0,1,1-20.62,1.59,1.59,0,0,0-.41-1.53l-.18-.15Z"/><path class="cls-1" d="M618.59,227.88c-.13,5.74.73,11.33-1.1,16.93-1.58,4.85-4.82,7.87-8.75,10.89-4.47,3.43-2.37,12.3,4.16,10.15,15-5,17.35-25.86,13-38.89-1.31-3.9-7.21-3.44-7.3.92Z"/><path class="cls-1" d="M623.57,250.93c-5.17,1.92-2.67,9,1,11.13,4.16,2.46,10.52.71,10.51-4.76a2.67,2.67,0,0,0-3.31-2.57c-.36.08-.42.12-.16.12a6.83,6.83,0,0,0-1.27.12c-.41.09-.8.21-1.2.33-.82.24-.89.35-1.33.13.4.2-.26-.5-.09-.15a3.2,3.2,0,0,1-.29-.7,8.74,8.74,0,0,0-1.45-3,2.41,2.41,0,0,0-2.38-.64Z"/><path class="cls-1" d="M632.67,260.77c4.15-4.15,5.9-10,7.27-15.58,1.48-6.05,2.5-12.45,1.83-18.67-.53-4.89-7.31-5.07-7.72,0-.48,5.9-.49,11.78-1.63,17.61-1,5.13-2.87,10.08-3,15.32a2,2,0,0,0,3.3,1.36Z"/><path class="cls-1" d="M642.2,235.26c1.36-1.91,4.37-6.75,7-6.62,3.41.18,4,6.08,5.46,8.36a3,3,0,0,0,5.59-1.49c.54-6.22-4.42-13.81-11-14.25-6.05-.4-12.77,6.5-12.47,12.54a2.94,2.94,0,0,0,5.45,1.46Z"/><path class="cls-1" d="M707.79,195.62c16.89-4,22.41,17.12,20.2,29.49-1.21,6.78-5.27,11.88-9.56,17s-9.5,9.87-16.32,11.49c-1,.23-3.17,1-4.18.66-2.86-.95-1.71-2.56.3-4a19.91,19.91,0,0,1,8.34-3.07c6.06-1,12.33-.3,17.5,3.23,4.9,3.35,7.83,7.45,14.39,6.76,6-.63,10.54-4.68,14.34-9.09,2.86-3.31-1.64-7.87-4.88-4.81-2.73,2.58-5.81,6.17-9.58,7.05-4.66,1.09-7.22-2.41-10.83-4.59a27,27,0,0,0-15.45-3.66,25.25,25.25,0,0,0-14.17,5.57c-2.57,2-7.15,5.76-4.82,9.46,2.64,4.2,9.79,2.73,13.49,1.38,6.15-2.24,11.49-6.59,16.47-10.76,5.21-4.38,9.75-10,11.15-16.81,1.3-6.35.5-12.9-.71-19.2-2.29-11.92-13.52-26.16-26.55-18.29a1.16,1.16,0,0,0,.87,2.12Z"/><path class="cls-1" d="M714.59,190.63c-7.2.62-14.69,1-18.67,8-1.55,2.74,1.79,6.64,4.63,4.61,2.36-1.68,4.62-3.43,7.38-4.41s5.62-1.13,8.16-2.56,1.59-5.95-1.5-5.68Z"/><path class="cls-1" d="M756.52,194.4c-6.11-.38-8.45,11.16-9.48,15.4a69.75,69.75,0,0,0-1.2,25.51c.85,6.75,2.33,14.19,7.32,19.2,4.26,4.29,11.1,6.34,16.62,3.25,5.71-3.2,8.38-11,10.37-16.83a61.06,61.06,0,0,0,3.45-22.17c-.4-9.38-5.6-33.1-19.68-28.54-2.51.82-3.12,5.13,0,5.64,11.17,1.82,13.72,15.89,13.48,25.35a55.78,55.78,0,0,1-2.8,15.62c-1.29,4-3.64,12.85-8.19,14.43-5.57,1.94-9.47-4.35-10.8-8.67a62.22,62.22,0,0,1-2.42-16.71A91,91,0,0,1,754.49,207c.69-3.63,3.76-8.53,2.65-12.12a.67.67,0,0,0-.62-.49Z"/><path class="cls-1" d="M791.08,207.79c3-4.42,5.22-9.18,7.69-13.92,2.31-4.45,5.21-8.63,6.09-13.64a2.51,2.51,0,0,0-4.18-2.39c-4.31,3.7-6.31,9.2-8.48,14.33a55,55,0,0,0-4.33,14.77c-.23,1.87,2.36,2.1,3.21.85Z"/><path class="cls-1" d="M799.67,184.24c-3.44,6.76-5.49,14.37-7.47,21.66A78.5,78.5,0,0,0,789,228.33c.2,8.9,3.72,31.2,16.73,29,1.78-.29,2.45-2.54,1.66-4-2.53-4.54-5.3-8.71-7-13.69a48.68,48.68,0,0,1-2.23-17c.37-12.63,5.31-25,5-37.56-.05-1.79-2.63-2.7-3.52-.94Z"/><path class="cls-1" d="M835.31,189.12c-3.78-14.33-21.33-10.55-24.34,2.22-3.33,14.11,9.26,24.37,15.57,35.31,3.42,5.92,9,18.5,2.86,24.32-2.89,2.76-6.17,1.66-7.71-1.94-1.64-3.8-.28-7.83,1.38-11.38,6.5-14,13.76-28.76,11.61-44.68-.34-2.45-4.23-2.28-4.73,0-1.94,8.92-2.82,17.73-6,26.4-2.69,7.38-7.55,14-9.63,21.54-1.62,5.89-.76,12.52,3.91,16.86a11.92,11.92,0,0,0,15.19.61c12.45-8.93,4.09-29.69-2.72-39.47-4-5.69-9.27-10.94-11.75-17.53-1.36-3.63-1.84-8.15.35-11.57,3.75-5.87,8.73-1.84,12.48,1.34,1.52,1.29,4.07.09,3.51-2Z"/><path class="cls-1" d="M861.8,255.56c-13.78,23-48.35,23.32-72.1,24.76-25.46,1.55-51,1.52-76.5,1-32.47-.64-65.17-1.56-97.52-4.56-18.27-1.7-36.71.13-54.84,2.53-19.35,2.57-38.41,2.67-57.89,2.33-38.24-.68-76.51-.89-114.73-2.22-32-1.11-63.78-4.67-95.66-7.09-19.67-1.49-39.35-3.48-59.1-3.21-36.67.5-73.16,4.66-109.71,7.36-17.66,1.31-35.36,2.29-53.07,2.26-17,0-36,.36-51.28-8.19A37.33,37.33,0,0,1,3.49,254.09c-1.05-2.21-4.34-.3-3.28,1.9C14.83,286.48,58,283.06,86,282.25c37.09-1.07,74-5.53,111-8a524.16,524.16,0,0,1,72.21-.1c29.39,2.11,58.72,4.85,88.09,7.07,38.79,2.94,77.83,2.7,116.71,3.38,19.77.34,39.63,1.23,59.4.65,19.25-.56,38.2-4.47,57.44-5.41,15.33-.76,30.63.93,45.93,1.83q32,1.89,64.06,2.78c26.11.7,52.27.92,78.37-.21,11.53-.51,23.06-1.29,34.51-2.71,12.92-1.61,26.8-4,37.87-11.29A37.59,37.59,0,0,0,864,256.8a1.25,1.25,0,0,0-2.17-1.24Z"/></g></g></svg>