<?xml version="1.0" encoding="utf-8"?>
<!-- Generator: Adobe Illustrator 22.0.1, SVG Export Plug-In . SVG Version: 6.00 Build 0)  -->
<svg version="1.1" id="Layer_1" xmlns="http://www.w3.org/2000/svg" xmlns:xlink="http://www.w3.org/1999/xlink" x="0px" y="0px"
	 viewBox="0 0 648.4 300.8" style="enable-background:new 0 0 648.4 300.8;" xml:space="preserve">
<style type="text/css">
	.st0{enable-background:new    ;}
	.st1{fill:#B0C5F7;}
	.st2{fill:none;stroke:#B0C5F7;stroke-width:14;stroke-miterlimit:10;}
</style>
<title>warsawlogo</title>
<g id="Layer_2_1_">
	<g id="Layer_3">
		<g class="st0">
			<path class="st1" d="M27.6,133.3V63.2H10v-8.7h52.6v8.7H45v70.1H27.6z"/>
		</g>
		<g class="st0">
			<path class="st1" d="M71.3,133.3V54.5h17.6v26.3c0.4-2.9,1.3-5.1,2.7-6.6c1.5-1.4,3.5-2.2,6-2.2h8.8c4.8,0,8.9,1.7,12.3,5.2
				c3.4,3.4,5.2,7.5,5.2,12.3v43.8h-17.5V89.5c0-2.4-0.9-4.4-2.6-6.2c-1.7-1.7-3.8-2.6-6.3-2.6c-2.4,0-4.4,0.9-6.2,2.6
				c-1.7,1.7-2.6,3.8-2.6,6.2v43.8H71.3z"/>
		</g>
		<g class="st0">
			<path class="st1" d="M185.6,107h-35v8.7c0,2.4,0.9,4.5,2.6,6.2c1.7,1.8,3.8,2.6,6.2,2.6h8.8c5.8,0,8.7-2.9,8.7-8.8h8.7
				c-1.3,11.7-7.1,17.6-17.5,17.6h-17.6c-4.8,0-8.9-1.7-12.4-5.2c-3.5-3.4-5.2-7.6-5.2-12.4V89.5c0-4.8,1.7-8.9,5.2-12.3
				c3.5-3.4,7.6-5.2,12.4-5.2h17.6c4.8,0,8.9,1.7,12.3,5.2c3.4,3.4,5.2,7.5,5.2,12.3V107z M150.6,98.3h17.6v-8.8
				c0-2.4-0.9-4.4-2.6-6.2c-1.7-1.7-3.8-2.6-6.3-2.6c-2.4,0-4.4,0.9-6.2,2.6c-1.7,1.7-2.6,3.8-2.6,6.2V98.3z"/>
		</g>
		<g class="st0">
			<path class="st1" d="M212.6,54.5h17.6v70.1h8.7c2.5,0,4.5-0.9,6.3-2.6c1.7-1.8,2.6-3.8,2.6-6.2V54.5h17.5v70.1h8.8
				c2.4,0,4.4-0.9,6.2-2.6c1.7-1.8,2.6-3.8,2.6-6.2V54.5h17.6v48.9c0,8.2-2.9,15.2-8.8,21.1c-5.9,5.9-12.9,8.8-21.2,8.8h-22.6v-2.7
				c-3.4,1.8-7.5,2.7-12.4,2.7h-22.7V54.5z"/>
		</g>
		<g class="st0">
			<path class="st1" d="M344.4,98.3v-8.8c0-2.4-0.9-4.4-2.6-6.2c-1.7-1.7-3.8-2.6-6.3-2.6h-8.7c-5.2,0-8.1,2.9-8.7,8.7h-8.8
				c1.4-11.6,7.3-17.5,17.6-17.5h17.6c4.8,0,8.9,1.7,12.3,5.2c3.4,3.4,5.2,7.5,5.2,12.3v43.8h-17.5v-8.7c-0.7,5.8-3.6,8.7-8.8,8.7
				h-8.7c-4.8,0-8.9-1.7-12.4-5.2c-3.5-3.4-5.2-7.6-5.2-12.4c0-4.8,1.7-8.9,5.2-12.3c3.5-3.4,7.6-5.2,12.4-5.2H344.4z M344.4,107
				h-8.8c-2.4,0-4.4,0.9-6.2,2.6c-1.7,1.7-2.6,3.8-2.6,6.2c0,2.4,0.9,4.5,2.6,6.2c1.7,1.8,3.8,2.6,6.2,2.6c2.5,0,4.5-0.9,6.3-2.6
				c1.7-1.8,2.6-3.8,2.6-6.2V107z"/>
		</g>
		<g class="st0">
			<path class="st1" d="M390.7,133.3h-17.6V72h17.6v17.5c0.7-5.8,2.5-10.2,5.4-13.1c2.9-2.9,7-4.4,12.1-4.4h8.7v17.5h-17.6
				c-2.4,0-4.4,0.9-6.2,2.6c-1.7,1.7-2.6,3.8-2.6,6.3V133.3z"/>
		</g>
		<g class="st0">
			<path class="st1" d="M471.7,89.5H463c-0.8-5.8-3.5-8.7-8.3-8.7c-3.1,0-5.4,0.6-6.9,1.8c-1.5,1.2-2.3,3-2.3,5.4
				c0,2.5,4.2,6.1,12.7,10.6c6.9,3.7,10.9,6.8,12,9.3c1.1,2.5,1.6,5.1,1.6,7.9c0,4.8-1.7,9-5.2,12.4c-3.4,3.4-7.6,5.2-12.4,5.2h-8.7
				c-11.7,0-17.6-5.9-17.6-17.6h8.8c0.7,5.9,3.4,8.8,8.2,8.8c3.2,0,5.5-0.6,7-1.8c1.5-1.2,2.3-3.1,2.3-5.5c0-2.5-4.2-6-12.7-10.5
				c-6.9-3.7-11-6.8-12-9.3c-1.1-2.5-1.6-5.1-1.6-7.9c0-4.8,1.7-9,5.2-12.4c3.5-3.4,7.6-5.2,12.4-5.2h8.7
				C465.2,72,471,77.8,471.7,89.5z"/>
		</g>
		<g class="st0">
			<path class="st1" d="M515.9,98.3v-8.8c0-2.4-0.9-4.4-2.6-6.2c-1.7-1.7-3.8-2.6-6.3-2.6h-8.7c-5.2,0-8.1,2.9-8.7,8.7h-8.8
				C482.2,77.8,488,72,498.3,72h17.6c4.8,0,8.9,1.7,12.3,5.2c3.4,3.4,5.2,7.5,5.2,12.3v43.8h-17.5v-8.7c-0.7,5.8-3.6,8.7-8.8,8.7
				h-8.7c-4.8,0-8.9-1.7-12.4-5.2c-3.5-3.4-5.2-7.6-5.2-12.4c0-4.8,1.7-8.9,5.2-12.3c3.5-3.4,7.6-5.2,12.4-5.2H515.9z M515.9,107
				H507c-2.4,0-4.4,0.9-6.2,2.6c-1.7,1.7-2.6,3.8-2.6,6.2c0,2.4,0.9,4.5,2.6,6.2c1.7,1.8,3.8,2.6,6.2,2.6c2.5,0,4.5-0.9,6.3-2.6
				c1.7-1.8,2.6-3.8,2.6-6.2V107z"/>
		</g>
		<g class="st0">
			<path class="st1" d="M544.6,72h17.6v52.6h8.7c2.5,0,4.5-0.9,6.3-2.6c1.7-1.8,2.6-3.8,2.6-6.2V72h17.5v52.6h8.8
				c2.4,0,4.4-0.9,6.2-2.6c1.7-1.8,2.6-3.8,2.6-6.2V72h17.6v31.3c0,8.2-2.9,15.2-8.8,21.1c-5.9,5.9-12.9,8.8-21.2,8.8h-22.6v-2.7
				c-3.4,1.8-7.5,2.7-12.4,2.7h-22.7V72z"/>
		</g>
		<g class="st0">
			<path class="st1" d="M71.3,215.2c-0.7,11.7-6.5,17.6-17.5,17.6H36.3c-4.8,0-8.9-1.7-12.4-5.2c-3.5-3.4-5.2-7.6-5.2-12.4v-43.7
				c0-4.8,1.7-8.9,5.1-12.4c3.4-3.5,7.6-5.2,12.5-5.2h17.6c11,0,16.8,5.9,17.5,17.6h-8.7c-0.7-5.9-3.6-8.8-8.7-8.8H45
				c-2.4,0-4.4,0.9-6.2,2.6c-1.7,1.7-2.6,3.8-2.6,6.3v43.7c0,2.4,0.9,4.5,2.6,6.2c1.7,1.8,3.8,2.6,6.2,2.6h8.8
				c5.2,0,8.1-2.9,8.7-8.8H71.3z"/>
		</g>
		<g class="st0">
			<path class="st1" d="M98,171.5h17.6c4.8,0,8.9,1.7,12.3,5.2c3.4,3.4,5.2,7.5,5.2,12.3v26.3c0,4.8-1.7,8.9-5.2,12.4
				c-3.4,3.5-7.5,5.2-12.3,5.2H98c-4.8,0-8.9-1.7-12.4-5.2c-3.5-3.4-5.2-7.6-5.2-12.4v-26.3c0-4.8,1.7-8.9,5.2-12.3
				C89.1,173.2,93.2,171.5,98,171.5z M98,188.9v26.3c0,2.4,0.9,4.5,2.6,6.2c1.7,1.8,3.8,2.6,6.2,2.6c2.5,0,4.5-0.9,6.3-2.6
				c1.7-1.8,2.6-3.8,2.6-6.2v-26.3c0-2.4-0.9-4.4-2.6-6.2c-1.7-1.7-3.8-2.6-6.3-2.6c-2.4,0-4.4,0.9-6.2,2.6
				C98.8,184.5,98,186.6,98,188.9z"/>
		</g>
		<g class="st0">
			<path class="st1" d="M144.2,232.8v-61.3h17.6v8.7c0.4-2.9,1.3-5.1,2.7-6.6c1.5-1.4,3.5-2.2,6-2.2h8.8c4.8,0,8.9,1.7,12.3,5.2
				c3.4,3.4,5.2,7.5,5.2,12.3v43.8h-17.5v-43.8c0-2.4-0.9-4.4-2.6-6.2c-1.7-1.7-3.8-2.6-6.3-2.6c-2.4,0-4.4,0.9-6.2,2.6
				c-1.7,1.7-2.6,3.8-2.6,6.2v43.8H144.2z"/>
		</g>
		<g class="st0">
			<path class="st1" d="M258.3,188.9h-8.7c-0.7-5.8-3.6-8.7-8.8-8.7c-2.4,0-4.4,0.9-6.2,2.6c-1.7,1.7-2.6,3.8-2.6,6.2v26.3
				c0,2.4,0.9,4.5,2.6,6.2c1.7,1.8,3.8,2.6,6.2,2.6c5.2,0,8.1-2.9,8.8-8.8h8.7c-0.7,11.7-6.6,17.6-17.6,17.6H232
				c-4.8,0-8.9-1.7-12.4-5.2c-3.5-3.4-5.2-7.6-5.2-12.4v-26.3c0-4.8,1.7-8.9,5.2-12.3c3.5-3.4,7.6-5.2,12.4-5.2h8.7
				C251.8,171.5,257.6,177.3,258.3,188.9z"/>
		</g>
		<g class="st0">
			<path class="st1" d="M326.2,206.5h-35v8.7c0,2.4,0.9,4.5,2.6,6.2c1.7,1.8,3.8,2.6,6.2,2.6h8.8c5.8,0,8.7-2.9,8.7-8.8h8.7
				c-1.3,11.7-7.2,17.6-17.5,17.6h-17.6c-4.8,0-8.9-1.7-12.4-5.2c-3.5-3.4-5.2-7.6-5.2-12.4v-26.3c0-4.8,1.7-8.9,5.2-12.3
				c3.5-3.4,7.6-5.2,12.4-5.2h17.6c4.8,0,8.9,1.7,12.3,5.2c3.4,3.4,5.2,7.5,5.2,12.3V206.5z M291.2,197.8h17.6v-8.8
				c0-2.4-0.9-4.4-2.6-6.2c-1.7-1.7-3.8-2.6-6.3-2.6c-2.4,0-4.4,0.9-6.2,2.6c-1.7,1.7-2.6,3.8-2.6,6.2V197.8z"/>
		</g>
		<g class="st0">
			<path class="st1" d="M359.2,232.8h-17.6v-61.3h17.6v17.5c0.7-5.8,2.5-10.2,5.4-13.1c2.9-2.9,7-4.4,12.1-4.4h8.7v17.5h-17.6
				c-2.4,0-4.4,0.9-6.2,2.6c-1.7,1.7-2.6,3.8-2.6,6.3V232.8z"/>
		</g>
		<g class="st0">
			<path class="st1" d="M407.3,153.9h17.5v17.6h8.8v8.7h-8.8v35c0,2.9,0.9,5.1,2.8,6.6c1.9,1.5,3.6,2.3,5.2,2.3h0.8v8.7h-8.8
				c-4.8,0-8.9-1.7-12.3-5.2c-3.4-3.4-5.2-7.6-5.2-12.4v-35h-8.8v-8.7h8.8V153.9z"/>
		</g>
		<g class="st0">
			<path class="st1" d="M454.1,232.8v-78.9h17.6v35h17.6v-35h17.5v78.9h-17.5v-35h-17.6v35H454.1z"/>
		</g>
		<g class="st0">
			<path class="st1" d="M555.2,197.8v-8.8c0-2.4-0.9-4.4-2.6-6.2c-1.7-1.7-3.8-2.6-6.3-2.6h-8.7c-5.2,0-8.1,2.9-8.7,8.7h-8.8
				c1.4-11.6,7.3-17.5,17.6-17.5h17.6c4.8,0,8.9,1.7,12.3,5.2c3.4,3.4,5.2,7.5,5.2,12.3v43.8h-17.5v-8.7c-0.7,5.8-3.6,8.7-8.8,8.7
				h-8.7c-4.8,0-8.9-1.7-12.4-5.2c-3.5-3.4-5.2-7.6-5.2-12.4c0-4.8,1.7-8.9,5.2-12.3c3.5-3.4,7.6-5.2,12.4-5.2H555.2z M555.2,206.5
				h-8.8c-2.4,0-4.4,0.9-6.2,2.6c-1.7,1.7-2.6,3.8-2.6,6.2c0,2.4,0.9,4.5,2.6,6.2c1.7,1.8,3.8,2.6,6.2,2.6c2.5,0,4.5-0.9,6.3-2.6
				c1.7-1.8,2.6-3.8,2.6-6.2V206.5z"/>
		</g>
		<g class="st0">
			<path class="st1" d="M586,232.8v-78.9h17.6v78.9H586z"/>
		</g>
		<g class="st0">
			<path class="st1" d="M618.9,232.8v-78.9h17.6v78.9H618.9z"/>
		</g>
	</g>
</g>
<line class="st2" x1="15" y1="259" x2="636" y2="259"/>
</svg>
