<?xml version="1.0" encoding="utf-8"?>
<!-- Generator: Adobe Illustrator 22.0.1, SVG Export Plug-In . SVG Version: 6.00 Build 0)  -->
<svg version="1.1" id="Layer_1" xmlns="http://www.w3.org/2000/svg" xmlns:xlink="http://www.w3.org/1999/xlink" x="0px" y="0px"
	 viewBox="0 0 648.4 300.8" style="enable-background:new 0 0 648.4 300.8;" xml:space="preserve">
<style type="text/css">
	.st0{fill:#B0C5F7;}
	.st1{font-family:'Silom';}
	.st2{font-size:105.1462px;}
	.st3{letter-spacing:-4;}
	.st4{letter-spacing:-6;}
	.st5{letter-spacing:-8;}
	.st6{enable-background:new    ;}
	.st7{letter-spacing:-10;}
	.st8{letter-spacing:-2;}
	.st9{letter-spacing:2;}
	.st10{letter-spacing:-12;}
	.st11{letter-spacing:4;}
	.st12{fill:none;stroke:#B0C5F7;stroke-width:14;stroke-miterlimit:10;}
</style>
<title>warsawlogo</title>
<g id="Layer_2_1_">
	<g id="Layer_3">
		<text transform="matrix(1 0 0 1 9.9995 133.3276)" class="st0 st1 st2 st3">T</text>
		<text transform="matrix(1 0 0 1 62.5732 133.3276)" class="st0 st1 st2 st4">h</text>
		<text transform="matrix(1 0 0 1 124.2964 133.3276)" class="st0 st1 st2">e</text>
		<text transform="matrix(1 0 0 1 186.02 133.3276)" class="st0 st1 st2 st5"> </text>
		<text transform="matrix(1 0 0 1 203.895 133.3276)" class="st6"><tspan x="0" y="0" class="st0 st1 st2 st5">W</tspan><tspan x="96.7" y="0" class="st0 st1 st2 st7">a</tspan></text>
		<text transform="matrix(1 0 0 1 364.4561 133.3276)" class="st0 st1 st2 st3">r</text>
		<text transform="matrix(1 0 0 1 419.1318 133.3276)" class="st0 st1 st2 st7">s</text>
		<text transform="matrix(1 0 0 1 472.0273 133.3276)" class="st0 st1 st2 st5">a</text>
		<text transform="matrix(1 0 0 1 535.8535 133.3276)" class="st0 st1 st2">w</text>
		<text transform="matrix(1 0 0 1 9.9995 232.79)" class="st6"><tspan x="0" y="0" class="st0 st1 st2 st5">C</tspan><tspan x="61.7" y="0" class="st0 st1 st2 st4">o</tspan><tspan x="125.5" y="0" class="st0 st1 st2">n</tspan><tspan x="195.7" y="0" class="st0 st1 st2 st8">c</tspan><tspan x="254.9" y="0" class="st0 st1 st2 st9">e</tspan></text>
		<text transform="matrix(1 0 0 1 332.9121 232.79)" class="st0 st1 st2 st3">r</text>
		<text transform="matrix(1 0 0 1 389.6914 232.79)" class="st0 st1 st2">t</text>
		<text transform="matrix(1 0 0 1 389.6914 232.79)" class="st0 st1 st2 st8"> </text>
		<text transform="matrix(1 0 0 1 445.4189 232.79)" class="st0 st1 st2 st10">H</text>
		<text transform="matrix(1 0 0 1 511.3477 232.79)" class="st0 st1 st2 st7">a</text>
		<text transform="matrix(1 0 0 1 577.2783 232.79)" class="st0 st1 st2 st8">l</text>
		<text transform="matrix(1 0 0 1 610.1855 232.79)" class="st0 st1 st2 st11">l</text>
	</g>
</g>
<line class="st12" x1="15" y1="259" x2="636" y2="259"/>
</svg>
