<?xml version="1.0" encoding="utf-8"?>
<!-- Generator: Adobe Illustrator 22.0.1, SVG Export Plug-In . SVG Version: 6.00 Build 0)  -->
<svg version="1.1" id="Layer_1" xmlns="http://www.w3.org/2000/svg" xmlns:xlink="http://www.w3.org/1999/xlink" x="0px" y="0px"
	 viewBox="0 0 257 1264" style="enable-background:new 0 0 257 1264;" xml:space="preserve">
<style type="text/css">
	.st0{fill:none;stroke:#7F3C00;stroke-width:4;stroke-miterlimit:10;}
	.st1{fill:#7F3C00;}
	.st2{fill:none;}
</style>
<title>Asset 20</title>
<path class="st0" d="M157.9,1137.5c12.8,3.8,28.4,15.9,25.1,31.7s-22.3,33.8-22.5,36.8s-8.4,25.8-18.9,25.8s-23.5-8.4-17.9-23.5
	c5.6-15.1,10.5-9.2,15.6-14.8s11.8-12.3,6.4-23.5s-15.9-23.8-6.1-32.5S157.9,1137.5,157.9,1137.5z"/>
<path class="st0" d="M148.2,1104c5.9-0.7,7.9,7.9,6.9,13.3s-3.1,9.2-6.9,9.7s-8.2-2.6-8.2-11.5S144.1,1104.5,148.2,1104z"/>
<path class="st0" d="M165.1,1113.4c2.9,0.2,5.4,5.4,2.8,11.3s-5.4,4.9-6.4,4.9s-4.9-5.9-2.6-10.7S161.2,1113.2,165.1,1113.4z"/>
<path class="st0" d="M176.6,1121.6c6.4,1.1,2.6,10.2,1.5,11.5c-1,1.6-3.1,2.3-4.9,1.5c-2.6-0.8-2.6-5.9-1.5-8.7
	S173.5,1121.1,176.6,1121.6z"/>
<path class="st0" d="M184.3,1131.1c2,1.1,2.8,3.6,1.8,5.6c-1.3,2.6-3.1,5.1-5.4,4.1s-2.8-4.9-1-7.2S183,1130.3,184.3,1131.1z"/>
<path class="st0" d="M187.3,1140c2,0.2,2.8,4.1,1.5,5.9c-0.6,1.2-2,1.9-3.3,1.8c-1,0-2.1-2.6-1.5-4.3S185.3,1139.8,187.3,1140z"/>
<path class="st1" d="M95.4,1052.6c-13.2-1.7-32.4,3-35.8,18.9s6.7,39.9,5.7,42.8s-2.7,27,6.9,31.3s25,1.8,25.9-14.3
	s-5.9-12.7-8.3-19.9s-5.8-16,3.7-24.1s24.1-15.3,18.8-27.2S95.4,1052.6,95.4,1052.6z"/>
<path class="st1" d="M117.8,1025.9c-5.1-3.1-10.5,4-11.7,9.4s-0.9,9.7,2.4,11.7s8.5,1,12.2-7.2S121.4,1028,117.8,1025.9z"/>
<path class="st1" d="M98.6,1027.7c-2.7-1-7.1,2.7-7.1,9.2s3,6.6,3.9,7s6.8-3.4,6.7-8.8S102.2,1029,98.6,1027.7z"/>
<path class="st1" d="M84.7,1030.6c-6.3-1.6-6.5,8.3-6.1,9.9c0.3,1.9,1.9,3.3,3.8,3.4c2.7,0.3,4.7-4.3,4.9-7.3
	S87.8,1031.3,84.7,1030.6z"/>
<path class="st1" d="M73.9,1036.1c-2.3,0.2-4,2.1-3.9,4.4c0.1,2.8,0.7,5.9,3.3,5.9s4.5-3.3,3.8-6.1S75.4,1035.9,73.9,1036.1z"/>
<path class="st1" d="M67.4,1043.1c-2-0.6-4.2,2.6-3.8,4.8c0.1,1.4,1,2.6,2.3,3c0.9,0.4,2.9-1.5,3.2-3.4S69.4,1043.7,67.4,1043.1z"/>
<rect class="st2" width="257" height="1264"/>
</svg>
