<?xml version="1.0" encoding="utf-8"?>
<!-- Generator: Adobe Illustrator 22.0.1, SVG Export Plug-In . SVG Version: 6.00 Build 0)  -->
<svg version="1.1" id="Layer_1" xmlns="http://www.w3.org/2000/svg" xmlns:xlink="http://www.w3.org/1999/xlink" x="0px" y="0px"
	 viewBox="0 0 257 1264" style="enable-background:new 0 0 257 1264;" xml:space="preserve">
<style type="text/css">
	.st0{fill:#7F3C00;}
	.st1{fill:none;}
</style>
<title>Asset 21</title>
<path class="st0" d="M157.9,1137.5c12.8,3.8,28.4,15.9,25.1,31.7s-22.3,33.8-22.5,36.8s-8.4,25.8-18.9,25.8s-23.5-8.4-17.9-23.5
	c5.6-15.1,10.5-9.2,15.6-14.8s11.8-12.3,6.4-23.5s-15.9-23.8-6.1-32.5S157.9,1137.5,157.9,1137.5z"/>
<path class="st0" d="M148.2,1104c5.9-0.7,7.9,7.9,6.9,13.3s-3.1,9.2-6.9,9.7s-8.2-2.6-8.2-11.5S144.1,1104.5,148.2,1104z"/>
<path class="st0" d="M165.1,1113.4c2.9,0.2,5.4,5.4,2.8,11.3s-5.4,4.9-6.4,4.9s-4.9-5.9-2.6-10.7S161.2,1113.2,165.1,1113.4z"/>
<path class="st0" d="M176.6,1121.6c6.4,1.1,2.6,10.2,1.5,11.5c-1,1.6-3.1,2.3-4.9,1.5c-2.6-0.8-2.6-5.9-1.5-8.7
	S173.5,1121.1,176.6,1121.6z"/>
<path class="st0" d="M184.3,1131.1c2,1.1,2.8,3.6,1.8,5.6c-1.3,2.6-3.1,5.1-5.4,4.1s-2.8-4.9-1-7.2S183,1130.3,184.3,1131.1z"/>
<path class="st0" d="M187.3,1140c2,0.2,2.8,4.1,1.5,5.9c-0.6,1.2-2,1.9-3.3,1.8c-1,0-2.1-2.6-1.5-4.3S185.3,1139.8,187.3,1140z"/>
<rect class="st1" width="257" height="1264"/>
</svg>
