<?xml version="1.0" encoding="utf-8"?>
<!-- Generator: Adobe Illustrator 22.0.1, SVG Export Plug-In . SVG Version: 6.00 Build 0)  -->
<svg version="1.1" id="Layer_1" xmlns="http://www.w3.org/2000/svg" xmlns:xlink="http://www.w3.org/1999/xlink" x="0px" y="0px"
	 viewBox="0 0 885.8 680.9" style="enable-background:new 0 0 885.8 680.9;" xml:space="preserve">
<style type="text/css">
	.st0{fill:#4B6868;}
	.st1{fill:#EFC71B;}
</style>
<title>SURFSUP3</title>
<path class="st0" d="M433.2,189.1c133.1,0.4,346.9,14.9,441.6,118.6c0,0-134.5,108.7-437,111.1S20,349.9,18.8,305
	C17.6,262.3,175.6,188.4,433.2,189.1z"/>
<path class="st1" d="M434,194.4c124.9,0.3,325.5,14,414.4,111.3c0,0-126.2,102-410.1,104.3s-392-64.7-393.2-106.8
	C44.1,263,192.3,193.7,434,194.4z"/>
<path class="st0" d="M93.6,348.2c0,0,211.6-43.5,250.6-5.4c61.6,60.1,433.5,36.7,463.2-37.1c12.7-31.6-29.7-39-43.3-26.1
	c-15.6,14.8-16.1,33.7-1.4,14.9c7.5-9.5,22.2-11.4,26.9-4.1c5.9,9.2-6.5,20.7-18.6,29.3c-47,33.5-373.1,68-407.2,16.8
	C343.3,305.8,139.3,330,93.6,348.2z"/>
<path class="st0" d="M70.7,278.8c-3.3,5.5-10.4,18.4-4.3,19c6.2,0.6,19.2-0.7,19.2-0.7s4.7,29.1,0.8,34.1c-3.9,5,17.4-2.1,17.4-2.1
	s-0.5-33-1.4-36.7c-0.9-3.6,11.6-9.2,11.6-9.2l3.2-14.4L70.7,278.8z"/>
<path class="st0" d="M126.2,267.8c0,0-2.3,44,3.1,53.6c5.4,9.6,14.3,0,14.3,0l-3.1-53.6L126.2,267.8z"/>
<path class="st0" d="M156.5,323.2c0,0-9.4-58.6-5.1-60.6c4.2-2.1,19.2,11.7,17.1,16.5c-2.1,4.8,3.6,13.6,3.6,13.6l7-30.5
	c0,0,14.2,2.9,11.4,14.7c-2.8,11.8-4.2,37.5-4.2,37.5l-15.6,1.3l7.8-18l-9.9,5.5l-7.1-10.5l0.8,23L156.5,323.2z"/>
<path class="st0" d="M522.9,259c0,0,10.7,67,5.9,69.4c-4.9,2.4-22-13.4-19.5-18.9c2.4-5.5-4.1-15.6-4.1-15.6l-8,34.8
	c0,0-16.2-3.4-13-16.8s4.8-42.9,4.8-42.9l17.9-1.5l-8.9,20.6l11.3-6.3l8.2,12.1l-0.9-26.3L522.9,259z"/>
<path class="st0" d="M197.2,261.3c0,0,13.4,57.4,0.1,57.4c-1.7,0,1,2.6,13.3,0c12.3-2.6,20.5-8.7,20.5-8.7l0-16.7l-16.5,16.7
	l-3.1-16.7l9.6-7.9l-3.7-10.5l-9.3,5.9l-1.7-12.3l18.5-4.1l-1.9-6.7L197.2,261.3z"/>
<path class="st0" d="M319.1,275.8c2.8,8.5-6.7,35.9-20.9,22.8s-10.5-45.2-10.5-45.2C314.4,228.8,316.3,267.3,319.1,275.8z
	 M304.9,286.7c6.2,4.6,5.7-5.3,5.4-13.7s-12-16.1-14.6-12.3C295.7,260.7,298.7,282.1,304.9,286.7z"/>
<path class="st0" d="M472.3,306.5c3.2,9.7-7.7,41.1-23.9,26.1s-12-51.7-12-51.7C466.9,252.8,469.1,296.8,472.3,306.5z M456.1,319
	c7.1,5.3,6.6-6.1,6.1-15.7c-0.4-9.6-13.7-18.4-16.7-14.1C445.5,289.3,449,313.7,456.1,319z"/>
<path class="st0" d="M272.5,309.7c-11.9,3.9-13.2,1.4-13.2,1.4c13.2-1.4-6.5-57-6.5-57l25.3-6.2l2.7,6.4l-17.9,6l3,12.1l8.6-6.9
	l4.8,10l-8.7,8.8l4.9,16.3l1.9,9.7L272.5,309.7z"/>
<path class="st0" d="M318.4,245.3c0,0,10.2,45.5,7.8,52.1s14.1,1,14.1,1L329.9,244l-4.9,0.5L318.4,245.3z"/>
<path class="st0" d="M349.4,241.9c0.4,5.4,11.6,29.4-13.7,32.7l-8.1-0.9l-6.6-28.7L349.4,241.9z M333.2,264.8c0,0,4.9,1.7,6.4-0.7
	c1.6-2.4-0.2-12.6-0.2-12.6l-8.6,0.9L333.2,264.8z"/>
<path class="st0" d="M340.9,273.5c0,0,6.4,19.2,9.9,21.2c3.6,2,13.6,1,13.6,1l-9-10.7l-8.6-14.6L340.9,273.5z"/>
<g>
	<path class="st0" d="M572.3,274c-3.3,5.8-10.4,19.4-4,19.9s20-1.2,20-1.2s5.7,30.2,1.7,35.6c-4,5.3,18.1-2.6,18.1-2.6
		s-1.4-34.5-2.4-38.2c-1-3.8,11.9-9.9,11.9-9.9l3-15.1L572.3,274z"/>
	<path class="st0" d="M627.1,262.1c0,0-1.3,46,4.6,55.9c5.9,9.8,14.9-0.4,14.9-0.4l-4.6-55.9L627.1,262.1z"/>
	<path class="st0" d="M696.3,263.3c0,0,15.5,59.5,1.6,59.9c-2.2,0.1,1.1,2.7,13.9-0.4c12.8-3,21.2-9.6,21.2-9.6l-0.5-17.4
		l-16.8,17.9l-3.7-17.3l9.9-8.4l-4.1-10.8l-9.6,6.4l-2.1-12.8l19.2-4.7l-2.2-6.9L696.3,263.3z"/>
	<path class="st0" d="M547.9,303.2l22-0.6c0,0-5.5,9.3-2.5,12.9c3,3.6-23.1,0.6-23.1,0.6L547.9,303.2z"/>
	<path class="st0" d="M687.5,272.3c11.2,8.3-6.1,48.7-6.1,48.7s-33.7,6.3-28-2.4s0.9-58.6,0.9-58.6S676.2,264,687.5,272.3z
		 M663.8,308.5l10.4,0.6l6.2-22.5l-13.8-7L663.8,308.5z"/>
</g>
<path class="st0" d="M389.5,277.6c0,0,5.4,68.2,15.5,67.9c10.1-0.3,31.8-7.3,31.8-7.3l-3.4-14.8l-24.3,8.1l-5.4-54H389.5z"/>
</svg>
