<?xml version="1.0" encoding="utf-8"?>
<!-- Generator: Adobe Illustrator 22.0.1, SVG Export Plug-In . SVG Version: 6.00 Build 0)  -->
<svg version="1.1" id="Layer_1" xmlns="http://www.w3.org/2000/svg" xmlns:xlink="http://www.w3.org/1999/xlink" x="0px" y="0px"
	 viewBox="0 0 257 1264" style="enable-background:new 0 0 257 1264;" xml:space="preserve">
<style type="text/css">
	.st0{fill:#7F3C00;}
	.st1{fill:none;stroke:#7F3C00;stroke-width:4;stroke-miterlimit:10;}
	.st2{fill:none;}
</style>
<title>Asset 15</title>
<path class="st0" d="M167.9,409.5c12.8,3.8,28.4,15.9,25.1,31.7s-22.3,33.8-22.5,36.8s-8.5,25.8-18.9,25.8s-23.5-8.4-17.9-23.5
	c5.6-15.1,10.5-9.2,15.6-14.8s11.8-12.3,6.4-23.5s-15.9-23.8-6.1-32.5S167.9,409.5,167.9,409.5z"/>
<path class="st0" d="M158.2,376c5.9-0.7,7.9,7.9,6.9,13.3s-3.1,9.2-6.9,9.7s-8.2-2.6-8.2-11.6S154.1,376.5,158.2,376z"/>
<path class="st0" d="M175.1,385.4c2.9,0.2,5.4,5.4,2.8,11.3s-5.4,4.9-6.4,4.9s-4.9-5.9-2.6-10.7S171.2,385.2,175.1,385.4z"/>
<path class="st0" d="M186.6,393.6c6.4,1.1,2.6,10.2,1.5,11.5c-1,1.6-3.1,2.3-4.9,1.5c-2.6-0.8-2.6-5.9-1.5-8.7
	S183.5,393.1,186.6,393.6z"/>
<path class="st0" d="M194.3,403.1c2,1.1,2.8,3.6,1.8,5.6c-1.3,2.6-3.1,5.1-5.4,4.1s-2.8-4.9-1-7.2S193,402.3,194.3,403.1z"/>
<path class="st0" d="M197.3,412c2,0.2,2.8,4.1,1.5,5.9c-0.6,1.2-2,1.9-3.3,1.8c-1,0-2.1-2.6-1.5-4.4S195.3,411.8,197.3,412z"/>
<path class="st1" d="M162.9,657.5c12.8,3.8,28.4,15.9,25.1,31.7s-22.3,33.8-22.5,36.9s-8.5,25.8-18.9,25.8s-23.5-8.4-17.9-23.5
	c5.6-15.1,10.5-9.2,15.6-14.8s11.8-12.3,6.4-23.5s-15.9-23.8-6.1-32.5S162.9,657.5,162.9,657.5z"/>
<path class="st1" d="M153.2,624c5.9-0.7,7.9,7.9,6.9,13.3s-3.1,9.2-6.9,9.7s-8.2-2.6-8.2-11.6S149.1,624.5,153.2,624z"/>
<path class="st1" d="M170.1,633.4c2.9,0.2,5.4,5.4,2.8,11.3s-5.4,4.9-6.4,4.9s-4.9-5.9-2.6-10.7S166.2,633.2,170.1,633.4z"/>
<path class="st1" d="M181.6,641.6c6.4,1.1,2.6,10.2,1.5,11.5c-1,1.6-3.1,2.3-4.9,1.5c-2.6-0.8-2.6-5.9-1.5-8.7
	S178.5,641.1,181.6,641.6z"/>
<path class="st1" d="M189.3,651.1c2,1.1,2.8,3.6,1.8,5.6c-1.3,2.6-3.1,5.1-5.4,4.1s-2.8-4.9-1-7.2S188,650.3,189.3,651.1z"/>
<path class="st1" d="M192.3,660c2,0.2,2.8,4.1,1.5,5.9c-0.6,1.2-2,1.9-3.3,1.8c-1,0-2.1-2.6-1.5-4.3S190.3,659.8,192.3,660z"/>
<path class="st1" d="M165.9,897.5c12.8,3.8,28.4,15.9,25.1,31.7s-22.3,33.8-22.5,36.9s-8.5,25.8-18.9,25.8s-23.5-8.4-17.9-23.5
	c5.6-15.1,10.5-9.2,15.6-14.8s11.8-12.3,6.4-23.5s-15.9-23.8-6.1-32.5S165.9,897.5,165.9,897.5z"/>
<path class="st1" d="M156.2,864c5.9-0.7,7.9,7.9,6.9,13.3s-3.1,9.2-6.9,9.7s-8.2-2.6-8.2-11.6S152.1,864.5,156.2,864z"/>
<path class="st1" d="M173.1,873.4c2.9,0.2,5.4,5.4,2.8,11.3s-5.4,4.9-6.4,4.9s-4.9-5.9-2.6-10.7S169.2,873.2,173.1,873.4z"/>
<path class="st1" d="M184.6,881.6c6.4,1.1,2.6,10.2,1.5,11.5c-1,1.6-3.1,2.3-4.9,1.5c-2.6-0.8-2.6-5.9-1.5-8.7
	S181.5,881.1,184.6,881.6z"/>
<path class="st1" d="M192.3,891.1c2,1.1,2.8,3.6,1.8,5.6c-1.3,2.6-3.1,5.1-5.4,4.1s-2.8-4.9-1-7.2S191,890.3,192.3,891.1z"/>
<path class="st1" d="M195.3,900c2,0.2,2.8,4.1,1.5,5.9c-0.6,1.2-2,1.9-3.3,1.8c-1,0-2.1-2.6-1.5-4.3S193.3,899.8,195.3,900z"/>
<path class="st1" d="M157.9,1137.5c12.8,3.8,28.4,15.9,25.1,31.7s-22.3,33.8-22.5,36.8s-8.4,25.8-18.9,25.8s-23.5-8.4-17.9-23.5
	c5.6-15.1,10.5-9.2,15.6-14.8s11.8-12.3,6.4-23.5s-15.9-23.8-6.1-32.5S157.9,1137.5,157.9,1137.5z"/>
<path class="st1" d="M148.2,1104c5.9-0.7,7.9,7.9,6.9,13.3s-3.1,9.2-6.9,9.7s-8.2-2.6-8.2-11.5S144.1,1104.5,148.2,1104z"/>
<path class="st1" d="M165.1,1113.4c2.9,0.2,5.4,5.4,2.8,11.3s-5.4,4.9-6.4,4.9s-4.9-5.9-2.6-10.7S161.2,1113.2,165.1,1113.4z"/>
<path class="st1" d="M176.6,1121.6c6.4,1.1,2.6,10.2,1.5,11.5c-1,1.6-3.1,2.3-4.9,1.5c-2.6-0.8-2.6-5.9-1.5-8.7
	S173.5,1121.1,176.6,1121.6z"/>
<path class="st1" d="M184.3,1131.1c2,1.1,2.8,3.6,1.8,5.6c-1.3,2.6-3.1,5.1-5.4,4.1s-2.8-4.9-1-7.2S183,1130.3,184.3,1131.1z"/>
<path class="st1" d="M187.3,1140c2,0.2,2.8,4.1,1.5,5.9c-0.6,1.2-2,1.9-3.3,1.8c-1,0-2.1-2.6-1.5-4.3S185.3,1139.8,187.3,1140z"/>
<path class="st1" d="M95.4,1052.6c-13.2-1.7-32.4,3-35.8,18.9s6.7,39.9,5.7,42.8s-2.7,27,6.9,31.3s25,1.8,25.9-14.3
	s-5.9-12.7-8.3-19.9s-5.8-16,3.7-24.1s24.1-15.3,18.8-27.2S95.4,1052.6,95.4,1052.6z"/>
<path class="st1" d="M117.8,1025.9c-5.1-3.1-10.5,4-11.7,9.4s-0.9,9.7,2.4,11.7s8.5,1,12.2-7.2S121.4,1028,117.8,1025.9z"/>
<path class="st1" d="M98.6,1027.7c-2.7-1-7.1,2.7-7.1,9.2s3,6.6,3.9,7s6.8-3.4,6.7-8.8S102.2,1029,98.6,1027.7z"/>
<path class="st1" d="M84.7,1030.6c-6.3-1.6-6.5,8.3-6.1,9.9c0.3,1.9,1.9,3.3,3.8,3.4c2.7,0.3,4.7-4.3,4.9-7.3
	S87.8,1031.3,84.7,1030.6z"/>
<path class="st1" d="M73.9,1036.1c-2.3,0.2-4,2.1-3.9,4.4c0.1,2.8,0.7,5.9,3.3,5.9s4.5-3.3,3.8-6.1S75.4,1035.9,73.9,1036.1z"/>
<path class="st1" d="M67.4,1043.1c-2-0.6-4.2,2.6-3.8,4.8c0.1,1.4,1,2.6,2.3,3c0.9,0.4,2.9-1.5,3.2-3.4S69.4,1043.7,67.4,1043.1z"/>
<path class="st1" d="M92.4,812.6c-13.2-1.7-32.4,3-35.8,18.9s6.7,39.9,5.7,42.8s-2.7,27,6.9,31.3s25,1.8,25.9-14.3
	s-5.9-12.7-8.3-19.9s-5.8-16,3.7-24.1s24.1-15.3,18.8-27.2S92.4,812.6,92.4,812.6z"/>
<path class="st1" d="M114.8,785.9c-5.1-3.1-10.5,4-11.7,9.4s-0.9,9.7,2.4,11.7s8.5,1,12.2-7.2S118.4,788,114.8,785.9z"/>
<path class="st1" d="M95.6,787.7c-2.7-1-7.1,2.7-7.1,9.2s3,6.6,3.9,7s6.8-3.4,6.7-8.8S99.2,789,95.6,787.7z"/>
<path class="st1" d="M81.7,790.5c-6.3-1.6-6.5,8.3-6.1,9.9c0.3,1.9,1.9,3.3,3.8,3.4c2.7,0.3,4.7-4.3,4.9-7.3S84.8,791.3,81.7,790.5z
	"/>
<path class="st1" d="M70.9,796.1c-2.3,0.2-4,2.1-3.9,4.4c0.1,2.8,0.7,5.9,3.3,5.9s4.5-3.3,3.8-6.1S72.4,795.9,70.9,796.1z"/>
<path class="st1" d="M64.4,803c-2-0.6-4.2,2.6-3.8,4.8c0.1,1.4,1,2.6,2.3,3c0.9,0.4,2.9-1.5,3.2-3.4S66.4,803.7,64.4,803z"/>
<path class="st1" d="M82.4,572.6c-13.2-1.7-32.4,3-35.8,18.9s6.7,39.9,5.7,42.8s-2.7,27,6.9,31.3s25,1.8,25.9-14.3
	s-5.9-12.7-8.3-19.9s-5.8-16,3.7-24.1s24.1-15.3,18.8-27.2S82.4,572.6,82.4,572.6z"/>
<path class="st1" d="M104.8,545.9c-5.1-3.1-10.5,4-11.7,9.4s-0.9,9.7,2.4,11.7s8.5,1,12.2-7.2S108.4,548,104.8,545.9z"/>
<path class="st1" d="M85.6,547.7c-2.7-1-7.1,2.7-7.1,9.2s3,6.6,3.9,7s6.8-3.4,6.7-8.8S89.2,549,85.6,547.7z"/>
<path class="st1" d="M71.7,550.5c-6.3-1.6-6.5,8.3-6.1,9.9c0.3,1.9,1.9,3.3,3.8,3.4c2.7,0.3,4.7-4.3,4.9-7.3S74.8,551.3,71.7,550.5z
	"/>
<path class="st1" d="M60.9,556.1c-2.3,0.2-4,2.1-3.9,4.4c0.1,2.8,0.7,5.9,3.3,5.9s4.5-3.3,3.8-6.1S62.4,555.9,60.9,556.1z"/>
<path class="st1" d="M54.5,563c-2-0.6-4.2,2.6-3.8,4.8c0.1,1.4,1,2.6,2.3,3c0.9,0.4,2.9-1.5,3.2-3.4S56.4,563.7,54.5,563z"/>
<rect class="st2" width="257" height="1264"/>
</svg>
