<?xml version="1.0" encoding="utf-8"?>
<!-- Generator: Adobe Illustrator 22.0.1, SVG Export Plug-In . SVG Version: 6.00 Build 0)  -->
<svg version="1.1" id="Layer_1" xmlns="http://www.w3.org/2000/svg" xmlns:xlink="http://www.w3.org/1999/xlink" x="0px" y="0px"
	 viewBox="0 0 885.8 680.9" style="enable-background:new 0 0 885.8 680.9;" xml:space="preserve">
<style type="text/css">
	.st0{fill:#193534;}
</style>
<title>surfsup4</title>
<path class="st0" d="M158.8,66.3c-2-2,6-60-8-61s-64-16-77,13s-23,73-7,95s54,13,49,41c-3,17,25,25-3,31s-40-29-47-9s-17,36,8,35
	s53,21,67,2s28-16,24-35s14-48-6-65s-36-32-39-41s-8-13,11-10s29,13,28,14S158.8,66.3,158.8,66.3z"/>
<path class="st0" d="M257.8,24.3c8-9,35-16,38-10s20,80,16,89s-15,91-22,95s-47,11-56,10s-35-10-41-34s-3-53-5-75s-6-80-2-87
	s38-6,42,0s4,76-3,108s-2,51,4,54s21,12,24,7s10-58,12-69s-10-69-9-75S257.8,24.3,257.8,24.3z"/>
<path class="st0" d="M355.8,204.3c-17,0-26,12-24-30s6-85,1-104s-13-51-6-53s92-14,100-7s30-5,35,16s9,45,3,59s-25,41-29,42
	s2,10,4,15s22,41,8,58s-45-17-47-24s-3-31-10-34s-18,18-20,29S359.8,204.3,355.8,204.3z M377.7,93.5c0.7,3.5,24.5,4.2,30-0.7
	s5.6-30,4.9-34.2s-28.9,0.6-34.9,2.1C372.1,62,377,90,377.7,93.5z"/>
<path class="st0" d="M483.8,22.3c-3,20.9,14,52,15,88s-11,82,4,89s34,8,31-3s2-65,8-70s22,17,26,10s24-22,23-26s-1-25-22-16
	s-29-8-22-15s34-29,53-17s15,24,19,19s16-18,15-29s8-48-5-44s-112,6-122,6S484.8,15.3,483.8,22.3z"/>
<path class="st0" d="M667.8,5.3c-5,13-6,40,0,43s23-3,23-13s6-23,6-23c5-4,8-14,2-12s-23,6-23,6L667.8,5.3z"/>
<path class="st0" d="M823.8,29.3c0,17.1,6,46-7,41s-37-20-44-12s-15,17-6,21s49,28,52,48s13,48-7,57s-24,7-53,11s-46,16-57-6
	s15-15,17-14s26,5,38-3s17-26,13-34s-45-29-55-47s-19-33-3-55s69-30,78-28S823.8,9.3,823.8,29.3z"/>
<path class="st0" d="M857.8,285.3c2-8,11-39,5-42s-61-6-72-2s-35,9-30,24s4,54,24,70s38,31,28,41s-43-11-48-7s-20,20-17,24
	s31,19,44,18s49,0,62-20s15-20,7-40s-4-33-23-46s-21-29-21-29s16-1,21,5s6,11,13,10S857.8,285.3,857.8,285.3z"/>
<path class="st0" d="M707.8,318.3c-2.4,19-4,38-10,38s-19-12-18-5s2,29,8,29s34-18,33-8s3,38-7,40s-63,10-69,0s-9-27-5-33
	s15-87,10-107s-6-35,0-38s44-1,46,3s33,18,35,28s7,23-3,24s-25-22-35-20s-15,34-13,38s11-10,16-7S708.8,310.3,707.8,318.3z"/>
<path class="st0" d="M617.8,264.3c14.6,24.4-5,110-11,143s-8,4-44,4s-49,15-48,1s31-83,28-103s-12-67-8-72S599.8,234.3,617.8,264.3z
	 M567.8,348c0,0,14.2-3.5,17.8-2.7s5.3-29.3,6.2-35.5s-17.9-0.8-17.9-0.8L567.8,348z"/>
<path class="st0" d="M458.8,254.3c4-11,20-20,29-12s18,23,13,63s-13,99-42,106s-46,3-53-4s-12-72-11-82s-1-77,6-81s32-8,34,0
	s-6,84-6,84c1.8,7.9,3.1,15.9,4,24c2,16,8,28,14,24s4-79,6-86S458.8,254.3,458.8,254.3z"/>
<path class="st0" d="M277.8,239.3c-1.2-3.4,68-8,79,7c11,15,30,56,25,89s-5,30-8,45s-9,32-40,35s-32-5-47,0s-14-15-9-28
	S296.8,291.3,277.8,239.3z M323.8,343.3c0,0,2,11,10,9s13-15,11-31s-18-22-18-22L323.8,343.3z"/>
<path class="st0" d="M68.8,246.3c12-3,54-33,55,11s4,128-24,149s-64,15-73,6s-26-32-26-63s4-83,0-94s8-24,15-23s38-3,35,36
	s-3,94,3,93s20-19,18-43S68.8,246.3,68.8,246.3z"/>
<path class="st0" d="M143.8,243.3c3-9,34-2,32.6-3.2s40.4-12.8,58.4,17.2s5,12-3,51s-35,35-47,41s-6,41-6,56s-15.6,6.8-32,15
	C140.8,423.3,140.8,252.3,143.8,243.3z M184.8,302.3c12-5,20-24,17-31s-25-2-25-2S172.8,307.3,184.8,302.3z"/>
<path class="st0" d="M677,9.7c-2,9-4.5,17.8-5.7,26.9c-0.3,2.5,3,5.5,4.6,8.2c2-2.8,6.2-6.6,5.5-8.2c-4.8-11.5,5-15.8,9.9-22.6
	c0.9-1.4,1.8-2.8,2.5-4.3h5.3l-15.5,17.4l0.7-0.6l2.8,1.4l-10.8,20.5c-3.2-4.8-9-9.6-8.8-14.3c0.3-8.2,4.2-16.2,6.6-24.3L677,9.7z"
	/>
<path class="st0" d="M104.4,394.8c1.5-2,2.4-3.3,3.3-4.6l2,2.2l-20.9,19c-0.9-1.2-0.4-0.6,0.2,0.2h-9l-0.6-3.2
	c-6.4,1.1-12.7,2.3-19.1,3.2c-6.1,1-12.3,1.5-18.5,1.6c-0.6,0.1-1.3,0.1-1.9-0.1C13.3,396,5.3,370.6,7.2,340.6
	c-0.1,0.5-0.2,1.1-0.3,1.6c-0.2,2-0.3,4.1-0.4,6.2c-0.6-2.5-0.9-5-1.1-7.6c-0.2-11.1-0.5-22.2,0-33.3c0.4-7.7,2.9-15.4,3-23.1
	s-1.8-15.3-2.6-23c-0.2-2.4,0.4-4.9,0.7-7.3l1,0.9c4.9-15.5,15.9-20.9,30.8-13.1c3.7,1.9,5.7,9.7,6.2,14.9c1.2,12.6,1.2,25.3,1.3,38
	c0.2,17.9-0.4,35.9,0.6,53.7c0.4,7.6,1.7,18.3,13,16.2c4.3-0.8,8.7-8.9,10.2-14.4c3-11.6,5-23.4,6.1-35.3c0.7-6.7-1.3-13.6-1.5-20.4
	c-0.5-14.2-1.9-28.5-0.1-42.4c0.5-4,10.5-7.3,16.6-10c4.3-1.9,9.3-2.3,14.1-3.1c12.4-2,14.2,8.4,14.8,15.7c1,13.6-0.5,27.5-1.1,41.2
	c-0.7,16.4-1.2,32.7-2.3,49c-0.6,10.3-2,20.5-4,30.6C110.7,382.1,107.3,387.9,104.4,394.8z M79.5,249.7v70.5c2.7-1.8,1.7-1.5,1.6-1
	c-1.7,10-2.7,20.2-5.1,30c-2,8.7-5.6,17.2-8.4,25.7l-4-1.3l1.7,1.9H49.9l-14.3-30.8l2.5-1.1l1.1,6V264h1.5l-0.5-9
	c-2.7-2.3-4.6-5-6.2-4.9c-6.5,0.6-12.9,1.8-19.1,3.6c-1.3,0.3-2.3,4.3-2,6.4c0.9,7.9,4.1,15.9,3.6,23.6c-0.6,9.6-5.8,18.9-5.9,28.4
	c-0.2,12.3,2.8,24.6,4.1,37c0.4,3.8,0.1,7.6,0.1,11.4l0.9-0.1l-1,6c0.5,1,0.9,1.8,1.3,2.6c3.8,9.5,7.5,19.1,11.7,28.5
	c0.6,1.4,3.5,1.8,5.3,2.6l0.5-3l2.9,3.9l-0.8,2.1l2.4-0.4l0.2,3.7c6.4-0.4,12.9-0.5,19.3-1.3c8.4-0.9,16.6-2.2,24.8-4.1
	c4.2-1.2,8.1-3.3,11.4-6.2c3.7-2.9,6.8-6.6,9-10.7c2.7-5.6,4.6-11.6,5.7-17.7c1-5.8-0.3-11.9,0.5-17.6c1.2-7.9,3.7-15.5,5-23.4
	c0.5-3-1.2-6.2-1.4-9.4c-0.1-2.9,0.4-5.9,0.8-10.2c-1.2,0.9-0.3,0.6-0.2,0.1c1-5.2,2.7-10.4,2.8-15.7c0.2-12,0.7-24.2-1-36.1
	c-0.8-6-2.4-15.7-13.3-12.9c-7.3,1.8-14.4,4.4-21.6,6.6c-1.2,0.5-2.4,1-3.6,1.6l0.8,1.2L79.5,249.7z"/>
<path class="st0" d="M99.7,18.8c12.3-1.4,24.7-2.9,37-4.2c11.9-1.3,19.6,10.5,17.8,23.1c-1.4,10.3,0.6,21,1.1,31.5
	c0.1,0.5,0.1,1.1-0.1,1.6c-0.1,0.2-1.1,0.2-1.5,0c-9-5.5-18.4-10.6-26.9-16.8c-2.7-2-2.9-7.2-5-10.5c-1.1-1.7-3.8-2.4-5.7-3.5
	c-1,2.7-3.8,6.6-2.8,7.9c6.9,9.6,5.2,13.7-6.9,14.6c-1.5,0.1-4.6,9.2-3.1,11.8c2.8,4.8,8.4,8.2,13.1,11.7
	c11.5,8.8,25.8,15.4,34,26.5c8,10.7,15.4,24.5,8.4,40.6c-2.1,4.9,4.8,13.4,3,18.8c-2.6,8-8.5,15.3-14.2,21.8
	c-19.3,22.3-44.7,8.7-67.4,10c-4.8,0.3-11-7.1-14.5-12.4c-1.1-1.6,3.9-8.2,7.1-11.4c1-1,5.6,1.8,8.6,2.7c10,3.2,20,8,30.1,8.5
	c3.5,0.2,7.5-10.3,11.3-15.9c7.9-11.7,1.5-32.2-10.1-39.7c-15.5-10.1-29.8-22.1-44.3-33.7c-1.1-0.9,1.4-5.3,1-8
	c-0.9-7.5-2.4-14.8-3.6-22.3c-0.6-4.9-2.8-10.3-1.7-14.7c2.9-11.5,5.5-23.9,11.9-33.4c3.7-5.5,14.7-6,22.4-8.7L99.7,18.8z
	 M152.3,165.3c1.1-0.8,2.2-1.2,2.3-1.8c0.8-5.3,2.4-10.6,2-15.8c-0.7-6.7-2.1-13.3-4.2-19.7c-1.9-6-3.4-12.9-7.4-17.3
	c-6.4-7.1-14.6-12.8-22.5-18.3c-4.3-3-9.7-4.4-14.6-6.6c0.1-0.1-0.2,0.3-0.4,0.7c-3.7-5-10.5-10-10.4-14.9c0-5.9,6-11.7,7.4-14.2
	l5.2,0.2c1.7,0,3.4,0.1,5.1,0.1c0.2-0.4,0.3-0.8,0.2-1.3c-1.5-3.3-5.1-7.5-4.1-9.8c1.7-4,6.1-6.8,9.6-9.8c0.4-0.3,2.6,1,3.6,2
	c4.5,4.4-2.8,18.7,12.8,14.5c3.1-0.8,8,4.9,11.9,7.5l1.4-3.2l3,4.9c-0.3-2.8-0.5-4.5-0.8-6.2c-0.7-4.8-3.4-10.5-1.7-14.1
	c4.3-8.8-0.9-22.5-10.5-22.8c-6.3-0.3-12.6,1.7-19,2.1c-4.7,0.3-9.4-0.4-14.1-0.3c-8,0.2-20.9-2-23.2,1.8
	c-5.9,10-8.1,22.6-10.1,34.5c-1.2,6.8,0.7,14.1,1.2,21.1l2.5-0.3l-0.1,0.2l0.5,0.2l-2.3,15.2l-3.5,0.7l2.8,7.7l-1.3-0.1
	c4.3,5.1,8.2,9.8,9.9,11.9l43.5,21.6c2.4,7.6,6.6,15.2,6.9,23c0.2,6.8-3.8,13.8-6,20.7c-3.8,6.4-8.6,12.2-14.8,14.7
	c-5.2,2.1-12.4,1.5-17.9-0.3c-6.7-2.2-12.5-7.1-18.7-10.8c-0.8,1.8-1.5,3.7-2.4,5.4s-2.8,3.5-2.6,5c0.3,2.9,1.8,5.7,2.8,8.5l3.3-2.6
	l3.8,1.4c-0.5-1-1-2-1.4-3c-0.6-1.1-1.2-2.3-0.5-0.9l21.5,4.5l-0.1-0.9l3.4,1.1c1.1-1,1.8-1.8,0.2-0.2l4.3,0.2l11.7,1.1l0.1-1.3
	l17.8-3.5l-0.4-0.2c7.6-9.7,24.7-13.5,17.2-32.3L152.3,165.3z"/>
<path class="st0" d="M219,156.6c1.4,0.2,0.8,0.1,0.3,0c1.4,6.5,1.8,13.4,4.6,19.1c1.8,3.7,7,5.8,10.8,8.3c10,6.4,18.8,2.2,26.4-4.3
	c1.7-1.4-1.8-7.9-1-11.6c3.1-13.7,8.3-26.8,10.9-40.7c3.5-19,6.5-41.6,1.3-60.6c-0.9-3.4-4.8-17-9.4-17.1
	c-1.8-9.5,0.3-26.9,12.5-28.6c7.3-1,14.8,0,21.6,2.9l-2.5-1.1c1.3,3.8,3,7.2,3.5,10.8c2.1,13.7,4,27.4,5.9,41.1
	c1.8,12.5,2.6,24.8-1.2,37.1c-5.4,17.5-8.5,35.6-12.6,53.5c-2.2,9.6-3.2,19.7-6.8,28.7c-1.2,3-8.9,3.6-13.8,4.9
	c-8.6,2.3-17.2,5.2-26,6.2c-6.6,0.8-13.4-1-20.6-1.7l1.4-1.8c-0.5-0.3-0.9-0.5-1.4-0.6c-15.7-3.1-26.1-16.4-25.5-32.6
	c0.2-6.5-6-13-6.7-19.7c-1.2-13.1-0.4-26.4-0.8-39.7c-0.4-12-1.9-24.1-1.7-36.1c0.3-11.5,5.8-24.9,2.2-36.1
	c-0.7-2.3-1.9-4.5-2.2-6.9c-0.3-3.8,1-7.5,3.7-10.1c8.4-8.9,17.8-5,28-2.8c1.6,0.3,3.4,0.4,5,0.9c1.6,0.4,3,1.5,3.9,3
	c0.9,2,0.2,4.2-0.3,6.3c-3.8,14.4-0.6,29.2-0.1,43.7c0.5,15.5-4.5,29.5-8.7,44.2C216,128.1,219,142.7,219,156.6z M253.4,200.6h1.6
	c1.2-0.1,2.3-0.3,3.4-0.8c2.6-0.8,5.2-1.8,7.8-2.8c2.9-1.3,5.8-3,9-3.6c4.8-0.9,9.6,0.2,11.6-5.4c0.6-2.2,1-4.5,0.9-6.8
	c0.8-20.2,4.9-40.1,8.4-59.9c2.1-12.1,5.6-24,7.1-36.2c0.6-4.7-1.8-14.2-1.9-15c-1.3-7.4-2.5-14.8-4-22.2c-1.4-7.1-1.8-15-5.3-20.9
	c-1.9-3.2-9.6-4.3-14.4-3.9c-3.2,0.3-8.5,5-8.5,7.8c-0.1,9.4,1.3,18.8,3.1,28.1c1,5.4,4.8,10.2,5.6,15.6c0.5,3.3-3.6,7.2-3.3,10.7
	c0.7,9.8,3.8,19.7,3.5,29.4c-0.3,8.2-4.1,16.3-6.3,24.5c-2.5,9.4-7.4,18.9-7.1,28.2c0.5,12.9-5,20.3-16,22.3
	c-7.5,1.4-15.6-1.6-22.9-3.1l0.8-3.3c0.1-0.3,0.1-0.5,0-0.8c-0.2-0.4-0.8-0.4-1.2-0.4c-1.4-0.2-2-1.9-2.4-3.2
	c-1.7-6.1-3-12.5-5-18.5c-1.9-5.7-4.2-10.9-4.6-17c-0.8-10.3,3.1-22.3,5-32.3c3-16.3,5.9-32.7,10.1-48.8c-0.1-0.4-0.7-0.3-1,0
	c-0.2,0.3-0.5,0.6-0.8,0.8c-0.7,0.3-1.4,0-1.7-0.6c-0.3-0.6-0.4-1.3-0.3-2V22.1c-3.6-1-8.6-2.3-13.6-3.5c-16-4-20.7-1.4-20.4,12.3
	c0.1,4.6,4.8,9.2,4.8,13.8c0,8.2-2.8,16.4-3,24.6c-0.2,10.6,1.3,21.2,1.7,31.9c0.8,26.2-4.2,61.1,13.2,83.5c1.2,1.6,2.3,3.6,1.8,5.6
	h3.7l-0.8,2c5.4,2.6,10.9,6.1,16.8,7.6c4.6,1.1,9.4,0.8,14.1,0.5C246.4,199.9,249.8,200.5,253.4,200.6L253.4,200.6z"/>
<path class="st0" d="M632.2,13.4l-3,0.8c7.3,8.9,5.6,31.1-1,32.8c0.5,6.1,2.7,12.6,0.9,17.8c-1.6,4.7-7.5,7.8-11.5,11.7
	c-3.6-4.8-6.4-10.8-11.1-14c-4.5-3.1-10.9-3.4-16.6-4.7c-2.6-0.6-5.6-1.6-8-0.9c-8,2.2-15.8,4.9-23.5,7.9c-4.8,1.7-8.9,5.1-11.3,9.7
	c-1.2,4.2-2.1,8.5-3.8,12.5c-4.5,10.7,1.6,12.7,10,12.1c6.4-0.4,12.7-2.2,19.1-3.1c3.6-0.5,7.2-0.5,10.2-0.7
	c0.2,0.7,0.5,1.5,0.6,2.2c0.8,5.5,1.9,11,2.1,16.6c0,0.9-3.9,1.6-5.5,3c-2.3,2-4.3,4.3-6,6.8c-2,3.1-3.3,9.4-5,9.4
	c-4.2,0.1-9.5-1.5-12.4-4.4c-10.6-10.6-12.1-10.4-17.3,3.6c-3.8,10.4-9.6,20.3-12,31c-1.3,5.9,3.3,12.9,3.7,19.5
	c0.3,4.8-1.8,9.8-3,14.7c-0.3,1.1-1.2,2.1-2.4,4.4c-8.8,0-20.4-3.1-21.9-13.2c-2.4-16.1,0.4-32.8,0.1-49.3
	c-0.2-10.7-2.2-21.3-2.8-32c-0.4-6.8,1.4-13.9,0.3-20.6c-1.6-9.7-5-19-7.6-28.5c-2.8-9.9-8.8-18.8-3.8-30.5s15.9-9.7,23.7-10.9
	c13.2-2,27,0.4,40.6,0.7c13,0.2,26.1,0.7,39.1-0.2c12-0.8,23.8-3.3,35.7-5C629.6,12.6,630.2,13,632.2,13.4z M619.8,76
	c2.9-3.9,5.8-6.2,6.2-8.8c1.9-12.6,3.3-25.3,4.3-38c0.3-3.7-0.7-10.4-2.3-10.8c-5.4-1.4-11.5-1.1-17.2-0.5
	c-13.1,1.4-26.1,4.7-39.2,4.8c-13.7,0.1-27.4-3.3-41.2-4c-7.3-0.4-14.8,1.3-22,2.6c-4.9,0.9-11.2,1.6-14,4.9s-2.1,9.4-2.2,14.4
	c-0.1,4.1,0.9,8.2,1.4,12.3l0.9-0.2c-0.2-0.9-0.5-1.9,0.1,0.3c18.3,16.2,5.7,41.4,11.4,62.3c1.2,0.7,2.4,1.1,2.3,1.5
	c-0.1,7.9-0.2,15.8-0.6,23.7c-0.8,13.8-2.2,27.6-2.4,41.4c-0.1,4.1,3.1,8.2,4.6,12.2c1.6,0.6,3.2,1.2,4.8,2c8,4.8,13.5,4.6,13-6.8
	c-0.1-2-1.8-4-1.7-6c0.1-9.2-0.8-18.6,1.2-27.4c2.7-11.9,7.7-23.4,11.7-35l-0.8-1.1c3.2-1.1,6.3-2.5,9.6-3.3
	c0.7-0.2,1.9,1.5,0.9,0.7l14.4,13l22.6-23.4l-0.7-0.5c-0.7,0.8-1.3,1.5-0.1,0.2c-2.3-2.9-4.6-8.3-6.8-8.2c-5,0.1-9.8,3.4-14.9,4.5
	c-6.3,1.3-12.8,1.5-19.2,2.2l-0.3-2.4l1.2-0.9c-2.7-1.6-7.6-3.7-7.3-4.6c2.2-9,4.1-18.3,8.3-26.4c2.8-5.4,8.6-10,14.2-12.8
	c4.2-2.1,10.2-0.3,15.3-1.1c7-1.1,14.3-5.2,20.7-3.9c6.5,1.3,12.5,7.1,17.9,11.9c2.5,2.2,3.1,6.7,4.6,10.1l0.8-0.3
	C619.3,73.9,619.1,73.3,619.8,76z"/>
<path class="st0" d="M814.7,176.3c0.1-6.3,4.2-11.3-0.9-19.3c-4.3-6.8-1-18.5-1-28c0-2.7,0-5.4-1.5-7.8c0.1-1.2,0.3-2.5,0.8-7
	c-1.4,3.8-1.7,4.6-0.9,2.5c-4.3-2-9.3-3.4-13.3-6.3c-8.2-5.9-15.5-12.8-23.5-18.7c-4.2-3.1-9.2-4.9-13.8-7.4
	c-6.3-3.4-8.5-7.7-3.8-14.3c1.9-2.7,2.4-6.3,4-9.3c2.1-4.2,4.6-8.3,7.3-12.2c1.6-2.3,5-5.8,6.3-5.3c3.1,1.2,5,5.8,8,6.5
	c6.4,1.5,13.3,0.7,19.7,2.2c5.1,1.2,9.7,4.4,15.5,7.2c0.4-3.5,0.9-7.6,1.5-12.9l-2.6,2.4c-0.4-0.5-1-0.9-1.1-1.4
	c-0.5-2.4-1.8-5.2-1.1-7.3c1.5-4.6,4-8.8,6-13.2c-5.3-2.2-10.7-6.2-16-6.2c-14.4,0.2-28.8,1.3-43,3.4c-15.5,2.2-32.7,0.6-43.3,16.1
	c0.2,0.1,0.8,0.4-0.1,0c-2.4,7.1-4.7,13.9-7.3,21.5c3.3,8.1,5.4,17.3,10.5,24.3c4.8,6.6,13,10.6,19.3,16.2c2.7,2.4,4.5,5.9,6.7,8.9
	l-3,1.4l19.9,8.1l-4.4-3.7l2.1-1.8c6.7,7.7,14.7,14.6,19.4,23.3c2.2,4-2.2,11.6-3.6,17.4l2.8-2.4c-9.2,13.6-15.9,26.9-31.6,29
	c-14.4,1.9-29,1.9-44.1,2.9c-1.1,11.7,11.8,8.9,19.6,9.6c13,1.1,26.3,0.1,39.4-0.8c4.5-0.3,8.8-2.7,13.2-4.1
	c-12.8,3.3-25.4,8.2-38.4,9.3c-10,0.8-20.5-2.8-30.5-5.3c-2.7-0.7-5.2-4.3-6.4-7.1c-0.8-2,0.6-7.1,1.4-7.1c3.6-0.3,7.2,0.6,10.9,1.1
	c7.9,1.2,15.8,2.4,23.1,3.5l5.6-2.2c6.8-2.7,14.2-4.5,20.1-8.5c3.2-2.1,4-7.8,5.6-12c2.8-7.5,9.5-16.8,7.2-22.3
	c-3.4-8.2-13-13.9-20.3-20.3c-5-4.5-10.5-8.4-15.8-12.5c-0.9-0.7-1.9-1.2-2.9-1.5c-1.1-0.3-2.9,0.4-3.4-0.2c-3.2-3.8-5.8-8-9.1-11.6
	c-2.5-2.6-5.9-4.4-7.6-5.6c-1.7-5.6-3.1-10.2-4.5-14.8c-1-3.4-2.4-6.7-2.9-10.2c-1.9-12.5,5.9-29.3,17.4-34.4
	c6.9-3.1,15-3.2,22.4-5.1c8.6-2.3,17-6.8,25.6-7.3c15-0.7,29.9,0,44.8,2.1c2.2,0.3,6,13.2,4.2,14.9c-8.4,7.6-1.3,13.9-0.8,20.9
	c0.3,3.7-3.8,7.7-6.1,11.5c-0.6,0.6-1.5,0.9-2.3,0.7c-1.4-1.1-2.5-2.6-3.2-8.4l-40.3-5.1c-1.5,3.9-2.2,12.2-6.7,16.7
	c-12.8,12.4,1.7,10.6,6.3,14.4c5.7,4.8,10.4,11,16.3,15.4c6.7,4.9,15.7,7.3,21.2,13.2c4.8,5.1,7.1,13.1,8.9,20.3
	c2,8.2,3,16.6,2.8,25C819.2,163.7,816.4,170,814.7,176.3z"/>
<path class="st0" d="M480.3,375.2c5-18.7,12-37.2,14.6-56.2c2.5-17.8,0.5-36.3,0.5-54.6l1.4-0.1c-2.8-15.5-12.6-22.1-27-17.2
	c-3.9,1.3-4.8,11.5-7.1,17.6l1.5,0.7c-0.5,1.1-1.2,2.5-1.5,3.2c1,0.8,1.9,1.1,1.9,1.5c0.1,2.6,0,5.2-0.3,7.8c-0.7,7-1.9,14-2.3,21
	c-0.5,10.4-0.5,20.8-0.6,31.2c-0.1,5.5,0,10.9,0,16.7c-1.2,4.9-3.9,10.6-3.7,16.3c0.3,8.9-12.5,23.7-20.5,20.4
	c-4.3-1.8-7.4-9.2-8.7-14.7c-2.5-11-4.2-22.1-5.1-33.4c-0.7-7.7,0.1-15.6,0.1-23.4c0-5.6-0.4-11.1-0.8-16.7c0-0.7-1-1.4-1.3-1.8
	c-0.5-1.4-0.9-2.6-1.3-3.5c0.6-0.4,1.3-0.9,2-1.5c0,0-0.2-0.6-0.3-0.7c-0.7,0-1.3,0.1-2,0.1l8.3-22.4c-0.7-2.1-1.3-3.9-2.1-6.5
	l2.2,2c0.3-2.2,0.6-4.2,1.2-8c-1.3,2.5-1.7,3.3-2.7,5.2c0.5-2.9,0.8-4.7,1.1-6.8l-1.3,1.5l-4.7-8l0.7,4.2c-0.1,0-0.4,0.1-0.4,0.1
	c-1-1-2-2.1-3-3.2c1-0.7,2-1.9,2.9-1.9c2.6,0.1,6.9,0,7.5,1.3c2.3,5,3.3,10.5,5,16.2c-1.2,3.4-2.2,6-3,8.8
	c-2.2,7.5-5.3,14.9-6.2,22.6c-1,8.5-0.3,17.3,0.1,26c0.5,10.8,1.3,21.6,2,32.4c0.3,4.5,0.4,9.1,0.4,9.4c4.1,8.1,6.1,12.9,8.9,17.1
	c1.2,1.8,4.5,3.6,6.1,3.1c2.8-0.9,6.2-3.1,7.3-5.6c3.1-7.8,6.7-15.8,7.4-24c0.9-10.4-0.9-21-1.6-31.5c0-0.5-0.6-1-2.2-3.7
	c1.4-8.5,3.3-19.1,5.1-29.8l0.8,0.4v-23.8l0,0c0.1-12.7,10-22.3,21.5-21.3c10.3,0.9,21,19.7,18.8,29.8c-2.5,11.6-2.6,23.6-3.7,35.5
	c-0.1,0.6-0.1,1.2,2,1.8c-0.3,4.8,0.1,9.7-1,14.3c-1.2,5.6-3.6,10.9-5.6,16.3c-1.9,5.1-3.8,10.2-5.9,15.6l5-0.6
	c-4.6,11-8.3,21.4-13.4,31c-2.2,4.1-10.7,6.6-10.8,10c-0.2,10.5-7.3,12.3-14.4,13.7c-6.6,1.3-13.7-0.1-20.4,1.1
	c-18,3.2-30.4-6.6-31.8-25.4c-0.9-12-3.4-23.8-3.5-35.8c-0.1-8.1,2.7-16.1,4-24.3c0.2-1.5-0.3-3-0.6-5.1l-1.8-0.3
	c-0.4-8.5-0.9-17-1.2-23.6c2.3-11.4,5.5-21.1,6-31.1c0.7-14.1,5.6-24.2,12.2-20.6l-3,1.4c-3,16.8-7.4,34.2-9,51.9
	c-1.6,16.5-0.3,33.2-0.3,49.8l-3.6,0.2c0.4,5.5,0.8,10.9,1.2,16.5c0.5-0.2-0.2,0-0.2,0.1c2.4,12.1,4.3,24.5,7.8,36.3
	c1.2,4,6.7,6.6,11.4,8.6l0.8,0.8c1.4-0.4,2.7-0.7,4.1-1c10-0.8,20.2-0.8,30-2.6c3.6-0.7,7-5.4,9.2-9c2.8-4.5,3.8-10.1,6.4-14.7
	c1.5-2.6,4.7-4.2,7-6.5c0.5-0.4,0.3-1.5,0.4-2.3L480.3,375.2z"/>
<path class="st0" d="M430.6,122.9c1.3,6.7,3,15.5,5,25.8c3.1,4.6,7.9,9.4,10.1,15.2c2.7,7,5.3,15.1,4.1,22.1
	c-1,6.1-7.2,11.4-10.8,16.6l-1.1-0.5c-0.4,0.2-0.7,0.6-0.9,0.5c-2.2-0.9-5-1.2-6.5-2.8c-7-7.4-14.7-14.6-20-23.1
	c-4-6.3-3.9-14.9-7.2-21.8c-4.5-9.4-9.5-19.1-16.5-26.6c-1.9-2-15.4,1.7-17.2,5.7c-5,10.7-6.2,23.2-9.6,34.7
	c-3.1,10.4-7.1,20.6-10.5,31c-0.2,0.6,1,2.2,1.9,2.5c1.5,0.5,3.1,0.4,4.7,1.7h-21.3v-1.4l0.9-0.1c-0.4-4.7-1-9.3-1.1-13.9
	c0-8.5,0-17,0.6-25.5c0.7-9.8,2.4-19.5,2.8-29.3c0.4-11.1-0.2-22.2-0.2-33.3c0-6.2,1.6-12.5,0.6-18.4c-2-12.8-4.1-25.8-8.1-38
	c-4.7-14.4,1.5-24.6,16.5-25.4c16.9-0.9,33.8-3.8,50.7-3.9c15.9-0.1,32.2,0.4,47.4,4.5c9.5,2.5,15.3,11.8,15,24.7
	c-0.2,10,8.7,19.8,2.8,30.9c-1.7,3.1-4.3,5.8-5.6,9.1c-4,9.6-6.5,19.9-11.6,28.7C442.8,117.2,435.9,119.4,430.6,122.9z M424.5,115.9
	l0.1,1.3c4.5,0,10.8,1.8,13-0.4c4.7-4.9,7.7-11.6,10.4-17.9c2.8-6.6,5.5-13.6,6.5-20.6c1.4-10.4,2.1-21,1.9-31.5
	c-0.1-6.2,0-15-3.8-17.8c-6.5-5-15.6-7.7-24-9.1c-11.1-1.8-22.5-2-33.8-1.9c-12.6,0.2-25.1,2.1-37.7,2.2c-23.2,0.2-26,2.9-22.7,19.9
	c3.4,17.5,5.2,35.2,7.2,53c0.7,6.4,0.1,12.9-0.2,19.4c-0.4,7-1.1,13.9-1.7,20.8l1.9,0.1l0.4-1.4c0.1,3.2-0.6,6.3-1,9.4
	c-1.7,15.8-3.9,31.6-4.7,47.5c-0.2,4.2,3.9,8.7,5.9,13c1.8-1.9,4.3-3.5,5.1-5.8c3.4-9.5,6.5-19.2,9.3-28.9c3.7-13,6.9-26.1,10.6-40
	l0.4,0.4l27.6-5.2c-2.5,4.1-3.1,4.6-3,4.9c1.8,4.7,3.5,9.3,5.5,13.9c3.8,8.6,7.9,17,11.6,25.7c1,2.4,0.1,6,1.6,7.6
	c5.7,6.4,12,12.2,18.1,18.1c2.5,2.4,6.4,7,7.9,6.4c13.5-5.6,16.6-21.1,7.8-33.4c-5.4-7.5-10.6-15.4-14.5-23.8
	c-3.8-8.1-5.8-17.1-8.4-25.5L424.5,115.9z"/>
<path class="st0" d="M851.2,245.9l8.7,2.1c-1.8,2.5-4.9,5-5,7.5c-0.2,7.4,1,14.8,1.3,22.3c0,3.3-0.2,6.6-0.8,9.9
	c-0.1,0.5-1.9,0.8-2.9,1.1c-0.3-1.3-0.7-2.6-1.2-3.8c-0.8-1.8-1.3-4.2-2.7-5.3c-2.7-2.1-5.8-3.7-9.1-4.7c-3.3-1.1-6.8-1.5-10.3-1.4
	c-3.4,0.3-6.7,1.8-8.9,2.5l-4.8-14l-2.6,1.3c-0.3,5.7-2.1,11.8-0.6,16.9c1.6,5.4,6,10.2,9.8,14.7c4.5,5.3,9.7,9.9,14.6,14.8
	c4.6,4.6,10.8,8.4,13.5,13.9c4,8.3,5.9,17.8,8.3,26.8c3.5,13.7,5.2,29.6-7.6,37.5c-16.3,9.9-32.5,23.8-54.7,18.4
	c-5.2-1.3-11.5,1.2-16.4-0.5c-5.3-1.8-9.4-6.8-14.4-9.8c-4-2.4-8.5-3.9-14.6-6.6c5.1-5.6,8.9-10,13.2-14c0.5-0.5,3.4,1.8,5.3,2.5
	c2.8,1.2,5.6,2.2,8.5,2.9c9.3,2.2,18.7,5.4,28.1,5.5c3.8,0.1,10.1-6.3,10.9-10.6c1.4-7.2,1.1-16-1.8-22.5c-2-4.5-10.5-5.7-14.8-9.8
	c-4.9-4.7-8.7-10.8-12.5-16.5c-4.6-6.8-9.6-13.5-13-20.9c-2.7-5.9-3.1-12.8-4.6-19.2c-1-4.6-2.7-9-3.1-13.7
	c-0.3-3.6,0.9-7.4,1.5-11.2l-4.4,1.6l-1.2-2.1c6.7-4.5,13.2-9.2,20.1-13.4c1.5-0.9,4.2,0.2,3.7,0.2l27.7-5.3
	c-0.1,0.5-0.1,1.1-0.2,1.6l7.7-0.4c-3.8,1.3-7.1,3.1-10.6,3.6c-6.1,0.9-12.4,0.2-18.3,1.6c-7.1,1.6-15,3.4-20.3,7.7
	c-3.1,2.6-2,10.4-2.8,15.9c0,0.2-0.3,0.5,0.8-1.1c1.6,11.2,3,20.9,4.7,33.2c2.1-2.6,1.5-1.9,0.9-1.1c3,2.4,6.2,4.5,8.8,7.2
	c2.1,2.2,4.8,5.1,4.8,7.8c0.2,15.2,10.3,20.1,22.3,25.9c5.8,2.8,10.6,13.2,10.8,20.4c0.3,9-4.6,18.1-7,26.3
	c-15.5-3.2-28.5-5.7-41.2-8.7c-3.7-0.9-7.5-5.6-10.3-4.9c-3.3,0.8-5.6,5.6-8.4,8.7l8.7,5.9c3.4,2.3,6.8,4.5,10.1,6.9
	c11.4,8.5,45.9,7.2,57-1.9c5.7-4.7,13.5-7.7,17.7-13.4s6.4-13.5,7.1-20.6c0.5-5.8-2-12-4-17.8c-3.1-9.1-5.5-18.9-10.8-26.7
	c-4.2-6.2-13.1-9.1-18.3-14.9c-6.6-7.5-12.1-16.2-17.1-24.9c-1.4-2.5,0.6-6.9,1-10.4c0.1-0.6,0.2-1.6-0.2-1.8
	c-0.6-0.5-1.4-0.8-2.3-0.8c-1.4,0.4-2.7,0.9-4,1.5c0.6-1.6,0.7-3.9,1.8-4.8c1.9-1.3,4.1-2.2,6.4-2.6c1.4-0.3,3,0.4,3.8,0.5h8.6
	c1.6,5.3-3.6,15.5,9.9,11.8c3.6-1,8-0.4,11.6,0.9s6.2,4.1,9.4,6.4c0-6.8-0.3-12.6,0.1-18.4c0.2-3,2.2-6,2.2-9c0-2.2-2.1-4.4-3.2-6.5
	L851.2,245.9z"/>
<path class="st0" d="M286.2,240.9l-8.5-1.6h35.5l-1.3,1.4c2.4,0.7,4.7,1.7,7.1,2c10.6,1.2,21.6,0.9,31.6,4c5.1,1.6,9.8,8.6,12,14.3
	c5.1,13.3,8.6,27.2,12.8,40.9c0.5,1.1,1,2.1,1.8,3.1l-1.4-0.4c8,9.5,6.8,33.1,1.1,45.1c-5.1,10.8-7.7,23.2-9.4,35.2
	c-2.2,15.1-11.6,22-24.8,25c-5.1,1.1-10.8-0.6-16.3-0.8c-11.4-0.5-22.8-0.9-34.1-1.2c-1.2,0-2.4,1.6-3.9,0.9c-1.8,0.5-3.7,1-5.6,1.3
	c-0.8,0.1-2.3-0.4-2.5-0.9c-0.7-1.7-1.6-3.9-1.1-5.3c3.2-9,6.9-17.8,11-28.3l-6.7,2.3c2.7-8.9,6.7-17,7.3-25.3
	c1.5-20.8,1.8-41.6,2-62.4c0.1-11,0.2-22.1-1.3-32.9c-0.7-5-5.4-9.4-8.6-14.6L286.2,240.9l8,12.6c0.5,37.7,5.3,78.4-4.5,116.5
	c1.4,4.6,3.9,8.6,3.2,11.9c-1.2,5.5-4.9,10.5-6.9,15.9c-0.5,1.3,1.3,5,2.3,5.1c6.7,0.7,13.5,0.5,20.2,1s13.6,2.8,20.2,2.2
	c8.5-0.8,17.7-2.1,24.8-6.2c4.6-2.7,6-10.8,8.8-16.5c-0.9-3.9-0.1-6.8,0.5-9.8c0.1-0.3-1.2-0.9-1.8-1.4l11.1-26.3
	c0-0.3-0.2-1.4-0.1-0.7l3.1-7.4c0.8-5.3,1.2-8.4,1.6-11.6c0-0.2-0.8-0.6,0.6,0.4c-1.3-6.2-2.3-10.9-3.4-15.6
	c-0.1-0.3-1.5-0.3-1.9-0.4c-1.1-19.8-4.3-38.8-18.6-54.3c-5.8-6.3-49.3-18.6-56.7-15.2c0.2,0.9,0.4,1.7,0.6,2.6h-0.1l-8.7-3.1
	c-0.4,0.8-0.1,0.3,0.3-0.7L286.2,240.9z"/>
<path class="st0" d="M605.2,408.1c-30.3-3.5-56.7-6.6-83.6,5.8c4.3-14.1,7.7-24.9,10.7-35.8c0.2-0.8-4.1-3-3.8-3.5
	c3.9-9.8,9.6-19.1,12-29.3c2.8-11.6,3.7-23.8,3.6-35.8c-0.1-14.4-2-28.7-3.3-43c-0.6-6.9-2.1-13.8-2.1-20.8c0-1.2,6-2.3,9.2-3.4
	c1.2-0.4,2.5-0.6,3.6-2l-4,0.3l-2.2-2.9c5.6,1.6,10.3,3.3,15.2,4c7.2,1.1,15.3-0.3,21.6,2.5c9.1,4,19.8,9,24.7,16.8
	c12.7,20.1,13.8,43,9.4,66.2c-2.4,12.6-5,25.1-6.8,37.8C607.8,379,606.7,393.1,605.2,408.1z M533.7,408c5.4-1.3,9.5-2.8,13.7-3.3
	c9.5-1.1,19.1-2,28.6-2.5c7.8-0.4,17.7,2.7,22.8-1.1s6.8-13.8,7.8-21.4c1.5-11.8,1-23.8,1.7-35.7c1.1-19,4.1-38.1,3.1-56.9
	c-0.5-10.2-6.3-21.1-12.4-29.8c-3.8-5.5-12.3-8.5-19.3-10.9c-6.3-2.1-13.4-2.1-20.1-2.4c-5.3-0.2-10.7,0.6-16.1,1
	c0.2,1.4,0.3,2.8,0.4,4.1l-2.4-3.6c8,40.2,21.5,80.9-7,118.6c0.9,1.8,2.1,3.1,1.9,4.1c-2.9,12.5-6,24.9-9.1,37.3
	c-0.2,0.7-0.4,1.5-0.6,2.2c0.7,0,1.4-0.1,2.1-0.4c2.2-1.2,4.2-2.4,7.6-4.4l-4,4.9l0.9,0.5C533.7,407.9,534.2,407.2,533.7,408z"/>
<path class="st0" d="M644,388.1c2.6-3.3,5.2-6.5,7.8-9.8c0.3-0.4,1-0.5,1.1-0.9c1.2-4.8,2.4-9.6,2.8-10.9c-2.7-3.4-3.6-4-3.6-4.8
	c0.1-1.2,0.3-2.3,0.7-3.4c0.9-3.7,1.8-7.4,3-12l-7.5,4.7c1-3,2.3-5.9,2.9-8.9c1.4-7.6,2.8-15.2,3.5-22.9c0.7-8,1-16.1,0.8-24.1
	c-0.1-7.4-0.6-14.8-1.7-22.1c-1.3-8.1-4.3-16-5.3-24.2c-0.3-2.8,3.3-6.1,5.2-9.3l-3.2-1h29.8l-1.2,0.2c-0.7,1.7-1.3,2.6-1.1,2.8
	c0.6,0.7,1.4,1.7,2.3,1.8c1.2,0.1,2.5-0.9,3.6-0.6c9.1,2.8,18.2,5.5,27.1,9c1.7,0.7,1.5,5.3,3.2,7c4,3.7,8.2,7.1,12.7,10.2
	c0.8,0.6,3.2,0,3.2,0.3c0.7,3.1,1,6.2,1.1,9.3c0,1.9-1,3.8-1.8,6.7c-3.1,0.4-8.3,2.8-10.8,1.1c-6-4.2-10.1-11.4-16.3-15.3
	c-4.7-2.9-12-4.6-16.9-3c-3,1-4.1,9-5.4,14.1c-1.5,5.9-2.7,11.9-3.6,17.9c-0.4,3-0.3,6,0.1,9c0.6,4.5,1.5,9,2.5,13.5
	c0.2,0.9,1.7,1.5,2.2,1.9c0.8-2.8,1.5-5,2.2-7.2c0,0,1.4,0.2,1.4,0.4c0.7,2.7,0.9,5.4,0.7,8.2v-0.4c-1.9,0.7-5.6,2.5-5.9,2.1
	c-1.8-2.7-3.8-5.8-4-8.9c-0.7-8.5-0.5-17-0.6-25.5v-6.7c0.9-1.8,2.3-3.3,2.3-4.6c-0.3-3.8-0.7-7.5-1.4-11.2
	c-0.1-0.5-0.8-1.3-0.7-1.5c1.2-1.2,2.4-2.2,3.8-3.1c1.3-0.8,2.7-1.5,4.1-2.2l14.5-1c5.3,5.5,10.6,12.8,17.5,17.7
	c9.1,6.4,9.8,5.6,13.8-6c0.3-1-1.7-3.2-3.1-4.3c-4.4-3.4-9.1-6.4-13.6-9.7c-1-0.7-1.5-2-2.3-3.2l1.6-0.4l-1.6-4
	c-2-1.9-4.3-3.3-6.9-4.2c-5-1.5-10.6-1-15.7-2.2c-4.9-1.1-9.5-3.9-14.5-4.8c-4.6-0.9-9.5-0.4-14.2-0.2c-0.2,1.5-0.4,2.9-0.4,4.4
	c-0.1,0.3-0.3,0.6-0.7,0.7c-0.4,0-0.8-0.2-1-0.5c-0.4-0.9-0.6-1.9-0.9-2.9c-1.2,1-3.5,2.2-3.3,3c0.9,6,2.5,11.8,3.3,17.8
	c0.6,5.6,0.9,11.2,0.9,16.8c0.1,3.4-0.3,6.9-0.5,9.9l2.9-1.1c-0.1,2.9-0.2,5.9-0.2,8.8V314c0.6-0.1,0,0-0.7,0.1
	c0.3,1.7,0.5,3.4,0.8,5c-0.6,0.2-1.4,0.3-1.5,0.6c-1.7,8.6-3.4,17.3-5,25.9l4.4-2.1c0.5,1.9,1.2,4.1,1.9,6.6l-1.4-0.5
	c-0.9,3.2-1.7,6.4-2.7,10.1l6.5-4c-4.1,13.4-7,23.2-10.7,35.4l-2.9-4.6l-3.1,1.6L644,388.1z"/>
<path class="st0" d="M189.3,244.8c2.7-1.2,5.4-2.5,8.2-3.6c10.3-3.8,26.2,1.7,30.8,12.1c4.4,9.9,9.8,20.8,9.6,31.1
	s-5.9,21.1-11.3,30.5c-4.8,8.3-11,15.5-18.5,21.5c-7.5,6-17.3,8.8-25.2,14.4c-3.6,2.5-6.4,8.2-6.8,12.8c-0.8,8.7,0.4,17.5,0.9,26.2
	c0,0.3,1.1,0.6,1.9,0.9c-0.4,0.2-0.8,0.4,0.2-0.1c-1.4,6.5-0.8,14.9-4.1,17c-5.8,3.5-14,3.2-21.3,4.3c-1.3,0.2-2.7-0.3-1.6-2.2
	l21.1-2.8c0.3-3,0.6-6.2,1.1-10.8c-0.5,0.7,0.2,0,0.5-0.9c0.1-0.5-0.5-1.2-0.1-0.3c-0.6-3.9-1.5-6.4-1.2-8.7
	c1.7-12.1,3.3-24.2,5.9-36.1c0.4-1.7,6.9-1.4,9.8-3.2c4.6-2.9,8.5-7,13-10.2c3.9-2.8,9.8-4.2,11.9-8c7.5-13.1,15.8-26.3,19.9-40.6
	c2.3-8.1-1.2-19.2-5.2-27.4c-3.4-7-10.3-14-17.3-16.9C205.4,241.1,196.8,244.2,189.3,244.8L189.3,244.8z"/>
<path class="st0" d="M146.4,404.8c0-8.6-0.3-17.2,0.1-25.8c0.4-10,1.4-20,1.9-26c-2-6.4-3.7-9.3-3.6-12.1
	c0.5-16.6,1.9-33.3,1.9-49.9c0-9-2.9-18.1-2.6-27.1c0.3-7.3,3.5-14.6,4.8-19.7v74h0.4v86.6L146.4,404.8z"/>
<path class="st0" d="M644,388.1c0.1,3.7,0.2,7.4,0.3,11c0,0.4-0.3,0.8-0.2,1.1c0.3,0.7,0.6,1.4,1,2c0.3-0.4,0.7-0.8,1-1.1
	c0.2-0.1,0.4-0.2,0.6-0.1c0.3,0.2,0.7,0.6,0.7,0.9c0.1,1.2,0.2,2.4,0.2,3.6l2.1-1.4l60.8,3.6c1.5-7.8,2.8-14.1,3.8-20.6
	c0.5-3.4,0.1-6.9,1.3-10.5v25.6c-3.4,2.6-8.7,10.1-14.5,10.5c-12,0.8-24.2-2.3-36.4-3.7c-6-0.7-14.5,1-17.5-2.4
	C643.8,402.6,644.9,394.4,644,388.1L644,388.1z"/>
<path class="st0" d="M677.7,352.2v27.6c1,0.1,1.8-0.1,2.1,0.2c0.8,0.7,1.3,1.6,4,5.2c2.7,1.2,5.5,2.2,8.3,3.1
	c0.6,0.2,1.8-1.8,2.7-2.8c0.2,0.9,1,2.3,0.6,2.7c-1,1.1-2.2,2.1-3.4,2.9l0.7,0.4l-1.2,1.8l-14.3-9.8c-0.9-7.2-2.2-15.3-2.8-23.5
	c-0.2-3.2,1.2-6.6,1.9-9.9L677.7,352.2z"/>
<path class="st0" d="M176.5,290.9c-0.6-6.3-1.9-12.7-1.5-19c0.6-10.1,9.3-4.2,14-5.5c3.6-1,8.9,0.9,12.4,3.2
	c2.4,1.6,4.9,6.4,4.2,8.8c-2.1,6.7-5.8,12.9-9.5,19l10.1-21.7c-0.6,0.2-1.3,0.3-1.9,0.4c-5.2-13.5-16.5-2.2-24.1-5.9
	c-1.4,3-3.4,6-3.9,9.1C175.7,283.1,176.3,287.1,176.5,290.9L176.5,290.9z"/>
<path class="st0" d="M677.7,352.2l-1.4-2l-3.5-7.1l19.8-1.7c1,3.4,1.9,6.4,3.2,10.6c0.5-0.1-2.4,0.9-2.7,0.4c-1-1.8-0.9-4.3-1.9-6.2
	c-0.5-1-3.1-2.1-3.7-1.7C684.1,346.8,681,349.6,677.7,352.2z"/>
<path class="st0" d="M737.3,189.1c5-7.9,10.8-14,21.5-12.1c3.5,0.6,7.3-0.9,11-1.3c1.3,0,2.6,0.2,3.9,0.5c-2.4,11.1-10.2,2-15,4
	c-5.4,2.2-11.1,3.4-16.6,5.4C740.3,186.3,738.9,187.9,737.3,189.1z"/>
<path class="st0" d="M701.5,316.9c1.4,2.6,1,2,0.7,1.3l0.5-0.4c0.5,0.7,1.4,1.5,1.3,2.2c-0.3,4.6-0.7,9.3-1.2,15.1
	c-2-9.8-3.6-17.9-5.3-26.1l1.2-0.4C700.1,312.7,701.4,316.7,701.5,316.9z"/>
<path class="st0" d="M176.4,291c0.5,2.2,1.6,4.4,1.4,6.5c-1,10.9,4.1,9.6,10.9,6.1l-8.9,4.2c-0.9-3.2-1.9-6.4-2.6-9.7
	C176.8,295.7,176.6,293.3,176.4,291L176.4,291z"/>
<path class="st0" d="M684.7,314.3c0.2,1.3-0.8-0.9-0.1-1.6c1.9-2.2,4.5-3.9,6.8-5.8c0.5,1,0.9,2,1.2,3.1c-0.1,0.8-0.6,1.4-1.2,1.8
	C689.2,312.6,687,313.4,684.7,314.3z"/>
<polygon class="st0" points="287.5,213.7 287.5,213.9 287.5,213.7 "/>
<path class="st0" d="M403.6,53.9c3.1-0.2,9,1.8,9,2.4c-0.9,9.9-3.4,19.8-3.9,29.7c-0.6,13.9-10,11.1-18.9,12.4
	c-19.4,2.8-12.9-26.1-14-37.2C375.4,56.7,399.8,54.3,403.6,53.9z M373.6,57.7c0,12.1-1.3,24.5,0.9,36.1c0.6,3,12.3,5.6,18.8,5.2
	c5.5-0.3,13.2-3.7,15.6-8.1c3.9-7.1,5-16.1,5.9-24.4c0.8-7.2,1.8-16.2-10.6-14.4c-2.5,0.4-4.8,1.7-7.3,1.9
	C393.9,54.7,376.8,56.3,373.6,57.7L373.6,57.7z"/>
<path class="st0" d="M331.7,353.8c-12.9-0.1-8.7-11-9-17.1c-0.6-11.5,1.1-23.1,2-34.7c0.2-1,0.5-2,1-3c2.5,1,4.9,2.2,7.4,3.1
	c14,4.6,10.4,18.4,14.4,28.1C351,338.7,340.9,353.2,331.7,353.8z M342.1,320l-12.6-20.4l-5.1,2v50.3
	C344.7,348.2,344.7,348.2,342.1,320z"/>
<path class="st0" d="M572.8,305.6c6.1,0.2,12.2,0.1,18.1,0.9c1,0.1,2.3,4.2,2.2,6.3c-0.3,7.6-1.2,15.3-2,22.9
	c-0.1,0.8-1,1.5-2.5,3.5c0.7-8.7,1.8-15.9,1.7-23.1C590.3,303.3,580.4,306.2,572.8,305.6L572.8,305.6z"/>
<path class="st0" d="M572.7,305.6c-1.6,14.3-3.2,28.6-4.8,43.8l15.2-1.4l-17.5,3.2C568.1,335.1,570.4,320.4,572.7,305.6L572.7,305.6
	z"/>
</svg>
