<svg xmlns="http://www.w3.org/2000/svg" viewBox="0 0 885.8 680.92"><defs><style>.cls-1{fill:#4b6868;}.cls-2{fill:#9be8ea;}</style></defs><title>SURFSUP3</title><g id="Layer_2" data-name="Layer 2"><g id="Layer_1-2" data-name="Layer 1"><path class="cls-1" d="M444.18,451.09C577.26,451.46,791.1,466,885.8,569.72c0,0-134.49,108.7-437,111.14S31,611.92,29.8,567C28.65,524.27,186.61,450.38,444.18,451.09Z"/><path class="cls-2" d="M158.8,66.26c-2-2,6-60-8-61s-64-16-77,13-23,73-7,95,54,13,49,41c-3,17,25,25-3,31s-40-29-47-9-17,36,8,35,53,21,67,2,28-16,24-35,14-48-6-65-36-32-39-41-8-13,11-10,29,13,28,14S158.8,66.26,158.8,66.26Z"/><path class="cls-2" d="M257.8,24.26c8-9,35-16,38-10s20,80,16,89-15,91-22,95-47,11-56,10-35-10-41-34-3-53-5-75-6-80-2-87,38-6,42,0,4,76-3,108-2,51,4,54,21,12,24,7,10-58,12-69-10-69-9-75S257.8,24.26,257.8,24.26Z"/><path class="cls-2" d="M355.8,204.26c-17,0-26,12-24-30s6-85,1-104-13-51-6-53,92-14,100-7,30-5,35,16,9,45,3,59-25,41-29,42,2,10,4,15,22,41,8,58-45-17-47-24-3-31-10-34-18,18-20,29S359.8,204.26,355.8,204.26ZM377.67,93.47c.7,3.49,24.45,4.19,30-.7s5.59-30,4.89-34.23-28.87.58-34.93,2.09C372.08,62,377,90,377.67,93.47Z"/><path class="cls-2" d="M483.8,22.26c-3,20.88,14,52,15,88s-11,82,4,89,34,8,31-3,2-65,8-70,22,17,26,10,24-22,23-26-1-25-22-16-29-8-22-15,34-29,53-17,15,24,19,19,16-18,15-29,8-48-5-44-112,6-122,6S484.8,15.26,483.8,22.26Z"/><path class="cls-2" d="M667.8,5.26c-5,13-6,40,0,43s23-3,23-13,6-23,6-23c5-4,8-14,2-12s-23,6-23,6Z"/><path class="cls-2" d="M823.8,29.26c0,17.12,6,46-7,41s-37-20-44-12-15,17-6,21,49,28,52,48,13,48-7,57-24,7-53,11-46,16-57-6,15-15,17-14,26,5,38-3,17-26,13-34-45-29-55-47-19-33-3-55,69-30,78-28S823.8,9.26,823.8,29.26Z"/><path class="cls-2" d="M857.8,285.26c2-8,11-39,5-42s-61-6-72-2-35,9-30,24,4,54,24,70,38,31,28,41-43-11-48-7-20,20-17,24,31,19,44,18,49,0,62-20,15-20,7-40-4-33-23-46-21-29-21-29,16-1,21,5,6,11,13,10S857.8,285.26,857.8,285.26Z"/><path class="cls-2" d="M707.8,318.26c-2.37,19-4,38-10,38s-19-12-18-5,2,29,8,29,34-18,33-8,3,38-7,40-63,10-69,0-9-27-5-33,15-87,10-107-6-35,0-38,44-1,46,3,33,18,35,28,7,23-3,24-25-22-35-20-15,34-13,38,11-10,16-7S708.8,310.26,707.8,318.26Z"/><path class="cls-2" d="M617.8,264.26c14.63,24.38-5,110-11,143s-8,4-44,4-49,15-48,1,31-83,28-103-12-67-8-72S599.8,234.26,617.8,264.26ZM567.8,348s14.2-3.55,17.76-2.66,5.32-29.29,6.21-35.51-17.87-.77-17.87-.77Z"/><path class="cls-2" d="M458.8,254.26c4-11,20-20,29-12s18,23,13,63-13,99-42,106-46,3-53-4-12-72-11-82-1-77,6-81,32-8,34,0-6,84-6,84a226.64,226.64,0,0,1,4,24c2,16,8,28,14,24s4-79,6-86S458.8,254.26,458.8,254.26Z"/><path class="cls-2" d="M277.8,239.26c-1.24-3.39,68-8,79,7s30,56,25,89-5,30-8,45-9,32-40,35-32-5-47,0-14-15-9-28S296.8,291.26,277.8,239.26Zm46,104s2,11,10,9,13-15,11-31-18-22-18-22Z"/><path class="cls-2" d="M68.8,246.26c12-3,54-33,55,11s4,128-24,149-64,15-73,6-26-32-26-63,4-83,0-94,8-24,15-23,38-3,35,36-3,94,3,93,20-19,18-43S68.8,246.26,68.8,246.26Z"/><path class="cls-2" d="M143.8,243.26c3-9,34-2,32.61-3.21s40.39-12.79,58.39,17.21,5,12-3,51-35,35-47,41-6,41-6,56-15.58,6.79-32,15C140.8,423.26,140.8,252.26,143.8,243.26Zm41,59c12-5,20-24,17-31s-25-2-25-2S172.8,307.26,184.8,302.26Z"/><path class="cls-2" d="M677,9.74c-2,9-4.45,17.83-5.68,26.89-.34,2.48,3,5.46,4.62,8.21,2-2.8,6.19-6.57,5.48-8.25-4.83-11.47,5-15.83,9.88-22.58a49.4,49.4,0,0,0,2.53-4.27h5.28L683.61,27.18l.74-.64,2.76,1.36L676.33,48.39c-3.15-4.77-9-9.64-8.85-14.31.26-8.17,4.21-16.23,6.61-24.34Z"/><path class="cls-2" d="M104.41,394.84c1.48-2,2.39-3.32,3.31-4.58l2,2.18-20.86,19c-.87-1.24-.45-.64.16.23H80l-.58-3.23c-6.37,1.08-12.71,2.27-19.09,3.23a115.33,115.33,0,0,1-18.55,1.56,3.88,3.88,0,0,1-1.89-.15C13.29,396,5.29,370.64,7.2,340.62a13.19,13.19,0,0,0-.32,1.64c-.16,2.05-.28,4.11-.42,6.16a54.05,54.05,0,0,1-1.12-7.59c-.16-11.09-.54-22.2,0-33.27.37-7.73,2.88-15.38,3-23.09s-1.84-15.32-2.6-23c-.24-2.39.44-4.88.7-7.32l1,.85c4.93-15.54,15.87-20.86,30.78-13.11,3.73,1.94,5.73,9.66,6.22,14.94,1.18,12.58,1.15,25.29,1.32,37.95.23,17.91-.4,35.86.56,53.73.4,7.59,1.73,18.27,13,16.17,4.26-.8,8.72-8.85,10.23-14.38A215.21,215.21,0,0,0,75.64,315c.67-6.69-1.3-13.59-1.54-20.41-.5-14.16-1.93-28.5-.12-42.39.53-4,10.53-7.31,16.61-10,4.32-1.89,9.33-2.32,14.09-3.07,12.41-2,14.22,8.38,14.79,15.73,1,13.64-.54,27.49-1.13,41.25-.69,16.35-1.21,32.71-2.35,49a230.53,230.53,0,0,1-4,30.65C110.73,382.09,107.28,387.9,104.41,394.84ZM79.53,249.73v70.53c2.65-1.78,1.68-1.48,1.6-1-1.69,10-2.74,20.18-5.08,30C74,358,70.48,366.45,67.61,375l-4-1.29,1.67,1.9H49.92l-14.3-30.83,2.45-1.07,1.1,6V264h1.45l-.48-9c-2.74-2.27-4.6-5-6.17-4.9a106.15,106.15,0,0,0-19.12,3.57c-1.26.33-2.34,4.33-2,6.43C13.8,268,17,276,16.48,283.69c-.62,9.58-5.77,18.94-5.91,28.44-.18,12.3,2.77,24.62,4.13,37,.42,3.76.07,7.6.07,11.41l.93-.11-1,6c.48.95.94,1.75,1.28,2.6,3.84,9.53,7.52,19.14,11.67,28.53.61,1.39,3.46,1.79,5.27,2.65l.53-2.95,2.89,3.86-.78,2.12,2.44-.4.24,3.7c6.43-.42,12.9-.54,19.28-1.32a222,222,0,0,0,24.84-4.06A29.41,29.41,0,0,0,93.8,395a34.24,34.24,0,0,0,9-10.7,65.85,65.85,0,0,0,5.7-17.73c1-5.75-.33-11.86.51-17.64,1.15-7.87,3.72-15.53,5-23.39.48-3-1.21-6.22-1.37-9.38-.14-2.94.44-5.91.81-10.21-1.19.89-.26.56-.16.07,1-5.21,2.68-10.44,2.78-15.68.23-12,.74-24.25-1-36.1-.85-6-2.36-15.69-13.27-12.93-7.29,1.84-14.41,4.37-21.59,6.65a32.63,32.63,0,0,0-3.56,1.62l.8,1.22Z"/><path class="cls-2" d="M99.74,18.81c12.34-1.4,24.68-2.86,37-4.17,11.86-1.26,19.59,10.5,17.84,23.08-1.43,10.26.62,21,1.12,31.53a3.15,3.15,0,0,1-.1,1.64c-.15.23-1.1.22-1.49,0-9-5.49-18.39-10.59-26.9-16.82-2.73-2-2.89-7.24-5-10.53-1.08-1.7-3.76-2.39-5.72-3.53-1,2.71-3.75,6.64-2.81,7.94,6.91,9.58,5.18,13.74-6.86,14.64-1.49.12-4.64,9.17-3.11,11.78,2.83,4.82,8.41,8.15,13.13,11.73,11.51,8.75,25.77,15.36,34,26.47,8,10.72,15.39,24.48,8.35,40.63-2.12,4.87,4.76,13.38,3,18.77-2.59,8-8.52,15.27-14.2,21.84-19.29,22.31-44.74,8.71-67.45,10-4.77.28-11-7.13-14.49-12.35-1.11-1.63,3.86-8.21,7.12-11.44,1-1,5.58,1.79,8.55,2.74,10,3.18,20,8,30.11,8.53,3.46.19,7.51-10.3,11.3-15.91,7.93-11.73,1.54-32.17-10.09-39.72-15.54-10.08-29.83-22.09-44.31-33.72-1.07-.86,1.36-5.35,1-8-.88-7.46-2.38-14.84-3.55-22.26C65.57,66.74,63.37,61.41,64.5,57,67.43,45.5,70,33.1,76.43,23.61c3.7-5.45,14.71-6,22.42-8.69Zm52.58,146.47c1.09-.83,2.18-1.22,2.27-1.78.84-5.26,2.42-10.61,2-15.8a92.76,92.76,0,0,0-4.23-19.7c-1.86-6-3.39-12.92-7.39-17.31-6.45-7.07-14.56-12.79-22.49-18.32-4.31-3-9.7-4.44-14.58-6.57.08-.13-.16.28-.39.69-3.74-5-10.48-10-10.43-14.94,0-5.86,6-11.66,7.43-14.21l5.15.19c1.69,0,3.39.1,5.08.06a2.06,2.06,0,0,0,.2-1.27c-1.5-3.32-5.14-7.54-4.14-9.79,1.7-4,6.11-6.8,9.62-9.83.37-.32,2.59,1,3.56,2,4.45,4.42-2.82,18.66,12.76,14.47,3.12-.83,8,4.92,11.88,7.51l1.4-3.22,3,4.94c-.33-2.75-.51-4.5-.76-6.25-.68-4.76-3.42-10.49-1.69-14.07,4.27-8.8-.85-22.45-10.48-22.8-6.29-.28-12.63,1.72-19,2.09-4.67.32-9.42-.44-14.12-.3-8,.24-20.89-2-23.18,1.81-5.95,10-8.06,22.64-10.12,34.5-1.18,6.76.72,14.06,1.24,21.12l2.5-.27-.08.23.51.22L75.53,93.93l-3.47.69,2.82,7.71-1.26-.06c4.27,5.14,8.16,9.8,9.9,11.89l43.53,21.58c2.43,7.57,6.58,15.21,6.88,23,.25,6.81-3.83,13.77-6,20.67-3.82,6.36-8.63,12.23-14.8,14.68-5.2,2.06-12.44,1.54-17.95-.31-6.68-2.25-12.47-7.1-18.65-10.82-.79,1.81-1.5,3.66-2.37,5.43s-2.79,3.46-2.62,5c.33,2.9,1.84,5.67,2.85,8.5l3.29-2.64,3.75,1.37c-.48-1-1-2-1.45-3-.59-1.15-1.22-2.28-.5-.93l21.46,4.54-.12-.85,3.41,1.11c1.07-1,1.85-1.81.22-.22l4.3.22,11.68,1.11.11-1.31,17.77-3.48-.4-.25c7.56-9.74,24.71-13.53,17.24-32.27Z"/><path class="cls-2" d="M219,156.61c1.41.17.78.1.27,0,1.42,6.49,1.81,13.36,4.58,19.08,1.78,3.66,7,5.82,10.82,8.31,10,6.4,18.84,2.24,26.37-4.26,1.69-1.45-1.81-7.88-1-11.58,3.11-13.72,8.33-26.76,10.9-40.67,3.51-19,6.48-41.64,1.3-60.62-.92-3.36-4.78-17-9.44-17.09-1.81-9.49.29-26.93,12.49-28.58a40.13,40.13,0,0,1,21.56,2.92L294.33,23c1.27,3.79,3,7.22,3.54,10.84,2.06,13.67,4,27.37,5.9,41.06,1.76,12.49,2.6,24.84-1.17,37.08-5.37,17.47-8.53,35.63-12.57,53.51-2.17,9.61-3.19,19.67-6.84,28.68-1.22,3-8.92,3.59-13.76,4.89-8.62,2.33-17.21,5.21-26,6.24-6.58.77-13.45-1-20.6-1.7l1.38-1.77a7.67,7.67,0,0,0-1.44-.63c-15.67-3.14-26.14-16.4-25.51-32.64.25-6.46-6-13-6.66-19.72-1.24-13.12-.41-26.43-.81-39.65-.36-12-1.92-24.07-1.66-36.08.26-11.45,5.83-24.93,2.23-36.08-.74-2.29-1.86-4.47-2.16-6.85a12.7,12.7,0,0,1,3.71-10.12c8.44-8.86,17.79-5,28-2.81,1.65.34,3.35.44,5,.92a6.23,6.23,0,0,1,3.89,2.95c.94,2,.24,4.25-.31,6.34-3.76,14.36-.57,29.16-.08,43.7.53,15.49-4.48,29.51-8.72,44.19C216,128.07,219,142.72,219,156.61Zm34.44,44h1.62a12.19,12.19,0,0,0,3.42-.76,74.27,74.27,0,0,0,7.76-2.84c2.94-1.33,5.77-3,8.95-3.65,4.81-.9,9.59.25,11.6-5.42a23,23,0,0,0,.93-6.8c.81-20.16,4.89-40.11,8.4-59.93,2.14-12.11,5.58-24,7.09-36.18.59-4.68-1.75-14.17-1.9-15-1.33-7.4-2.55-14.82-4-22.18-1.44-7.1-1.77-15-5.29-20.88-1.9-3.2-9.57-4.34-14.42-3.91-3.18.27-8.46,5-8.48,7.76-.06,9.36,1.33,18.84,3.12,28.08,1,5.36,4.79,10.23,5.59,15.57.49,3.32-3.57,7.2-3.34,10.68.67,9.85,3.8,19.67,3.46,29.42-.29,8.23-4.07,16.34-6.29,24.51-2.55,9.41-7.38,18.9-7.06,28.22.46,12.93-5,20.26-16,22.3-7.5,1.4-15.56-1.59-22.85-3.14l.78-3.3a1.19,1.19,0,0,0,0-.79c-.23-.39-.79-.36-1.23-.43-1.4-.24-2-1.85-2.41-3.21-1.68-6.12-3-12.46-5-18.47-1.92-5.71-4.17-10.92-4.62-17-.76-10.3,3.15-22.31,5-32.34,3-16.28,5.91-32.72,10.06-48.76-.15-.36-.71-.3-1,0a4.45,4.45,0,0,1-.84.84,1.37,1.37,0,0,1-1.72-.64,3.91,3.91,0,0,1-.34-2V22.06c-3.62-.95-8.58-2.3-13.57-3.55-16-4-20.73-1.42-20.36,12.29.13,4.63,4.77,9.19,4.76,13.77,0,8.21-2.82,16.4-3,24.62-.2,10.62,1.32,21.25,1.66,31.89.84,26.21-4.25,61.06,13.24,83.47,1.25,1.61,2.31,3.65,1.77,5.61h3.67l-.82,2c5.37,2.57,10.94,6.12,16.75,7.56,4.62,1.15,9.39.84,14.09.48,3.78-.31,7.19.33,10.82.43Z"/><path class="cls-2" d="M632.17,13.45l-3,.76c7.34,8.9,5.61,31.13-1,32.75.49,6.13,2.68,12.63.93,17.78-1.58,4.66-7.47,7.85-11.47,11.69-3.6-4.79-6.37-10.79-11.06-14C602.1,59.34,595.66,59,590,57.73c-2.63-.61-5.62-1.57-8-.89-8,2.22-15.81,4.88-23.51,7.86a20.84,20.84,0,0,0-11.34,9.65c-1.23,4.19-2.06,8.54-3.75,12.54-4.49,10.68,1.63,12.68,10,12.09,6.41-.44,12.71-2.15,19.1-3.06,3.58-.51,7.24-.52,10.16-.71a21.73,21.73,0,0,1,.63,2.23c.8,5.51,1.87,11,2.1,16.57,0,.9-3.94,1.62-5.54,3a31.86,31.86,0,0,0-6,6.85c-2,3.13-3.28,9.36-5,9.42-4.16.12-9.52-1.48-12.41-4.36-10.62-10.62-12.09-10.45-17.26,3.62-3.83,10.43-9.57,20.33-12,31-1.32,5.91,3.27,12.93,3.68,19.54.3,4.82-1.8,9.81-3,14.68-.27,1.15-1.16,2.15-2.44,4.43-8.81,0-20.37-3.07-21.85-13.17-2.37-16.08.38-32.85.12-49.32-.18-10.67-2.18-21.3-2.77-32-.38-6.84,1.39-13.92.27-20.57-1.63-9.66-5-19-7.62-28.51-2.81-9.9-8.81-18.82-3.81-30.48s15.89-9.74,23.71-10.93c13.2-2,27,.42,40.64.66,13,.22,26.13.69,39.12-.19,12-.81,23.8-3.27,35.7-5C629.58,12.63,630.24,13,632.17,13.45ZM619.8,76c2.87-3.94,5.82-6.21,6.21-8.85q2.81-18.89,4.31-38c.29-3.69-.66-10.37-2.29-10.79-5.41-1.39-11.45-1.07-17.15-.46-13.08,1.44-26.08,4.7-39.19,4.78-13.71.08-27.41-3.26-41.16-4-7.29-.38-14.77,1.27-22,2.65-4.92.92-11.19,1.62-14,4.89s-2.07,9.44-2.17,14.37c-.08,4.09.91,8.21,1.42,12.32l.91-.17c-.23-.94-.46-1.88.06.26,18.28,16.18,5.72,41.39,11.35,62.34,1.18.74,2.35,1.13,2.34,1.51-.11,7.89-.19,15.78-.62,23.65-.76,13.8-2.19,27.58-2.39,41.38-.06,4.1,3.06,8.25,4.65,12.2a42.05,42.05,0,0,1,4.76,2c8,4.81,13.51,4.63,13-6.75-.1-2-1.75-4-1.73-6,.1-9.17-.81-18.64,1.18-27.43,2.7-11.94,7.71-23.36,11.74-35l-.77-1.1c3.2-1.14,6.35-2.47,9.63-3.28.7-.17,1.87,1.53.92.7l14.42,13,22.58-23.45-.74-.47c-.65.76-1.3,1.52-.12.15-2.29-2.93-4.61-8.29-6.8-8.23-5,.13-9.78,3.45-14.86,4.48-6.28,1.26-12.76,1.51-19.15,2.2l-.27-2.43,1.24-.89c-2.65-1.6-7.56-3.7-7.35-4.57,2.18-9,4.11-18.33,8.33-26.42,2.8-5.37,8.62-10,14.18-12.82,4.19-2.11,10.19-.3,15.26-1.08,7-1.08,14.34-5.18,20.71-3.88,6.54,1.33,12.49,7.12,17.87,11.89,2.54,2.25,3.14,6.68,4.62,10.12l.76-.33C619.27,73.89,619.13,73.35,619.8,76Z"/><path class="cls-2" d="M814.7,176.33c.1-6.33,4.15-11.33-.9-19.26-4.35-6.78-1-18.51-1-28,0-2.73,0-5.45-1.45-7.81.14-1.25.29-2.51.81-7-1.41,3.85-1.67,4.57-.92,2.53-4.33-2-9.32-3.42-13.27-6.27-8.17-5.92-15.47-12.79-23.5-18.7-4.16-3.06-9.16-4.94-13.76-7.42-6.29-3.39-8.45-7.69-3.8-14.26,1.92-2.7,2.44-6.34,4-9.33a97.25,97.25,0,0,1,7.3-12.21c1.64-2.26,5-5.76,6.28-5.27,3.07,1.19,5,5.78,8,6.48,6.38,1.5,13.3.67,19.69,2.17,5.07,1.18,9.67,4.39,15.47,7.17.42-3.48.91-7.6,1.54-12.89l-2.58,2.4c-.37-.45-1-.86-1.08-1.36-.5-2.43-1.76-5.17-1.08-7.26,1.47-4.58,4-8.84,6-13.23-5.32-2.18-10.66-6.25-16-6.19a323.89,323.89,0,0,0-43,3.38c-15.47,2.23-32.66.64-43.32,16.07.22.12.8.42-.08,0-2.38,7.07-4.69,13.93-7.26,21.45,3.3,8.06,5.36,17.31,10.47,24.33,4.8,6.6,13,10.64,19.34,16.23,2.73,2.41,4.5,5.89,6.7,8.88l-3,1.36,19.93,8.08-4.37-3.69,2.07-1.84c6.68,7.65,14.72,14.57,19.43,23.3,2.17,4-2.18,11.56-3.57,17.45l2.8-2.41c-9.19,13.62-15.92,26.92-31.64,29-14.36,1.9-29,1.95-44.12,2.85-1.11,11.7,11.77,8.93,19.63,9.62,13,1.15,26.3.08,39.42-.76,4.47-.28,8.8-2.68,13.2-4.11-12.79,3.28-25.44,8.21-38.42,9.29-10,.83-20.45-2.81-30.48-5.34-2.65-.66-5.23-4.28-6.41-7.14-.81-2,.63-7.05,1.41-7.13,3.56-.33,7.25.56,10.88,1.1,7.9,1.17,15.8,2.4,23.07,3.51l5.57-2.21c6.79-2.71,14.15-4.54,20.11-8.49,3.15-2.09,4-7.82,5.59-12,2.84-7.53,9.48-16.82,7.2-22.33-3.41-8.19-13-13.9-20.3-20.35-5-4.46-10.5-8.4-15.81-12.51a7.9,7.9,0,0,0-2.92-1.47c-1.13-.26-2.94.41-3.44-.18-3.17-3.76-5.76-8-9.14-11.57-2.49-2.61-5.88-4.36-7.57-5.56-1.7-5.64-3.1-10.23-4.48-14.83-1-3.37-2.36-6.7-2.89-10.16-1.92-12.51,5.91-29.28,17.39-34.36C733.34,25,741.4,24.91,748.8,23c8.61-2.26,17-6.8,25.63-7.26a243.77,243.77,0,0,1,44.77,2.09c2.21.29,6,13.2,4.22,14.86-8.39,7.59-1.33,13.89-.83,20.86.26,3.69-3.82,7.74-6.11,11.52a2.7,2.7,0,0,1-2.35.74c-1.39-1.14-2.51-2.62-3.17-8.36l-40.29-5.08c-1.46,3.87-2.18,12.24-6.73,16.66-12.78,12.42,1.69,10.58,6.27,14.44,5.71,4.81,10.36,11,16.33,15.37,6.71,4.94,15.69,7.34,21.24,13.17,4.81,5.06,7.11,13.14,8.87,20.28a94.42,94.42,0,0,1,2.79,25C819.22,163.67,816.37,170,814.7,176.33Z"/><path class="cls-2" d="M480.31,375.19c5.05-18.71,11.95-37.17,14.62-56.23,2.5-17.84.54-36.31.54-54.64l1.43-.1c-2.79-15.54-12.6-22.12-27-17.24-3.92,1.33-4.84,11.49-7.08,17.62l1.55.7c-.54,1.13-1.2,2.54-1.49,3.17,1,.75,1.88,1.11,1.88,1.47a70.57,70.57,0,0,1-.28,7.83c-.72,7-1.93,14-2.27,21-.51,10.37-.47,20.77-.61,31.16-.07,5.45,0,10.91,0,16.73-1.19,4.85-3.91,10.65-3.7,16.34.33,8.85-12.53,23.69-20.48,20.37-4.28-1.79-7.4-9.25-8.7-14.7a240.76,240.76,0,0,1-5.07-33.36c-.72-7.71.14-15.57.07-23.36,0-5.58-.4-11.15-.76-16.72,0-.73-1-1.4-1.28-1.82-.49-1.35-.92-2.56-1.27-3.53.58-.4,1.33-.91,2-1.46,0,0-.17-.65-.29-.66a16.66,16.66,0,0,0-2,.14l8.33-22.39c-.69-2.09-1.29-3.89-2.15-6.47l2.16,2c.33-2.16.65-4.21,1.25-8-1.27,2.48-1.71,3.33-2.68,5.25.47-2.94.75-4.73,1.08-6.78L426.8,253l-4.7-8,.69,4.22c-.14,0-.36.13-.41.07-1-1-2-2.12-3-3.18,1-.67,2-1.94,2.92-1.9,2.61.09,6.9,0,7.51,1.29,2.27,5,3.34,10.47,5,16.2-1.17,3.38-2.21,6.05-3,8.79-2.21,7.51-5.29,14.94-6.21,22.62-1,8.54-.28,17.34.09,26,.46,10.79,1.33,21.57,2,32.36.28,4.54.43,9.1.44,9.44,4.14,8.11,6.12,12.87,8.93,17.07,1.16,1.75,4.52,3.63,6.15,3.12,2.8-.88,6.25-3.1,7.27-5.62,3.12-7.76,6.67-15.8,7.36-24,.87-10.37-.89-21-1.57-31.45,0-.51-.56-1-2.23-3.73,1.44-8.45,3.28-19.14,5.11-29.82l.79.44V263.17h0c.06-12.68,10-22.33,21.54-21.3,10.26.92,21,19.75,18.83,29.8-2.47,11.56-2.57,23.63-3.7,35.48-.06.62-.14,1.23,2,1.76-.27,4.77.06,9.68-1,14.28-1.25,5.56-3.62,10.87-5.58,16.27-1.87,5.11-3.82,10.19-5.87,15.64l5-.61c-4.63,11-8.26,21.37-13.37,31-2.22,4.15-10.7,6.61-10.77,10-.25,10.46-7.28,12.34-14.35,13.73-6.61,1.3-13.73-.09-20.37,1.11-18,3.25-30.4-6.58-31.8-25.4-.9-11.95-3.38-23.82-3.52-35.75-.1-8.06,2.69-16.15,4-24.26.24-1.46-.31-3-.56-5.15l-1.76-.31c-.44-8.52-.88-17-1.23-23.64,2.31-11.37,5.52-21.15,6-31.08.73-14.08,5.61-24.25,12.19-20.61l-3,1.36c-3,16.79-7.35,34.21-9,51.88-1.57,16.45-.33,33.17-.33,49.77l-3.57.18c.39,5.46.79,10.91,1.19,16.49.5-.18-.21,0-.2.08,2.44,12.13,4.26,24.45,7.79,36.26,1.19,4,6.71,6.65,11.35,8.58l.76.79a39,39,0,0,1,4.14-1c10-.77,20.19-.75,30-2.62,3.58-.68,7-5.4,9.25-9,2.76-4.51,3.78-10.08,6.39-14.71,1.48-2.63,4.71-4.25,7-6.47.45-.43.29-1.5.41-2.28Z"/><path class="cls-2" d="M430.61,122.89c1.3,6.71,3,15.54,5,25.78,3.14,4.58,7.86,9.44,10.1,15.25,2.69,7,5.27,15.07,4.15,22.09-1,6.09-7.16,11.35-10.82,16.65l-1.13-.52c-.39.23-.7.55-.87.49-2.22-.87-5-1.2-6.53-2.78-7-7.45-14.66-14.59-20-23.13-4-6.26-3.89-14.94-7.18-21.79-4.53-9.45-9.53-19.1-16.53-26.63-1.88-2-15.36,1.69-17.21,5.69-5,10.74-6.17,23.17-9.56,34.73-3.06,10.45-7.08,20.61-10.5,31-.19.59,1,2.17,1.88,2.48,1.45.53,3.14.42,4.66,1.7H334.8v-1.35l.86-.1c-.38-4.72-1-9.31-1.06-13.9,0-8.49,0-17,.59-25.48.66-9.79,2.38-19.52,2.77-29.31.43-11.07-.23-22.18-.17-33.27,0-6.16,1.57-12.47.64-18.44-2-12.8-4.09-25.76-8.1-38-4.72-14.44,1.49-24.65,16.51-25.43,16.94-.87,33.82-3.77,50.73-3.85,15.85-.08,32.22.43,47.36,4.46,9.51,2.53,15.26,11.83,15,24.71-.16,10,8.7,19.82,2.76,30.86-1.68,3.13-4.28,5.82-5.62,9.06-4,9.56-6.5,19.88-11.63,28.72C442.8,117.2,435.85,119.42,430.61,122.89Zm-6.1-7,.07,1.28c4.45,0,10.82,1.84,13-.38,4.66-4.86,7.69-11.56,10.42-17.93,2.82-6.6,5.45-13.55,6.46-20.59a210.23,210.23,0,0,0,1.89-31.52c-.06-6.15-.05-15-3.75-17.83-6.5-5-15.62-7.7-24-9.08-11.07-1.82-22.52-2-33.79-1.88-12.57.17-25.11,2.09-37.68,2.21-23.23.22-26,2.87-22.68,19.89,3.39,17.47,5.24,35.25,7.25,53,.72,6.38.14,12.94-.19,19.4-.35,7-1.11,13.88-1.69,20.82l1.9.06.43-1.45c.07,3.23-.64,6.31-1,9.44-1.72,15.83-3.87,31.65-4.66,47.53-.21,4.22,3.85,8.66,5.94,13,1.76-1.91,4.33-3.52,5.13-5.77,3.41-9.53,6.54-19.18,9.29-28.92,3.67-13,6.9-26.09,10.56-40l.44.41,27.63-5.17c-2.51,4.11-3.06,4.63-3,4.9,1.77,4.65,3.47,9.33,5.49,13.88,3.8,8.59,7.93,17,11.64,25.68,1,2.36.11,6,1.6,7.62,5.69,6.35,12,12.21,18.11,18.12,2.53,2.43,6.4,7,7.9,6.41,13.54-5.62,16.61-21.08,7.8-33.44-5.38-7.54-10.62-15.38-14.49-23.75-3.78-8.15-5.75-17.14-8.43-25.49Z"/><path class="cls-2" d="M851.24,245.88l8.7,2.06c-1.76,2.51-4.94,5-5,7.54-.22,7.41,1,14.85,1.28,22.29a51.18,51.18,0,0,1-.85,9.88c-.08.51-1.87.75-2.87,1.12a39.46,39.46,0,0,0-1.16-3.84c-.77-1.84-1.27-4.2-2.69-5.27a31.18,31.18,0,0,0-9.07-4.74,28.24,28.24,0,0,0-10.28-1.36c-3.38.26-6.66,1.79-8.91,2.45l-4.83-14L813,263.32c-.34,5.66-2.14,11.75-.63,16.86,1.6,5.41,6,10.21,9.8,14.7,4.49,5.26,9.68,9.91,14.59,14.79,4.6,4.57,10.8,8.35,13.48,13.85,4,8.31,5.94,17.75,8.26,26.83,3.5,13.74,5.2,29.65-7.64,37.47-16.26,9.89-32.51,23.76-54.67,18.44-5.22-1.26-11.46,1.19-16.4-.5C774.48,404,770.4,399,765.43,396c-4-2.41-8.51-3.89-14.59-6.57,5.12-5.58,8.92-10,13.16-14,.52-.48,3.39,1.78,5.27,2.53a60.59,60.59,0,0,0,8.51,2.92c9.32,2.16,18.67,5.38,28.06,5.53,3.77.06,10.1-6.32,10.93-10.61,1.4-7.25,1.11-16-1.85-22.51-2-4.53-10.5-5.74-14.79-9.8-4.94-4.69-8.66-10.76-12.53-16.47-4.62-6.8-9.62-13.52-13-20.94-2.67-5.88-3.1-12.77-4.58-19.2-1-4.56-2.7-9.05-3.09-13.66-.31-3.65.9-7.42,1.46-11.23L764,263.6l-1.24-2.12c6.66-4.52,13.19-9.24,20.07-13.4,1.48-.89,4.18.25,3.7.21L814.2,243c-.06.53-.13,1.06-.2,1.58l7.66-.4c-3.76,1.34-7.08,3.14-10.58,3.64-6.07.87-12.43.19-18.35,1.55-7.1,1.64-15,3.35-20.34,7.73-3.14,2.58-2,10.4-2.77,15.86,0,.25-.33.47.81-1.06,1.59,11.24,3,20.93,4.69,33.23,2.08-2.56,1.51-1.86.94-1.15,3,2.36,6.18,4.45,8.76,7.17,2.09,2.21,4.75,5.15,4.79,7.8.23,15.23,10.33,20.1,22.27,25.88,5.78,2.8,10.6,13.24,10.83,20.38.28,9-4.6,18.1-7,26.27-15.54-3.23-28.45-5.66-41.22-8.72-3.71-.89-7.49-5.59-10.34-4.89-3.31.81-5.62,5.65-8.37,8.74l8.65,5.86c3.38,2.29,6.84,4.47,10.11,6.9,11.43,8.48,45.94,7.17,57-1.89,5.74-4.72,13.45-7.68,17.71-13.36s6.4-13.46,7.07-20.57c.54-5.78-2-12-4-17.83-3.11-9.1-5.54-18.89-10.8-26.66-4.21-6.23-13.12-9.1-18.29-14.93-6.64-7.49-12.08-16.2-17.06-24.94-1.41-2.49.59-6.91,1-10.44.07-.62.18-1.56-.15-1.84a3.13,3.13,0,0,0-2.26-.78,24.53,24.53,0,0,0-4,1.55c.57-1.65.67-3.89,1.83-4.81A15.59,15.59,0,0,1,809,260.3c1.38-.3,3,.35,3.83.48h8.61c1.61,5.34-3.56,15.53,9.86,11.78,3.56-1,8-.39,11.61.85s6.23,4.15,9.36,6.37c0-6.82-.27-12.64.11-18.41.21-3,2.21-6,2.17-9,0-2.19-2.06-4.35-3.2-6.52Z"/><path class="cls-2" d="M286.24,240.89l-8.5-1.55H313.2l-1.32,1.44c2.38.68,4.72,1.71,7.15,2,10.59,1.25,21.65.88,31.64,4,5.07,1.57,9.8,8.63,12,14.26,5.12,13.31,8.61,27.25,12.82,40.91a15,15,0,0,0,1.75,3.07l-1.4-.35c8,9.47,6.75,33.13,1.08,45.15-5.12,10.8-7.66,23.18-9.38,35.18-2.18,15.15-11.6,22-24.84,25-5.11,1.14-10.83-.57-16.28-.8-11.38-.49-22.76-.94-34.15-1.16-1.2,0-2.44,1.64-3.87.86a49.37,49.37,0,0,1-5.63,1.3c-.81.1-2.26-.35-2.48-.92-.66-1.69-1.64-3.85-1.11-5.33,3.25-9,6.89-17.8,11-28.26L283.52,378c2.66-8.87,6.66-17,7.28-25.3,1.53-20.75,1.75-41.62,2.05-62.44.15-11,.21-22.06-1.34-32.86-.72-5-5.41-9.41-8.62-14.6l3.39-2,8,12.72c.52,37.73,5.34,78.4-4.48,116.48,1.36,4.62,3.94,8.64,3.2,11.9-1.25,5.54-4.88,10.49-6.88,15.93-.48,1.32,1.33,5,2.34,5.1,6.71.69,13.5.45,20.23,1s13.56,2.84,20.16,2.23c8.46-.78,17.66-2.1,24.77-6.23,4.59-2.67,6-10.81,8.83-16.49-.93-3.85-.1-6.77.5-9.75.07-.33-1.19-.94-1.77-1.36L372.31,346c-.05-.31-.25-1.44-.12-.74l3.14-7.36c.75-5.29,1.22-8.43,1.57-11.58,0-.24-.77-.58.62.41-1.31-6.19-2.28-10.93-3.41-15.64-.08-.32-1.47-.32-1.86-.39-1.09-19.78-4.3-38.75-18.62-54.31-5.75-6.26-49.31-18.59-56.66-15.22.19.89.38,1.72.57,2.56h-.09l-8.73-3.08c-.38.81-.13.29.34-.7Z"/><path class="cls-2" d="M605.23,408.08c-30.31-3.5-56.65-6.56-83.56,5.78,4.32-14.11,7.72-24.88,10.71-35.77.21-.78-4.07-3-3.84-3.55,3.91-9.82,9.61-19.15,12-29.29,2.76-11.57,3.66-23.82,3.58-35.77-.09-14.35-2-28.71-3.27-43-.62-6.94-2.14-13.84-2.07-20.75,0-1.18,6-2.34,9.23-3.43,1.23-.41,2.52-.6,3.62-2l-4,.34-2.2-2.92c5.64,1.55,10.33,3.32,15.18,4,7.22,1.08,15.31-.32,21.64,2.47,9.09,4,19.79,9,24.72,16.84,12.68,20.07,13.8,43.05,9.4,66.24-2.38,12.58-5,25.13-6.75,37.8C607.8,379.05,606.73,393.1,605.23,408.08ZM533.65,408c5.39-1.32,9.5-2.79,13.74-3.28,9.51-1.1,19.06-2,28.62-2.46,7.78-.42,17.66,2.66,22.82-1.06s6.84-13.8,7.82-21.38c1.53-11.78,1-23.81,1.65-35.71,1.1-19,4.1-38.06,3.1-56.92-.54-10.22-6.29-21.06-12.37-29.76-3.85-5.5-12.29-8.54-19.28-10.88-6.28-2.11-13.37-2.11-20.13-2.36-5.34-.2-10.72.62-16.08,1,.15,1.38.29,2.76.44,4.15l-2.39-3.57c8,40.18,21.45,80.94-7,118.57.88,1.82,2.11,3.14,1.89,4.11-2.93,12.47-6,24.88-9.13,37.31-.18.73-.4,1.45-.6,2.18a7.26,7.26,0,0,0,2.06-.37c2.15-1.16,4.23-2.43,7.58-4.38l-4,4.88.88.53C533.72,407.92,534.16,407.22,533.65,408Z"/><path class="cls-2" d="M644.05,388.06c2.59-3.26,5.17-6.53,7.79-9.77.29-.36,1-.5,1.13-.86,1.25-4.78,2.42-9.58,2.75-10.94-2.66-3.4-3.57-4-3.62-4.75a11.29,11.29,0,0,1,.68-3.4c.91-3.68,1.83-7.35,3-12l-7.49,4.74c1-3,2.35-5.88,2.91-8.94,1.38-7.61,2.77-15.25,3.46-22.94a226.33,226.33,0,0,0,.81-24.15A155.06,155.06,0,0,0,653.73,273c-1.34-8.14-4.34-16.05-5.29-24.21-.33-2.84,3.32-6.14,5.18-9.28l-3.25-1H680.2l-1.2.24c-.73,1.73-1.31,2.57-1.13,2.79.6.74,1.43,1.67,2.26,1.76,1.15.13,2.54-.94,3.56-.62,9.09,2.8,18.25,5.5,27.07,9,1.72.68,1.51,5.31,3.25,7a117.16,117.16,0,0,0,12.65,10.21c.76.57,3.16,0,3.21.28A50.48,50.48,0,0,1,731,278.5c0,1.91-1,3.83-1.78,6.74-3.07.39-8.34,2.76-10.77,1.06-6-4.23-10.09-11.39-16.26-15.28-4.67-2.94-12-4.62-16.93-3-3,1-4.07,9.05-5.41,14.1a165.85,165.85,0,0,0-3.6,17.93,32.3,32.3,0,0,0,.13,9,134,134,0,0,0,2.52,13.49c.22.91,1.7,1.52,2.17,1.92.82-2.77,1.47-5,2.19-7.18,0,0,1.38.18,1.43.42a24,24,0,0,1,.66,8.19v-.4c-1.9.7-5.56,2.55-5.88,2.09-1.85-2.66-3.8-5.8-4-8.91-.66-8.46-.5-17-.64-25.49v-6.74c.94-1.83,2.33-3.26,2.28-4.65a105.77,105.77,0,0,0-1.41-11.2c-.08-.52-.78-1.33-.66-1.45A28.72,28.72,0,0,1,678.8,266a38.89,38.89,0,0,1,4.09-2.16l14.52-1c5.28,5.48,10.56,12.81,17.53,17.73,9.11,6.43,9.79,5.65,13.81-6,.35-1-1.69-3.24-3.08-4.3-4.44-3.36-9.14-6.37-13.63-9.66-1-.69-1.47-2-2.3-3.17l1.58-.4-1.63-4a19.66,19.66,0,0,0-6.86-4.23c-5-1.49-10.56-1-15.69-2.21-4.93-1.14-9.51-3.88-14.46-4.84-4.61-.88-9.49-.39-14.24-.23a43.78,43.78,0,0,0-.43,4.42,1,1,0,0,1-.67.72,1.18,1.18,0,0,1-1-.51c-.37-.93-.59-1.91-.87-2.88-1.18,1-3.46,2.16-3.34,3,.86,6,2.53,11.81,3.31,17.78a160.59,160.59,0,0,1,.91,16.84c.07,3.42-.31,6.85-.47,9.89l2.89-1.13c-.07,2.93-.19,5.86-.21,8.79V314c.58-.09,0,0-.69.12.26,1.71.53,3.41.77,5-.63.23-1.44.33-1.49.58q-2.58,12.93-5,25.9l4.39-2.06c.52,1.85,1.16,4.06,1.9,6.62l-1.39-.49c-.86,3.22-1.7,6.38-2.69,10.15l6.45-4c-4.06,13.4-7,23.19-10.71,35.38l-2.92-4.65-3.11,1.62Z"/><path class="cls-2" d="M189.32,244.8c2.73-1.19,5.42-2.53,8.21-3.56,10.3-3.77,26.16,1.73,30.8,12.08,4.44,9.92,9.84,20.77,9.58,31.07s-5.94,21.07-11.28,30.48a76.28,76.28,0,0,1-18.5,21.49c-7.46,5.95-17.33,8.79-25.18,14.36-3.58,2.55-6.4,8.25-6.79,12.76-.76,8.66.45,17.49.94,26.24,0,.31,1.09.56,1.85.92-.42.21-.82.42.17-.09-1.37,6.47-.78,14.94-4.11,17-5.82,3.55-14,3.2-21.28,4.34-1.3.2-2.72-.34-1.6-2.25l21.11-2.75c.32-3,.65-6.21,1.13-10.83-.49.73.25,0,.51-.88.14-.49-.53-1.21-.08-.3-.58-3.89-1.5-6.37-1.19-8.68,1.66-12.09,3.26-24.23,5.92-36.12.38-1.68,6.89-1.42,9.81-3.24,4.64-2.89,8.53-7,13-10.19,3.88-2.83,9.75-4.25,11.88-7.95,7.54-13.09,15.78-26.33,19.87-40.63,2.33-8.11-1.23-19.19-5.23-27.44-3.37-7-10.27-14-17.31-16.92-6.19-2.57-14.73.52-22.23,1.11Z"/><path class="cls-2" d="M146.45,404.76c0-8.58-.29-17.18.08-25.75.44-10,1.45-20,1.92-26-2-6.36-3.73-9.28-3.65-12.14.47-16.65,1.86-33.27,1.95-49.91,0-9-2.95-18.09-2.61-27.06.29-7.34,3.48-14.57,4.83-19.73v74h.4V404.8Z"/><path class="cls-2" d="M644.05,388.06c.12,3.68.25,7.35.35,11,0,.36-.32.78-.22,1.08a14.93,14.93,0,0,0,1,2c.35-.39.68-.79,1-1.15a.62.62,0,0,1,.56-.09c.29.25.7.56.73.89.14,1.18.15,2.39.2,3.58L649.8,404l60.83,3.59c1.45-7.78,2.85-14.14,3.76-20.57.47-3.39.08-6.91,1.29-10.49v25.64c-3.38,2.59-8.74,10.07-14.55,10.45-12,.78-24.24-2.27-36.39-3.66-6-.69-14.51,1-17.45-2.36-3.54-4-2.38-12.18-3.26-18.55Z"/><path class="cls-2" d="M677.72,352.21v27.56c1,.08,1.77-.09,2.14.23.77.68,1.3,1.63,4,5.17a82.54,82.54,0,0,0,8.29,3.14c.56.17,1.79-1.83,2.71-2.82.25.94,1,2.26.64,2.74a19.44,19.44,0,0,1-3.44,2.9l.67.41-1.19,1.84-14.3-9.79c-.89-7.17-2.19-15.3-2.75-23.47-.22-3.25,1.19-6.61,1.86-9.91Z"/><path class="cls-2" d="M176.47,290.92c-.55-6.33-1.87-12.71-1.48-19,.62-10.06,9.28-4.16,14-5.54,3.59-1,8.87.94,12.36,3.19,2.42,1.57,4.92,6.43,4.18,8.83-2.08,6.72-5.82,12.92-9.47,19.05l10.14-21.67a13,13,0,0,1-1.95.42c-5.23-13.55-16.52-2.23-24.12-5.91-1.35,3-3.35,5.95-3.87,9.11-.61,3.74.06,7.69.17,11.54Z"/><path class="cls-2" d="M677.72,352.21l-1.4-2-3.5-7.08,19.76-1.69c1,3.42,1.93,6.38,3.19,10.56.53-.1-2.37.92-2.66.42-1-1.82-.89-4.32-1.88-6.19-.53-1-3.07-2.13-3.7-1.71C684.09,346.83,681,349.6,677.72,352.21Z"/><path class="cls-2" d="M737.31,189.13c5-7.88,10.75-14,21.53-12.08,3.48.62,7.32-.92,11-1.29a17.18,17.18,0,0,1,3.9.52c-2.37,11.07-10.15,2-15,4-5.38,2.18-11.12,3.44-16.6,5.41C740.32,186.3,738.9,187.94,737.31,189.13Z"/><path class="cls-2" d="M701.49,316.94c1.36,2.64,1,2,.67,1.3l.51-.35c.47.73,1.38,1.49,1.34,2.2-.26,4.64-.73,9.26-1.24,15.12-2-9.78-3.64-17.92-5.29-26.06l1.24-.36C700.06,312.74,701.41,316.69,701.49,316.94Z"/><path class="cls-2" d="M176.42,291c.5,2.17,1.59,4.39,1.4,6.49-1,10.92,4.08,9.57,10.92,6.06l-8.94,4.21c-.89-3.23-1.94-6.43-2.62-9.71a63,63,0,0,1-.7-7.13Z"/><path class="cls-2" d="M684.67,314.27c.16,1.26-.75-.87-.08-1.65,1.92-2.22,4.47-3.9,6.77-5.79a12.5,12.5,0,0,1,1.15,3.07,2.38,2.38,0,0,1-1.24,1.78C689.18,312.64,687,313.38,684.67,314.27Z"/><polygon class="cls-2" points="287.54 213.74 287.49 213.88 287.45 213.74 287.54 213.74"/><path class="cls-2" d="M403.62,53.9c3.09-.17,9,1.8,9,2.36-.93,9.95-3.41,19.79-3.87,29.73-.65,13.9-10,11.14-18.9,12.45-19.4,2.85-12.94-26.13-14-37.18C375.37,56.72,399.8,54.26,403.62,53.9Zm-30,3.78c0,12.1-1.31,24.45.9,36.13.56,3,12.31,5.58,18.76,5.24,5.51-.29,13.2-3.71,15.61-8.11,3.9-7.12,5-16.1,5.89-24.44.79-7.21,1.76-16.25-10.62-14.37-2.46.37-4.81,1.67-7.27,1.88-3,.74-20.09,2.25-23.29,3.67Z"/><path class="cls-2" d="M331.69,353.78c-12.86-.1-8.67-11-9-17.09-.64-11.49,1.13-23.13,2-34.7a11.94,11.94,0,0,1,1-2.95c2.48,1,4.89,2.25,7.43,3.08,14,4.59,10.44,18.35,14.4,28.06C351,338.74,340.85,353.18,331.69,353.78ZM342.13,320l-12.59-20.43-5.12,2V351.9C344.73,348.19,344.73,348.19,342.13,320Z"/><path class="cls-2" d="M572.8,305.61c6.06.19,12.16.06,18.14.85,1,.13,2.31,4.16,2.22,6.34-.34,7.65-1.19,15.28-2,22.9-.08.81-1,1.53-2.5,3.5.69-8.73,1.75-15.93,1.71-23.12-.08-12.73-10-9.85-17.66-10.51Z"/><path class="cls-2" d="M572.72,305.57c-1.57,14.28-3.15,28.56-4.82,43.75l15.15-1.44-17.55,3.23c2.56-16,4.93-30.74,7.29-45.49Z"/><path class="cls-2" d="M444.14,456.38c124.88.34,325.54,13.95,414.4,111.32,0,0-126.2,102-410.09,104.29s-392-64.7-393.16-106.83C54.2,525.05,202.43,455.71,444.14,456.38Z"/><path class="cls-1" d="M151.72,524c16.08,16,17.08,94,17.08,94l33.63-5-13.69-35s26.06,12,31.06,21,14-28,14-28l-39-19,16-41-22.06,5-6.16,25L169.8,516Z"/><path class="cls-1" d="M291.8,559c3,15-18,60-39,35s-8.93-79-8.93-79C292.92,478,288.8,544,291.8,559Zm-25.55,16c9.45,9,10.55-8,11.49-22.35S260.8,523,255.8,529C255.8,529,256.8,566,266.25,575Z"/><path class="cls-1" d="M295.8,511s15,87,18,80,20.07-6,20.07-6l-4.25-53,18.59,45.51s16.59-2.49,20.59,0,2-73.73,7-73.62-27.17-10.11-27.59,0-4.89,23.77-4.89,23.77-6-31.88-14.77-23.77S322.8,503,319.8,512s-2,23-2,23l-11-31.11Z"/><path class="cls-1" d="M382.62,573s.92-73.16,12.05-73.58,41.13,39,36.13,64.79-15,0-15,0,.38-38.88-8.81-36.55S401.8,566,401.8,566Z"/><polygon class="cls-1" points="394.67 545.41 419.8 545.41 415.8 564.21 394.67 554.81 394.67 545.41"/><path class="cls-1" d="M660.66,570.31s.92-73.16,12.05-73.58,41.13,39,36.13,64.8-15,0-15,0,.38-38.89-8.81-36.55-5.19,38.34-5.19,38.34Z"/><polygon class="cls-1" points="672.71 542.72 697.84 542.72 693.84 561.52 672.71 552.13 672.71 542.72"/><path class="cls-1" d="M457.8,493c26.44-6.41,14,24,14,24s-10,14,6,20.55-3,34.45-6,38.12-40,20.33-32,1.84-8.45-78.09-8.45-78.09Zm3,31c2.66-1.33.33-18,0-20.33s-15.67,4-15.67,4S458.13,525.33,460.8,524Zm-1.34,46.67s11.34-14,13-19.34-15.55-5.92-15.55-5.92Z"/><path class="cls-1" d="M488.46,495.67s-.66,80.68,7.34,80,29,1,31.66-9.66-2.33-70.34-2.33-70.34l-14,3.75s13.33,33.1,8.67,39.67-24.34-39.76-23.34-43.42S488.46,495.67,488.46,495.67Z"/><path class="cls-1" d="M582.57,572.12s.66-80.68-7.34-80-29-1-31.66,9.67,2.33,70.33,2.33,70.33l14-3.75s-13.33-33.1-8.67-39.67,24.34,39.76,23.34,43.42S582.57,572.12,582.57,572.12Z"/><path class="cls-1" d="M632.13,494c-7-2.37-29.33-8-36.33,0s-5.34,71.63,4.33,76.63,41,1.33,40.33-10.67-2.66-25.14-2.66-25.14H620.13s-14.33,12.81-10,13.47S626.8,552,626.8,552s-1.67,12.67-9.34,10-22.33-30.11-13-48.39,26.67-6.28,26.67-6.28Z"/><path class="cls-1" d="M164.38,633.91S340.79,578.24,376,612.57c55.63,54.28,368.83,7.76,389.62-65.66,8.88-31.38-27.39-35.91-38.17-22.49-12.31,15.32-11.62,33.67-.3,14.53,5.74-9.72,18.11-12.49,22.47-5.72,5.51,8.56-4.29,20.47-14,29.53-37.79,35.42-311.58,89.73-343.45,42.36C373.12,576.79,202,613.39,164.38,633.91Z"/></g></g></svg>
