<svg xmlns="http://www.w3.org/2000/svg" viewBox="0 0 747.75 423.04"><defs><style>.cls-1{fill:#1e7272;}</style></defs><title>surfs up3</title><g id="Layer_2" data-name="Layer 2"><g id="Layer_1-2" data-name="Layer 1"><path class="cls-1" d="M101,66.26c-2-2,6-60-8-61s-64-16-77,13-23,73-7,95,54,13,49,41c-3,17,25,25-3,31s-40-29-47-9-17,36,8,35,53,21,67,2,28-16,24-35,14-48-6-65-36-32-39-41-8-13,11-10,29,13,28,14S101,66.26,101,66.26Z"/><path class="cls-1" d="M190,24.26c8-9,35-16,38-10s20,80,16,89-15,91-22,95-47,11-56,10-35-10-41-34-3-53-5-75-6-80-2-87,38-6,42,0,4,76-3,108-2,51,4,54,21,12,24,7,10-58,12-69-10-69-9-75S190,24.26,190,24.26Z"/><path class="cls-1" d="M277,204.26c-17,0-26,12-24-30s6-85,1-104-13-51-6-53,92-14,100-7,30-5,35,16,9,45,3,59-25,41-29,42,2,10,4,15,22,41,8,58-45-17-47-24-3-31-10-34-18,18-20,29S281,204.26,277,204.26ZM298.87,93.47c.7,3.49,24.45,4.19,30-.7s5.59-30,4.89-34.23-28.87.58-34.93,2.09C293.28,62,298.17,90,298.87,93.47Z"/><path class="cls-1" d="M395,22.26c-3,20.88,14,52,15,88s-11,82,4,89,34,8,31-3,2-65,8-70,22,17,26,10,24-22,23-26-1-25-22-16-29-8-22-15,34-29,53-17,15,24,19,19,16-18,15-29,8-48-5-44-112,6-122,6S396,15.26,395,22.26Z"/><path class="cls-1" d="M569,5.26c-5,13-6,40,0,43s23-3,23-13,6-23,6-23c5-4,8-14,2-12s-23,6-23,6Z"/><path class="cls-1" d="M725,29.26c0,17.12,6,46-7,41s-37-20-44-12-15,17-6,21,49,28,52,48,13,48-7,57-24,7-53,11-46,16-57-6,15-15,17-14,26,5,38-3,17-26,13-34-45-29-55-47-19-33-3-55,69-30,78-28S725,9.26,725,29.26Z"/><path class="cls-1" d="M740,285.26c2-8,11-39,5-42s-61-6-72-2-35,9-30,24,4,54,24,70,38,31,28,41-43-11-48-7-20,20-17,24,31,19,44,18,49,0,62-20,15-20,7-40-4-33-23-46-21-29-21-29,16-1,21,5,6,11,13,10S740,285.26,740,285.26Z"/><path class="cls-1" d="M620,318.26c-2.37,19-4,38-10,38s-19-12-18-5,2,29,8,29,34-18,33-8,3,38-7,40-63,10-69,0-9-27-5-33,15-87,10-107-6-35,0-38,44-1,46,3,33,18,35,28,7,23-3,24-25-22-35-20-15,34-13,38,11-10,16-7S621,310.26,620,318.26Z"/><path class="cls-1" d="M556,264.26c14.63,24.38-5,110-11,143s-8,4-44,4-49,15-48,1,31-83,28-103-12-67-8-72S538,234.26,556,264.26ZM506,348s14.2-3.55,17.76-2.66,5.32-29.29,6.21-35.51-17.87-.77-17.87-.77Z"/><path class="cls-1" d="M431,254.26c4-11,20-20,29-12s18,23,13,63-13,99-42,106-46,3-53-4-12-72-11-82-1-77,6-81,32-8,34,0-6,84-6,84a226.28,226.28,0,0,1,4,24c2,16,8,28,14,24s4-79,6-86S431,254.26,431,254.26Z"/><path class="cls-1" d="M260,239.26c-1.24-3.39,68-8,79,7s30,56,25,89-5,30-8,45-9,32-40,35-32-5-47,0-14-15-9-28S279,291.26,260,239.26Zm46,104s2,11,10,9,13-15,11-31-18-22-18-22Z"/><path class="cls-1" d="M71,246.26c12-3,54-33,55,11s4,128-24,149-64,15-73,6-26-32-26-63,4-83,0-94,8-24,15-23,38-3,35,36-3,94,3,93,20-19,18-43S71,246.26,71,246.26Z"/><path class="cls-1" d="M136,243.26c3-9,34-2,32.61-3.21S209,227.26,227,257.26s5,12-3,51-35,35-47,41-6,41-6,56-15.58,6.79-32,15C133,423.26,133,252.26,136,243.26Zm41,59c12-5,20-24,17-31s-25-2-25-2S165,307.26,177,302.26Z"/></g></g></svg>